<svg width="26" height="20" viewBox="0 0 26 20" fill="none" xmlns="http://www.w3.org/2000/svg">
<path d="M25.0714 0H0.928571C0.414955 0 0 0.40625 0 0.909091V19.0909C0 19.5938 0.414955 20 0.928571 20H25.0714C25.585 20 26 19.5938 26 19.0909V0.909091C26 0.40625 25.585 0 25.0714 0ZM22.7268 3.09375L13.5717 10.0682C13.3453 10.2415 13.029 10.2415 12.8027 10.0682L3.64464 3.09375C3.61012 3.06767 3.5848 3.03166 3.57223 2.99078C3.55966 2.9499 3.56047 2.90619 3.57455 2.86579C3.58862 2.82538 3.61526 2.7903 3.65073 2.76546C3.6862 2.74062 3.72871 2.72727 3.77232 2.72727H22.5991C22.6427 2.72727 22.6852 2.74062 22.7207 2.76546C22.7562 2.7903 22.7828 2.82538 22.7969 2.86579C22.811 2.90619 22.8118 2.9499 22.7992 2.99078C22.7866 3.03166 22.7613 3.06767 22.7268 3.09375Z" fill="white" fill-opacity="0.5"/>
</svg>
