<svg width="26" height="26" viewBox="0 0 26 26" fill="none" xmlns="http://www.w3.org/2000/svg">
<path fill-rule="evenodd" clip-rule="evenodd" d="M3.06379 0.829001C3.34812 0.545104 3.68953 0.324874 4.06541 0.182905C4.44128 0.0409357 4.84304 -0.0195303 5.24405 0.0055138C5.64506 0.0305579 6.03618 0.14054 6.39147 0.328172C6.74676 0.515804 7.05812 0.776801 7.30491 1.09387L10.2217 4.841C10.7563 5.52835 10.9448 6.4237 10.7336 7.26867L9.84471 10.8273C9.79875 11.0116 9.80123 11.2047 9.85191 11.3878C9.90259 11.5708 9.99975 11.7377 10.1339 11.8722L14.1264 15.8647C14.2611 15.9991 14.4282 16.0964 14.6116 16.1471C14.795 16.1978 14.9884 16.2001 15.1729 16.1539L18.7299 15.265C19.1469 15.1608 19.5821 15.1527 20.0027 15.2414C20.4233 15.33 20.8182 15.5132 21.1576 15.7769L24.9047 18.6921C26.2518 19.7402 26.3753 21.7307 25.1696 22.9348L23.4894 24.615C22.2869 25.8175 20.4897 26.3456 18.8144 25.7557C14.5265 24.247 10.6333 21.7922 7.42353 18.5734C4.20498 15.3642 1.7502 11.4715 0.241258 7.18418C-0.346974 5.51048 0.181135 3.71166 1.3836 2.5092L3.06379 0.829001Z" fill="white" fill-opacity="0.5"/>
</svg>
