<svg width="70" height="70" viewBox="0 0 70 70" fill="none" xmlns="http://www.w3.org/2000/svg">
<circle cx="35" cy="35" r="35" fill="#018FE3"/>
<path d="M40.7756 35.4694C40.562 36.4121 40.156 37.3016 39.5827 38.0828L44.6918 43.1512C44.9676 43.4248 45.0753 43.8235 44.9742 44.1972C44.8734 44.5711 44.5791 44.863 44.2024 44.963C43.8256 45.0632 43.4237 44.9564 43.1479 44.6828L38.0388 39.6144H38.039C36.6544 40.6199 34.9532 41.1011 33.2421 40.9714C31.5313 40.8417 29.9236 40.1095 28.709 38.907L28.6157 38.81L30.1706 37.2675C30.2017 37.3005 30.2284 37.3336 30.2594 37.3666H30.2595C31.2935 38.4002 32.7308 38.9341 34.1947 38.8282C35.6585 38.7224 37.0029 37.9874 37.8747 36.816C38.7466 35.6447 39.0591 34.154 38.7305 32.735C38.4017 31.3159 37.4644 30.1102 36.1645 29.4339C34.8647 28.7577 33.3319 28.6786 31.9682 29.2174C30.6047 29.7561 29.5464 30.859 29.071 32.2366L26.6409 34.6475C26.4815 33.2658 26.7328 31.868 27.3641 30.6262C27.9953 29.3845 28.9789 28.3531 30.1937 27.6591C31.4085 26.9649 32.8013 26.6384 34.2008 26.7199C35.6002 26.8012 36.9451 27.287 38.0697 28.117C39.1945 28.9473 40.0498 30.0855 40.5306 31.3919C41.0112 32.6983 41.0963 34.1156 40.7753 35.4695L40.7756 35.4694ZM44.9093 25.0001H40.6554C40.2659 25.0001 39.9058 25.2062 39.711 25.541C39.5161 25.8758 39.5161 26.2882 39.711 26.623C39.9058 26.9578 40.2659 27.164 40.6554 27.164H42.2748L40.4399 28.9843L40.4401 28.9842C40.8939 29.592 41.2602 30.2595 41.5285 30.9674L43.8187 28.6955V30.302C43.8187 30.6886 44.0266 31.0458 44.3639 31.239C44.7014 31.4322 45.1173 31.4322 45.4546 31.239C45.7921 31.0458 46 30.6885 46 30.302V26.082C46 25.795 45.885 25.5197 45.6805 25.3168C45.476 25.1139 45.1986 25 44.9093 25L44.9093 25.0001ZM25.8638 40.0089L31.8324 34.0878L34.3336 36.5692C34.5383 36.7724 34.8159 36.8867 35.1055 36.8867C35.3951 36.8867 35.6728 36.7724 35.8775 36.5692L37.5546 34.9054H37.5545C37.8185 33.9743 37.721 32.9789 37.2813 32.1156L35.1066 34.273L32.6054 31.7916C32.4008 31.5882 32.1231 31.474 31.8335 31.474C31.5439 31.474 31.2662 31.5882 31.0615 31.7916L24.3198 38.4796C24.044 38.7532 23.9363 39.152 24.0372 39.5256C24.1382 39.8993 24.4325 40.1912 24.8091 40.2915C25.1858 40.3915 25.5878 40.2847 25.8636 40.0111L25.8638 40.0089Z" fill="white" stroke="#018FE3" stroke-width="0.5"/>
</svg>
