<svg width="70" height="70" viewBox="0 0 70 70" fill="none" xmlns="http://www.w3.org/2000/svg">
<circle cx="35" cy="35" r="35" fill="#018FE3"/>
<path d="M44.753 33.6404C43.9893 33.3908 43.3949 32.8156 43.1225 32.0624C42.856 31.3261 42.936 30.5182 43.3418 29.8461C43.7814 29.1183 43.7137 28.2265 43.1732 27.627L43.0888 27.5346C42.5395 26.9387 41.653 26.7778 40.9345 27.1426C40.2178 27.5061 39.3913 27.5196 38.666 27.1794C37.9408 26.8396 37.4223 26.1952 37.2432 25.4121C37.0635 24.6262 36.3729 24.0483 35.5638 24.007L35.4371 24.0014C34.6258 23.9698 33.8901 24.4819 33.6403 25.2471C33.3906 26.011 32.8156 26.6053 32.0624 26.8779C31.3259 27.1439 30.518 27.0641 29.8457 26.6586C29.1186 26.2194 28.2265 26.2864 27.6277 26.8266L27.5346 26.9113C26.9388 27.4606 26.7775 28.3465 27.1426 29.0656C27.5058 29.7821 27.5196 30.6088 27.1794 31.3343C26.8394 32.0595 26.1952 32.578 25.4121 32.7571C24.626 32.9368 24.0481 33.6274 24.007 34.4366L24.0014 34.5633C23.9697 35.3712 24.4817 36.1102 25.2472 36.36C26.0109 36.6096 26.6053 37.1848 26.8776 37.9381C27.1441 38.6743 27.0642 39.4822 26.6583 40.1544C26.2191 40.8821 26.2865 41.7739 26.827 42.3734L26.9114 42.4659C27.4606 43.0616 28.3468 43.2224 29.0657 42.8579C29.7816 42.4943 30.6083 42.4809 31.3342 42.821C32.0593 43.1609 32.5779 43.8052 32.7569 44.5884C32.9367 45.3745 33.6273 45.9521 34.4363 45.9933L34.563 45.9989C34.5867 45.9994 34.6101 45.9999 34.6336 45.9999C35.4134 45.9999 36.1169 45.4955 36.3594 44.7528C36.609 43.9891 37.184 43.3948 37.9373 43.122C38.6735 42.8555 39.4814 42.9355 40.1539 43.3415C40.8818 43.7806 41.7736 43.7134 42.3728 43.1728L42.4652 43.0884C43.061 42.5392 43.2223 41.6532 42.8572 40.9342C42.494 40.218 42.4802 39.391 42.8204 38.6656C43.1604 37.9405 43.8048 37.4219 44.5877 37.2429C45.3738 37.0635 45.9517 36.3729 45.9928 35.5633L45.9986 35.4366C46.0305 34.6292 45.5183 33.8902 44.753 33.6405L44.753 33.6404ZM35 29.6999C36.4524 29.6999 37.6344 30.8815 37.6344 32.334C37.6344 33.7864 36.4528 34.9684 35 34.9684C33.5476 34.9684 32.3659 33.7868 32.3659 32.334C32.3659 30.8819 33.5475 29.6999 35 29.6999ZM39.3926 39.8637V39.8749C39.3926 40.1095 39.2025 40.3 38.9675 40.3H31.0317C30.7971 40.3 30.6066 40.1099 30.6066 39.8749V39.2159C30.6066 37.4263 32.0323 35.9669 33.8071 35.9054C33.846 35.9038 33.8839 35.8996 33.9231 35.8996H36.0755C36.1145 35.8996 36.1526 35.904 36.1914 35.9054C37.9663 35.9673 39.3923 37.4263 39.3923 39.2162L39.3921 39.8637L39.3926 39.8637Z" fill="white"/>
</svg>
