<svg width="70" height="70" viewBox="0 0 70 70" fill="none" xmlns="http://www.w3.org/2000/svg">
<circle cx="35" cy="35" r="35" fill="#018FE3"/>
<path d="M44.7504 26H25.2494C24.5604 26 24 26.5739 24 27.2793V40.7852C24 41.4903 24.5606 42.0643 25.2494 42.0643H32.0298V44.2037H30.1248C29.8955 44.2037 29.7355 44.3675 29.7355 44.6019C29.7355 44.8363 29.8955 45 30.1248 45H39.8752C40.1045 45 40.2642 44.8362 40.2642 44.6019C40.2642 44.3672 40.1041 44.2037 39.8752 44.2037H37.9704V42.0643H44.7504C45.4394 42.0643 45.9998 41.4903 45.9998 40.7852L46 27.2793C45.9997 26.5739 45.4393 26 44.7502 26H44.7504ZM37.1919 42.0644V44.2039H32.8079V42.0644H37.1919ZM24.7784 37.9537H45.2214V40.7851C45.2214 41.051 45.0101 41.2675 44.7502 41.2675H25.2497C24.9899 41.2675 24.7785 41.0512 24.7785 40.7851V37.9537H24.7784ZM25.2494 26.7966H44.7504C45.0101 26.7966 45.2215 27.0129 45.2215 27.279V37.1569L24.7786 37.157V27.2792C24.7786 27.0132 24.9898 26.7966 25.2496 26.7966L25.2494 26.7966Z" fill="white" stroke="white" stroke-width="0.7"/>
<path d="M35 40.3029C35.4613 40.3029 35.676 40.083 35.676 39.6107C35.676 39.1451 35.455 38.9185 35 38.9185C34.5454 38.9185 34.324 39.1448 34.324 39.6107C34.324 40.083 34.5387 40.3029 35 40.3029Z" fill="white" stroke="white" stroke-width="0.7"/>
</svg>
