<svg width="70" height="70" viewBox="0 0 70 70" fill="none" xmlns="http://www.w3.org/2000/svg">
<circle cx="35" cy="35" r="35" fill="#018FE3"/>
<path d="M43.3759 24.0262C42.7737 24.0286 42.1928 24.249 41.739 24.6466C41.2855 25.0441 40.9897 25.5926 40.9062 26.1911H37.4275C37.3089 25.3428 36.7682 24.6134 35.9927 24.2559C35.2172 23.8981 34.3138 23.9614 33.5953 24.4237C32.8768 24.886 32.4424 25.6838 32.4424 26.5404C32.4424 27.3971 32.8767 28.1948 33.5953 28.6571C34.3137 29.1194 35.2171 29.1825 35.9927 28.8249C36.7682 28.4674 37.3089 27.7378 37.4275 26.8895H40.9409C41.0305 27.5305 41.3629 28.112 41.8689 28.5132C42.3748 28.9143 43.0152 29.1043 43.6572 29.0434C44.299 28.9825 44.8928 28.6754 45.3148 28.186C45.7368 27.6969 45.9547 27.0631 45.9229 26.4167C45.8911 25.7702 45.6123 25.161 45.1445 24.7157C44.6767 24.2705 44.0557 24.0235 43.4107 24.0261L43.3759 24.0262ZM34.9575 28.3212C34.4778 28.3212 34.0177 28.13 33.6785 27.7895C33.3393 27.449 33.1485 26.9871 33.1485 26.5056C33.1485 26.0238 33.3393 25.5619 33.6785 25.2214C34.0177 24.8809 34.4778 24.6897 34.9575 24.6897C35.4373 24.6897 35.8973 24.8809 36.2366 25.2214C36.5758 25.5619 36.7665 26.0237 36.7665 26.5056C36.7665 26.9871 36.5758 27.449 36.2366 27.7895C35.8973 28.13 35.4373 28.3212 34.9575 28.3212ZM43.3759 28.3212C42.8962 28.3212 42.4361 28.13 42.0969 27.7895C41.7577 27.449 41.567 26.9871 41.567 26.5056C41.567 26.0238 41.7577 25.5619 42.0969 25.2214C42.4361 24.8809 42.8962 24.6897 43.3759 24.6897C43.8557 24.6897 44.3157 24.8809 44.655 25.2214C44.9942 25.5619 45.1849 26.0237 45.1849 26.5056C45.1849 26.9871 44.9942 27.449 44.655 27.7895C44.3158 28.13 43.8557 28.3212 43.3759 28.3212V28.3212Z" fill="white" stroke="white" stroke-width="0.7"/>
<path d="M26.5391 40.9623C25.8748 40.9623 25.2378 41.2271 24.768 41.6987C24.2982 42.1702 24.0344 42.8096 24.0344 43.4763C24.0344 44.1432 24.2982 44.7826 24.768 45.2542C25.2378 45.7258 25.8747 45.9906 26.5391 45.9906C27.2033 45.9906 27.8405 45.7258 28.3103 45.2542C28.7798 44.7827 29.0438 44.1433 29.0438 43.4763C29.0438 42.8097 28.7798 42.1703 28.3103 41.6987C27.8405 41.2271 27.2033 40.9623 26.5391 40.9623ZM26.5391 45.2574C26.0594 45.2574 25.5993 45.0659 25.2601 44.7254C24.9209 44.3849 24.7301 43.923 24.7301 43.4414C24.7301 42.9599 24.9209 42.4981 25.2601 42.1575C25.5993 41.817 26.0594 41.6255 26.5391 41.6255C27.0189 41.6255 27.4789 41.817 27.8182 42.1575C28.1574 42.498 28.3481 42.9599 28.3481 43.4414C28.3481 43.923 28.1574 44.3848 27.8182 44.7254C27.4789 45.0659 27.0189 45.2574 26.5391 45.2574Z" fill="white" stroke="white" stroke-width="0.7"/>
<path d="M43.3759 32.3371C42.6659 32.3495 41.9945 32.6637 41.5289 33.2018C41.0632 33.7398 40.8468 34.4511 40.9337 35.1585C41.0205 35.8659 41.4025 36.503 41.9846 36.9115L36.9752 41.9748C36.5715 41.4377 35.9699 41.0855 35.3055 40.9971V37.3304C36.1505 37.2116 36.8772 36.6686 37.2334 35.8904C37.5899 35.1119 37.5268 34.205 37.0662 33.4838C36.6057 32.7625 35.811 32.3263 34.9576 32.3263C34.1042 32.3263 33.3095 32.7625 32.8489 33.4838C32.3884 34.205 32.3253 35.1118 32.6817 35.8904C33.038 36.6686 33.7647 37.2116 34.6096 37.3304V40.9971C33.9231 41.0957 33.3083 41.476 32.9113 42.0467C32.5143 42.6174 32.3709 43.3279 32.5153 44.0087C32.6594 44.6898 33.0785 45.28 33.6725 45.6392C34.2663 45.9985 34.9821 46.0945 35.6491 45.9045C36.3162 45.7142 36.875 45.2551 37.1922 44.6359C37.5096 44.017 37.5569 43.2935 37.323 42.6383L42.6803 37.2605C43.3866 37.5046 44.1643 37.4193 44.8018 37.0284C45.439 36.6372 45.869 35.981 45.9748 35.2388C46.0803 34.4966 45.8505 33.7457 45.3477 33.191C44.8449 32.6366 44.1221 32.336 43.3759 32.3718L43.3759 32.3371ZM33.1486 34.8513C33.1486 34.3695 33.3393 33.9077 33.6786 33.5671C34.0178 33.2266 34.4779 33.0354 34.9576 33.0354C35.4374 33.0354 35.8974 33.2266 36.2366 33.5671C36.5759 33.9077 36.7666 34.3695 36.7666 34.8513C36.7666 35.3329 36.5759 35.7947 36.2366 36.1352C35.8974 36.4758 35.4374 36.667 34.9576 36.667C34.4779 36.667 34.0178 36.4758 33.6786 36.1352C33.3393 35.7947 33.1486 35.3329 33.1486 34.8513ZM34.9576 45.2574C34.4779 45.2574 34.0178 45.066 33.6786 44.7254C33.3393 44.3849 33.1486 43.9231 33.1486 43.4415C33.1486 42.9599 33.3393 42.4981 33.6786 42.1576C34.0178 41.8171 34.4779 41.6256 34.9576 41.6256C35.4373 41.6256 35.8974 41.8171 36.2366 42.1576C36.5759 42.4981 36.7666 42.9599 36.7666 43.4415C36.7666 43.9231 36.5759 44.3849 36.2366 44.7254C35.8974 45.066 35.4373 45.2574 34.9576 45.2574ZM43.376 36.6671C42.8963 36.6671 42.4362 36.4759 42.097 36.1354C41.7577 35.7949 41.567 35.3331 41.567 34.8515C41.567 34.3697 41.7577 33.9078 42.097 33.5673C42.4362 33.2268 42.8963 33.0356 43.376 33.0356C43.8557 33.0356 44.3158 33.2268 44.655 33.5673C44.9943 33.9078 45.185 34.3696 45.185 34.8515C45.185 35.333 44.9943 35.7949 44.655 36.1354C44.3158 36.4759 43.8558 36.6671 43.376 36.6671V36.6671Z" fill="white" stroke="white" stroke-width="0.7"/>
<path d="M43.376 40.9623C42.7119 40.9623 42.0747 41.2271 41.6049 41.6987C41.1354 42.1702 40.8713 42.8096 40.8713 43.4763C40.8713 44.1432 41.1353 44.7826 41.6049 45.2542C42.0747 45.7258 42.7119 45.9906 43.376 45.9906C44.0404 45.9906 44.6774 45.7258 45.1472 45.2542C45.617 44.7826 45.8808 44.1433 45.8808 43.4763C45.8808 42.8097 45.617 42.1703 45.1472 41.6987C44.6774 41.227 44.0405 40.9623 43.376 40.9623V40.9623ZM43.376 45.2574C42.8963 45.2574 42.4362 45.0659 42.097 44.7254C41.7578 44.3849 41.5671 43.923 41.5671 43.4414C41.5671 42.9599 41.7578 42.4981 42.097 42.1575C42.4362 41.817 42.8963 41.6255 43.376 41.6255C43.8558 41.6255 44.3159 41.817 44.6551 42.1575C44.9943 42.498 45.185 42.9599 45.185 43.4414C45.185 43.923 44.9943 44.3848 44.6551 44.7254C44.3159 45.0659 43.8558 45.2574 43.376 45.2574V45.2574Z" fill="white" stroke="white" stroke-width="0.7"/>
<path d="M29.0091 26.5404C29.0159 25.8842 28.7669 25.2513 28.3153 24.7769C27.8635 24.3026 27.245 24.0242 26.5918 24.0015C25.9383 23.9786 25.302 24.2132 24.8187 24.6548C24.3353 25.0967 24.0429 25.7105 24.0044 26.3658C23.9658 27.0208 24.1839 27.6651 24.612 28.161C25.04 28.6567 25.6445 28.9651 26.2957 29.0196V32.6514C25.4583 32.7286 24.7178 33.228 24.3299 33.9772C23.9422 34.7263 23.9606 35.6217 24.3792 36.3539C24.7975 37.086 25.5582 37.5545 26.3981 37.5966C27.2381 37.6388 28.0416 37.249 28.5308 36.5624C29.0197 35.8757 29.1272 34.9864 28.8159 34.2023C28.5046 33.4182 27.8171 32.847 26.9916 32.6863V28.9848C27.5565 28.8725 28.0656 28.5681 28.4332 28.1228C28.8008 27.6776 29.0042 27.1187 29.009 26.5405L29.0091 26.5404ZM24.7304 26.5404C24.7304 26.0588 24.9211 25.597 25.2603 25.2565C25.5995 24.9159 26.0596 24.7245 26.5393 24.7245C27.0191 24.7245 27.4791 24.9159 27.8184 25.2565C28.1576 25.597 28.3483 26.0588 28.3483 26.5404C28.3483 27.022 28.1576 27.4838 27.8184 27.8243C27.4792 28.1648 27.0191 28.3563 26.5393 28.3563C26.0596 28.3563 25.5995 28.1648 25.2603 27.8243C24.9211 27.4838 24.7304 27.022 24.7304 26.5404ZM28.3134 35.1307C28.3134 35.6125 28.1229 36.0743 27.7837 36.4148C27.4445 36.7554 26.9844 36.9466 26.5047 36.9466C26.0247 36.9466 25.5646 36.7554 25.2254 36.4148C24.8861 36.0743 24.6957 35.6125 24.6957 35.1307C24.6957 34.6491 24.8861 34.1873 25.2254 33.8467C25.5646 33.5062 26.0247 33.315 26.5047 33.315C26.9844 33.315 27.4445 33.5062 27.7837 33.8467C28.1229 34.1873 28.3134 34.6491 28.3134 35.1307Z" fill="white" stroke="white" stroke-width="0.7"/>
</svg>
