<svg width="70" height="70" viewBox="0 0 70 70" fill="none" xmlns="http://www.w3.org/2000/svg">
<circle cx="35" cy="35" r="35" fill="#018FE3"/>
<path d="M35 46L37.4444 43.5556M40.5 43.5556C41.3104 43.5556 42.0876 43.2336 42.6606 42.6606C43.2336 42.0876 43.5556 41.3104 43.5556 40.5C43.5556 39.6896 43.2336 38.9124 42.6606 38.3394C42.0876 37.7664 41.3104 37.4444 40.5 37.4444C39.6896 37.4444 38.9124 37.7664 38.3394 38.3394C37.7664 38.9124 37.4444 39.6896 37.4444 40.5C37.4444 41.3104 37.7664 42.0876 38.3394 42.6606C38.9124 43.2336 39.6896 43.5556 40.5 43.5556V43.5556ZM32.5556 26.4444L35 24L32.5556 26.4444ZM29.5 32.5556C30.3104 32.5556 31.0876 32.2336 31.6606 31.6606C32.2336 31.0876 32.5556 30.3104 32.5556 29.5C32.5556 28.6896 32.2336 27.9124 31.6606 27.3394C31.0876 26.7664 30.3104 26.4444 29.5 26.4444C28.6896 26.4444 27.9124 26.7664 27.3394 27.3394C26.7664 27.9124 26.4444 28.6896 26.4444 29.5C26.4444 30.3104 26.7664 31.0876 27.3394 31.6606C27.9124 32.2336 28.6896 32.5556 29.5 32.5556V32.5556ZM30.1111 39.8889L39.8889 30.1111L30.1111 39.8889ZM27.0556 46C27.8659 46 28.6431 45.6781 29.2162 45.105C29.7892 44.532 30.1111 43.7548 30.1111 42.9444C30.1111 42.1341 29.7892 41.3569 29.2162 40.7838C28.6431 40.2108 27.8659 39.8889 27.0556 39.8889C26.2452 39.8889 25.468 40.2108 24.895 40.7838C24.3219 41.3569 24 42.1341 24 42.9444C24 43.7548 24.3219 44.532 24.895 45.105C25.468 45.6781 26.2452 46 27.0556 46V46ZM42.9444 30.1111C43.7548 30.1111 44.532 29.7892 45.105 29.2162C45.6781 28.6431 46 27.8659 46 27.0556C46 26.2452 45.6781 25.468 45.105 24.895C44.532 24.3219 43.7548 24 42.9444 24C42.1341 24 41.3569 24.3219 40.7838 24.895C40.2108 25.468 39.8889 26.2452 39.8889 27.0556C39.8889 27.8659 40.2108 28.6431 40.7838 29.2162C41.3569 29.7892 42.1341 30.1111 42.9444 30.1111Z" stroke="white" stroke-width="1.7" stroke-linecap="round" stroke-linejoin="round"/>
</svg>
