<svg width="70" height="70" viewBox="0 0 70 70" fill="none" xmlns="http://www.w3.org/2000/svg">
<circle cx="35" cy="35" r="35" fill="#018FE3"/>
<path d="M43.963 28.9231H40.5L39.675 26.5533C39.618 26.3911 39.5136 26.251 39.3759 26.1519C39.2383 26.0529 39.0742 25.9998 38.906 26H31.094C30.7502 26 30.4421 26.2218 30.3275 26.5533L29.5 28.9231H26.037C24.9116 28.9231 24 29.8574 24 31.011V42.9121C24 44.0657 24.9116 45 26.037 45H43.963C45.0884 45 46 44.0657 46 42.9121V31.011C46 29.8574 45.0884 28.9231 43.963 28.9231ZM44.1667 42.9121C44.1667 43.0269 44.075 43.1209 43.963 43.1209H26.037C25.925 43.1209 25.8333 43.0269 25.8333 42.9121V31.011C25.8333 30.8962 25.925 30.8022 26.037 30.8022H30.791L31.2264 29.5547L31.8095 27.8791H38.188L38.7711 29.5547L39.2065 30.8022H43.963C44.075 30.8022 44.1667 30.8962 44.1667 31.011V42.9121ZM35 32.4725C32.7491 32.4725 30.9259 34.3412 30.9259 36.6484C30.9259 38.9555 32.7491 40.8242 35 40.8242C37.2509 40.8242 39.0741 38.9555 39.0741 36.6484C39.0741 34.3412 37.2509 32.4725 35 32.4725ZM35 39.1538C33.6505 39.1538 32.5556 38.0316 32.5556 36.6484C32.5556 35.2651 33.6505 34.1429 35 34.1429C36.3495 34.1429 37.4444 35.2651 37.4444 36.6484C37.4444 38.0316 36.3495 39.1538 35 39.1538Z" fill="white" stroke="white" stroke-width="0.1"/>
</svg>
