<svg width="70" height="70" viewBox="0 0 70 70" fill="none" xmlns="http://www.w3.org/2000/svg">
<circle cx="35" cy="35" r="35" fill="#018FE3"/>
<path d="M33.807 38.4081C33.948 38.4775 34.1127 38.5469 34.2538 38.5932C34.3009 38.6163 34.3243 38.6396 34.3478 38.709L34.4889 40.0514C34.5123 40.2597 34.7004 40.4218 34.912 40.4218H36.0878C36.2994 40.4218 36.4875 40.2597 36.5109 40.0514L36.652 38.709C36.652 38.6627 36.6991 38.6165 36.746 38.5932C36.9107 38.5469 37.0517 38.4775 37.1928 38.4081C37.2399 38.385 37.2868 38.385 37.3339 38.4311L38.4156 39.2875C38.5803 39.4263 38.8388 39.4032 39.0035 39.2644L39.85 38.4312C40.0147 38.2691 40.0147 38.0377 39.8735 37.8525L39.0035 36.7878C38.98 36.7414 38.9564 36.6953 38.98 36.6489C39.0506 36.5101 39.1211 36.348 39.1682 36.2091C39.1916 36.1628 39.2153 36.1397 39.2858 36.1166L40.6496 35.9778C40.8612 35.9547 41.0259 35.7695 41.0259 35.5613V34.404C41.0259 34.1957 40.8612 34.0106 40.6496 33.9875L39.2625 33.8715C39.2154 33.8715 39.1685 33.8252 39.1449 33.779C39.0978 33.6169 39.0273 33.4781 38.9567 33.3392C38.9333 33.2929 38.9333 33.2467 38.9802 33.2004L39.8502 32.1356C39.9913 31.9735 39.9678 31.7191 39.8267 31.557L38.9802 30.7238C38.8155 30.5617 38.5805 30.5617 38.3923 30.7007L37.3106 31.557C37.2635 31.5801 37.2166 31.6034 37.1695 31.5801C37.0285 31.5107 36.8638 31.4413 36.7227 31.3949C36.6756 31.3718 36.6522 31.3486 36.6287 31.2792L36.4876 29.9368C36.4642 29.7285 36.276 29.5664 36.0645 29.5664H34.8887C34.6771 29.5664 34.489 29.7285 34.4655 29.9368L34.3478 31.3024C34.3478 31.3488 34.3007 31.395 34.2538 31.4182C34.0891 31.4645 33.948 31.534 33.807 31.6034C33.7599 31.6265 33.713 31.6265 33.6659 31.5803L32.5841 30.724C32.4195 30.5851 32.161 30.6082 31.9963 30.7471L31.1497 31.5803C30.9851 31.7424 30.9851 31.9737 31.1263 32.1589L31.9963 33.2237C32.0197 33.27 32.0434 33.3162 32.0197 33.3625C31.9492 33.5014 31.8787 33.6634 31.8316 33.8023C31.8082 33.8486 31.7845 33.8717 31.714 33.8948L30.3502 34.0337C30.1386 34.0568 29.9739 34.2419 29.9739 34.4502V35.6074C29.9739 35.8157 30.1386 36.0009 30.3502 36.024L31.714 36.1628C31.7611 36.1628 31.808 36.2092 31.8316 36.2553C31.8787 36.4174 31.9492 36.5563 32.0197 36.6951C32.0432 36.7415 32.0432 36.7876 31.9963 36.834L31.1263 37.8987C30.9852 38.0608 31.0087 38.3153 31.1497 38.4774L31.9963 39.3106C32.161 39.4727 32.396 39.4727 32.5841 39.3337L33.6659 38.4773C33.713 38.4081 33.7599 38.385 33.807 38.4081L33.807 38.4081ZM35.5 32.7838C36.7463 32.7838 37.7575 33.779 37.7575 35.0058C37.7575 36.2325 36.7465 37.2278 35.5 37.2278C34.2538 37.2278 33.2425 36.2327 33.2425 35.0058C33.2425 33.7791 34.2538 32.7838 35.5 32.7838Z" fill="white"/>
<path d="M34.9356 36.001C35.0062 36.0935 35.1238 36.1398 35.2414 36.1398C35.359 36.1398 35.4766 36.0935 35.5471 36.001L36.6758 34.6586C36.8168 34.4965 36.7934 34.242 36.6287 34.08C36.464 33.9411 36.2055 33.9642 36.0643 34.1263L35.2412 35.0984L34.9355 34.728C34.7944 34.5659 34.5357 34.5428 34.3476 34.6817C34.1829 34.8205 34.1595 35.0751 34.3005 35.2603L34.9356 36.001Z" fill="white"/>
<path d="M27.1522 35.0058C27.1522 30.4693 30.891 26.7893 35.5 26.7893H35.6646L34.9828 27.4604C34.7476 27.6919 34.7476 28.039 34.9828 28.2706C35.1004 28.3863 35.2415 28.4327 35.3825 28.4327C35.5236 28.4327 35.6883 28.3863 35.7823 28.2706L37.4519 26.6272C37.6871 26.3957 37.6871 26.0486 37.4519 25.817L35.7823 24.1736C35.547 23.9421 35.1944 23.9421 34.9592 24.1736C34.7239 24.4052 34.7239 24.7523 34.9592 24.9838L35.641 25.6549L35.4999 25.6552C30.2562 25.6552 26 29.8445 26 35.0058C26 37.9915 27.4579 40.8153 29.9035 42.5511C29.9975 42.6206 30.1151 42.6669 30.2327 42.6669C30.4208 42.6669 30.5853 42.5975 30.7029 42.4354C30.8911 42.1808 30.844 41.8337 30.5853 41.6485C28.4454 40.0978 27.1521 37.6213 27.1521 35.0059L27.1522 35.0058Z" fill="white" stroke="white" stroke-width="0.4"/>
<path d="M44.9998 35.0058C44.9998 32.0202 43.542 29.1964 41.0963 27.4605C40.8377 27.2753 40.485 27.3217 40.2969 27.5763C40.1087 27.8309 40.1558 28.178 40.4145 28.3632C42.5544 29.9139 43.8477 32.3903 43.8477 35.0058C43.8477 39.5422 40.1089 43.2223 35.5 43.2223H35.3353L36.0172 42.5512C36.2524 42.3197 36.2524 41.9726 36.0172 41.741C35.7819 41.5095 35.4293 41.5095 35.1941 41.741L33.5244 43.3844C33.2892 43.6159 33.2892 43.963 33.5244 44.1946L35.1941 45.8379C35.3117 45.9537 35.4527 46 35.5938 46C35.7348 46 35.8995 45.9537 35.9935 45.8379C36.2287 45.6064 36.2287 45.2593 35.9935 45.0278L35.3117 44.3567L35.5 44.3563C40.7438 44.3563 44.9999 40.1671 44.9999 35.0057L44.9998 35.0058Z" fill="white" stroke="white" stroke-width="0.4"/>
</svg>
