<svg width="70" height="70" viewBox="0 0 70 70" fill="none" xmlns="http://www.w3.org/2000/svg">
<circle cx="35" cy="35" r="35" fill="#018FE3"/>
<path d="M39.838 46H29.1619C28.8538 45.9997 28.5585 45.8756 28.3406 45.655C28.1228 45.4345 28.0003 45.1355 28 44.8238V25.1763C28.0003 24.8645 28.1228 24.5655 28.3406 24.345C28.5585 24.1244 28.8538 24.0003 29.1619 24H39.838C40.1462 24.0004 40.4415 24.1244 40.6594 24.345C40.8772 24.5655 40.9997 24.8645 41 25.1763V44.8238C40.9997 45.1355 40.8772 45.4345 40.6594 45.655C40.4415 45.8756 40.1462 45.9997 39.838 46ZM29.1619 24.7842C28.9481 24.7844 28.7748 24.9599 28.7746 25.1763V44.8238C28.7748 45.0401 28.9481 45.2157 29.1619 45.2158H39.838C40.0519 45.2157 40.2252 45.0401 40.2254 44.8238V25.1763C40.2252 24.9599 40.0519 24.7844 39.838 24.7842H29.1619Z" fill="white" stroke="white" stroke-width="0.5"/>
<path d="M40.6127 28.51H28.3873C28.1734 28.51 28 28.3344 28 28.1179C28 27.9014 28.1734 27.7258 28.3873 27.7258H40.6127C40.8265 27.7258 41 27.9014 41 28.1179C41 28.3344 40.8265 28.51 40.6127 28.51Z" fill="white" stroke="white" stroke-width="0.5"/>
<path d="M40.6127 41.0554H28.3873C28.1734 41.0554 28 40.8798 28 40.6633C28 40.4468 28.1734 40.2712 28.3873 40.2712H40.6127C40.8265 40.2712 41 40.4468 41 40.6633C41 40.8798 40.8265 41.0554 40.6127 41.0554Z" fill="white" stroke="white" stroke-width="0.5"/>
<path d="M35.81 26.6741H33.1905C32.9766 26.6741 32.8032 26.4985 32.8032 26.282C32.8032 26.0655 32.9766 25.8899 33.1905 25.8899H35.8102H35.81C36.0239 25.8899 36.1973 26.0655 36.1973 26.282C36.1973 26.4985 36.0239 26.6741 35.81 26.6741H35.81Z" fill="white" stroke="white" stroke-width="0.5"/>
<path d="M34.5001 44.402C34.1657 44.402 33.8451 44.2676 33.6086 44.0283C33.3722 43.7889 33.2394 43.4643 33.2394 43.1258C33.2394 42.7873 33.3722 42.4628 33.6086 42.2233C33.8451 41.984 34.1657 41.8496 34.5001 41.8496C34.8345 41.8496 35.1551 41.984 35.3915 42.2235C35.628 42.4628 35.7608 42.7873 35.7608 43.1258C35.7605 43.4642 35.6275 43.7885 35.3911 44.0278C35.1548 44.2671 34.8344 44.4017 34.5001 44.402L34.5001 44.402ZM34.5001 42.6338C34.3035 42.6338 34.1263 42.7537 34.0511 42.9375C33.9758 43.1214 34.0173 43.3331 34.1564 43.4738C34.2954 43.6145 34.5044 43.6565 34.6862 43.5804C34.8677 43.5043 34.9862 43.3249 34.9862 43.1258C34.986 42.8542 34.7685 42.6339 34.5001 42.6338L34.5001 42.6338Z" fill="white" stroke="white" stroke-width="0.5"/>
<path d="M39.838 46H29.1619C28.8538 45.9997 28.5585 45.8756 28.3406 45.655C28.1228 45.4345 28.0003 45.1355 28 44.8238V25.1763C28.0003 24.8645 28.1228 24.5655 28.3406 24.345C28.5585 24.1244 28.8538 24.0003 29.1619 24H39.838C40.1462 24.0004 40.4415 24.1244 40.6594 24.345C40.8772 24.5655 40.9997 24.8645 41 25.1763V44.8238C40.9997 45.1355 40.8772 45.4345 40.6594 45.655C40.4415 45.8756 40.1462 45.9997 39.838 46ZM29.1619 24.7842C28.9481 24.7844 28.7748 24.9599 28.7746 25.1763V44.8238C28.7748 45.0401 28.9481 45.2157 29.1619 45.2158H39.838C40.0519 45.2157 40.2252 45.0401 40.2254 44.8238V25.1763C40.2252 24.9599 40.0519 24.7844 39.838 24.7842H29.1619Z" fill="white" stroke="white" stroke-width="0.5"/>
<path d="M40.6127 28.51H28.3873C28.1734 28.51 28 28.3344 28 28.1179C28 27.9014 28.1734 27.7258 28.3873 27.7258H40.6127C40.8265 27.7258 41 27.9014 41 28.1179C41 28.3344 40.8265 28.51 40.6127 28.51Z" fill="white" stroke="white" stroke-width="0.5"/>
<path d="M40.6127 41.0554H28.3873C28.1734 41.0554 28 40.8798 28 40.6633C28 40.4468 28.1734 40.2712 28.3873 40.2712H40.6127C40.8265 40.2712 41 40.4468 41 40.6633C41 40.8798 40.8265 41.0554 40.6127 41.0554Z" fill="white" stroke="white" stroke-width="0.5"/>
<path d="M35.81 26.6741H33.1905C32.9766 26.6741 32.8032 26.4985 32.8032 26.282C32.8032 26.0655 32.9766 25.8899 33.1905 25.8899H35.8102H35.81C36.0239 25.8899 36.1973 26.0655 36.1973 26.282C36.1973 26.4985 36.0239 26.6741 35.81 26.6741H35.81Z" fill="white" stroke="white" stroke-width="0.5"/>
<path d="M34.5001 44.402C34.1657 44.402 33.8451 44.2676 33.6086 44.0283C33.3722 43.7889 33.2394 43.4643 33.2394 43.1258C33.2394 42.7873 33.3722 42.4628 33.6086 42.2233C33.8451 41.984 34.1657 41.8496 34.5001 41.8496C34.8345 41.8496 35.1551 41.984 35.3915 42.2235C35.628 42.4628 35.7608 42.7873 35.7608 43.1258C35.7605 43.4642 35.6275 43.7885 35.3911 44.0278C35.1548 44.2671 34.8344 44.4017 34.5001 44.402L34.5001 44.402ZM34.5001 42.6338C34.3035 42.6338 34.1263 42.7537 34.0511 42.9375C33.9758 43.1214 34.0173 43.3331 34.1564 43.4738C34.2954 43.6145 34.5044 43.6565 34.6862 43.5804C34.8677 43.5043 34.9862 43.3249 34.9862 43.1258C34.986 42.8542 34.7685 42.6339 34.5001 42.6338L34.5001 42.6338Z" fill="white" stroke="white" stroke-width="0.5"/>
</svg>
