<svg width="15" height="24" viewBox="0 0 15 24" fill="none" xmlns="http://www.w3.org/2000/svg">
<path d="M12.838 23H2.16195C1.85383 22.9997 1.5585 22.8756 1.34063 22.655C1.12276 22.4345 1.00035 22.1355 1 21.8237V2.17625C1.00035 1.86451 1.12276 1.56555 1.34063 1.345C1.55849 1.12445 1.85383 1.00035 2.16195 1H12.838C13.1462 1.00035 13.4415 1.12445 13.6594 1.345C13.8772 1.56554 13.9997 1.86451 14 2.17625V21.8237C13.9997 22.1355 13.8772 22.4345 13.6594 22.655C13.4415 22.8756 13.1462 22.9997 12.838 23ZM2.16195 1.78418C1.94806 1.78435 1.77481 1.95992 1.77464 2.17626V21.8238C1.77481 22.0401 1.94806 22.2157 2.16195 22.2158H12.838C13.0519 22.2157 13.2252 22.0401 13.2254 21.8238V2.17626C13.2252 1.95992 13.0519 1.78435 12.838 1.78418H2.16195Z" fill="white" stroke="white" stroke-width="0.5"/>
<path d="M13.6127 5.50999H1.38731C1.17343 5.50999 1 5.33443 1 5.11791C1 4.90139 1.17343 4.72583 1.38731 4.72583H13.6127C13.8265 4.72583 14 4.90139 14 5.11791C14 5.33443 13.8265 5.50999 13.6127 5.50999Z" fill="white" stroke="white" stroke-width="0.5"/>
<path d="M13.6127 18.0554H1.38731C1.17343 18.0554 1 17.8798 1 17.6633C1 17.4468 1.17343 17.2712 1.38731 17.2712H13.6127C13.8265 17.2712 14 17.4468 14 17.6633C14 17.8798 13.8265 18.0554 13.6127 18.0554Z" fill="white" stroke="white" stroke-width="0.5"/>
<path d="M8.81003 3.67405H6.19047C5.97659 3.67405 5.80316 3.49849 5.80316 3.28197C5.80316 3.06546 5.97659 2.88989 6.19047 2.88989H8.81021H8.81004C9.02392 2.88989 9.19735 3.06546 9.19735 3.28197C9.19735 3.49849 9.02392 3.67405 8.81004 3.67405H8.81003Z" fill="white" stroke="white" stroke-width="0.5"/>
<path d="M7.50012 21.402C7.16572 21.402 6.84514 21.2676 6.6086 21.0283C6.37223 20.7889 6.23944 20.4643 6.23944 20.1258C6.23944 19.7873 6.37223 19.4628 6.6086 19.2233C6.84514 18.984 7.16571 18.8496 7.50012 18.8496C7.83454 18.8496 8.1551 18.984 8.39147 19.2235C8.62801 19.4628 8.7608 19.7873 8.7608 20.1258C8.76046 20.4642 8.62749 20.7885 8.39113 21.0278C8.15476 21.2671 7.83437 21.4017 7.50013 21.402L7.50012 21.402ZM7.50012 19.6338C7.30353 19.6338 7.1263 19.7537 7.05106 19.9375C6.97585 20.1214 7.01734 20.3331 7.15636 20.4738C7.29538 20.6145 7.50443 20.6565 7.68616 20.5804C7.86772 20.5043 7.98615 20.3249 7.98615 20.1258C7.98598 19.8542 7.76846 19.6339 7.50013 19.6338L7.50012 19.6338Z" fill="white" stroke="white" stroke-width="0.5"/>
<path d="M12.838 23H2.16195C1.85383 22.9997 1.5585 22.8756 1.34063 22.655C1.12276 22.4345 1.00035 22.1355 1 21.8237V2.17625C1.00035 1.86451 1.12276 1.56555 1.34063 1.345C1.55849 1.12445 1.85383 1.00035 2.16195 1H12.838C13.1462 1.00035 13.4415 1.12445 13.6594 1.345C13.8772 1.56554 13.9997 1.86451 14 2.17625V21.8237C13.9997 22.1355 13.8772 22.4345 13.6594 22.655C13.4415 22.8756 13.1462 22.9997 12.838 23ZM2.16195 1.78418C1.94806 1.78435 1.77481 1.95992 1.77464 2.17626V21.8238C1.77481 22.0401 1.94806 22.2157 2.16195 22.2158H12.838C13.0519 22.2157 13.2252 22.0401 13.2254 21.8238V2.17626C13.2252 1.95992 13.0519 1.78435 12.838 1.78418H2.16195Z" fill="white" stroke="white" stroke-width="0.5"/>
<path d="M13.6127 5.50999H1.38731C1.17343 5.50999 1 5.33443 1 5.11791C1 4.90139 1.17343 4.72583 1.38731 4.72583H13.6127C13.8265 4.72583 14 4.90139 14 5.11791C14 5.33443 13.8265 5.50999 13.6127 5.50999Z" fill="white" stroke="white" stroke-width="0.5"/>
<path d="M13.6127 18.0554H1.38731C1.17343 18.0554 1 17.8798 1 17.6633C1 17.4468 1.17343 17.2712 1.38731 17.2712H13.6127C13.8265 17.2712 14 17.4468 14 17.6633C14 17.8798 13.8265 18.0554 13.6127 18.0554Z" fill="white" stroke="white" stroke-width="0.5"/>
<path d="M8.81003 3.67405H6.19047C5.97659 3.67405 5.80316 3.49849 5.80316 3.28197C5.80316 3.06546 5.97659 2.88989 6.19047 2.88989H8.81021H8.81004C9.02392 2.88989 9.19735 3.06546 9.19735 3.28197C9.19735 3.49849 9.02392 3.67405 8.81004 3.67405H8.81003Z" fill="white" stroke="white" stroke-width="0.5"/>
<path d="M7.50012 21.402C7.16572 21.402 6.84514 21.2676 6.6086 21.0283C6.37223 20.7889 6.23944 20.4643 6.23944 20.1258C6.23944 19.7873 6.37223 19.4628 6.6086 19.2233C6.84514 18.984 7.16571 18.8496 7.50012 18.8496C7.83454 18.8496 8.1551 18.984 8.39147 19.2235C8.62801 19.4628 8.7608 19.7873 8.7608 20.1258C8.76046 20.4642 8.62749 20.7885 8.39113 21.0278C8.15476 21.2671 7.83437 21.4017 7.50013 21.402L7.50012 21.402ZM7.50012 19.6338C7.30353 19.6338 7.1263 19.7537 7.05106 19.9375C6.97585 20.1214 7.01734 20.3331 7.15636 20.4738C7.29538 20.6145 7.50443 20.6565 7.68616 20.5804C7.86772 20.5043 7.98615 20.3249 7.98615 20.1258C7.98598 19.8542 7.76846 19.6339 7.50013 19.6338L7.50012 19.6338Z" fill="white" stroke="white" stroke-width="0.5"/>
</svg>
