<svg width="70" height="70" viewBox="0 0 70 70" fill="none" xmlns="http://www.w3.org/2000/svg">
<circle cx="35" cy="35" r="35" fill="#018FE3"/>
<path d="M34.2975 43.5489V29.1562C34.2969 28.7715 34.1465 28.4027 33.8787 28.1306C33.611 27.8584 33.2482 27.7054 32.8697 27.7048H25.4277C25.0491 27.7054 24.6863 27.8583 24.4186 28.1306C24.151 28.4026 24.0005 28.7715 24 29.1562V43.5489C24.0004 43.9336 24.151 44.3025 24.4186 44.5748C24.6862 44.8468 25.0491 44.9998 25.4277 45.0001H32.8697C33.2482 44.9998 33.6112 44.8468 33.8788 44.5748C34.1465 44.3025 34.2969 43.9337 34.2975 43.5489ZM24.6491 43.5489V29.1567L24.6489 29.1565C24.6491 28.9467 24.7313 28.7455 24.8772 28.5969C25.0231 28.4486 25.2212 28.3652 25.4276 28.3648H32.8697C33.0761 28.3652 33.274 28.4486 33.4201 28.5969C33.566 28.7455 33.6481 28.9467 33.6484 29.1565V43.5492C33.6481 43.7591 33.566 43.9602 33.4201 44.1086C33.274 44.2571 33.0761 44.3405 32.8697 44.3407H25.4276C25.2212 44.3405 25.0231 44.2571 24.8772 44.1086C24.7313 43.9602 24.6491 43.7591 24.6489 43.5492L24.6491 43.5489Z" fill="white" stroke="white" stroke-width="0.3"/>
<path d="M32.9723 42.0811V30.625C32.9723 30.5376 32.9381 30.4536 32.8772 30.3918C32.8164 30.33 32.7338 30.2952 32.6478 30.2952H25.6494C25.5634 30.2952 25.4809 30.33 25.42 30.3918C25.3592 30.4537 25.325 30.5376 25.325 30.625V42.0811C25.325 42.1686 25.3592 42.2525 25.42 42.3143C25.4809 42.3762 25.5634 42.411 25.6494 42.411H32.6478C32.7338 42.411 32.8164 42.3762 32.8772 42.3143C32.9381 42.2525 32.9723 42.1686 32.9723 42.0811ZM32.3234 41.7513H25.9739V30.9549H32.3234V41.7513Z" fill="white" stroke="white" stroke-width="0.3"/>
<path d="M28.4732 29.7513H30.969C31.1481 29.7513 31.2935 29.6036 31.2935 29.4214C31.2935 29.2394 31.1481 29.0916 30.969 29.0916H28.4732C28.2939 29.0916 28.1487 29.2394 28.1487 29.4214C28.1487 29.6036 28.2939 29.7513 28.4732 29.7513Z" fill="white" stroke="white" stroke-width="0.3"/>
<path d="M27.2254 29.7513H27.6757C27.8547 29.7513 28.0001 29.6036 28.0001 29.4214C28.0001 29.2394 27.8547 29.0916 27.6757 29.0916H27.2254C27.0461 29.0916 26.9009 29.2394 26.9009 29.4214C26.9009 29.6036 27.0461 29.7513 27.2254 29.7513Z" fill="white" stroke="white" stroke-width="0.3"/>
<path d="M29.663 43.3823C29.663 43.6713 29.4325 43.9054 29.1484 43.9054C28.8641 43.9054 28.6338 43.6713 28.6338 43.3823C28.6338 43.0935 28.8641 42.8591 29.1484 42.8591C29.4325 42.8591 29.663 43.0935 29.663 43.3823Z" fill="white" stroke="white" stroke-width="0.3"/>
<path d="M44.3371 25H29.9722C29.5313 25.0004 29.1087 25.1786 28.797 25.4956C28.4853 25.8123 28.3099 26.2422 28.3095 26.6902C28.3095 26.8724 28.4547 27.02 28.634 27.02C28.8131 27.02 28.9585 26.8724 28.9585 26.6902C28.9586 26.417 29.0656 26.1551 29.2556 25.9618C29.4457 25.7686 29.7034 25.66 29.9723 25.6598H44.3371C44.606 25.66 44.8636 25.7687 45.0536 25.9618C45.2437 26.1551 45.3505 26.417 45.3509 26.6902V37.3768C45.3505 37.65 45.2437 37.9119 45.0536 38.1052C44.8637 38.2983 44.606 38.407 44.3371 38.4072H35.2727C35.0935 38.4072 34.9483 38.555 34.9483 38.7371C34.9483 38.9193 35.0935 39.0669 35.2727 39.0669H36.8303V39.9494H35.2269C35.0477 39.9494 34.9025 40.097 34.9025 40.2792C34.9025 40.4614 35.0477 40.6091 35.2269 40.6091H42.6569C42.8362 40.6091 42.9814 40.4614 42.9814 40.2792C42.9814 40.097 42.8362 39.9494 42.6569 39.9494H37.4792V39.0669H44.3372C44.7781 39.0665 45.2007 38.8882 45.5124 38.5714C45.8242 38.2544 45.9994 37.8248 46 37.3768V26.6901C45.9994 26.2421 45.8242 25.8125 45.5124 25.4955C45.2007 25.1787 44.7781 25.0004 44.3372 25L44.3371 25Z" fill="white" stroke="white" stroke-width="0.3"/>
</svg>
