<svg width="22" height="22" viewBox="0 0 22 22" fill="none" xmlns="http://www.w3.org/2000/svg">
<path fill-rule="evenodd" clip-rule="evenodd" d="M2.59244 0.701462C2.83302 0.461242 3.12191 0.274893 3.43996 0.154766C3.75801 0.0346379 4.09796 -0.0165256 4.43727 0.00466552C4.77659 0.0258566 5.10753 0.118919 5.40816 0.277684C5.7088 0.436449 5.97225 0.657293 6.18108 0.92558L8.64913 4.09623C9.10149 4.67784 9.26098 5.43544 9.08224 6.15042L8.33014 9.16157C8.29125 9.31753 8.29335 9.4809 8.33623 9.63581C8.37912 9.79072 8.46133 9.93191 8.57488 10.0457L11.9531 13.4239C12.067 13.5377 12.2085 13.6201 12.3636 13.663C12.5188 13.7058 12.6825 13.7078 12.8386 13.6687L15.8484 12.9166C16.2012 12.8284 16.5695 12.8215 16.9254 12.8965C17.2812 12.9716 17.6154 13.1265 17.9026 13.3497L21.0732 15.8164C22.2131 16.7032 22.3176 18.3875 21.2974 19.4064L19.8756 20.8281C18.8582 21.8455 17.3375 22.2924 15.9199 21.7933C12.2916 20.5167 8.99736 18.4396 6.28145 15.716C3.55806 13.0005 1.48094 9.70669 0.204141 6.07892C-0.293593 4.66271 0.153268 3.14064 1.17074 2.12317L2.59244 0.701462Z" fill="black"/>
</svg>
