<svg width="22" height="17" viewBox="0 0 22 17" fill="none" xmlns="http://www.w3.org/2000/svg">
<path d="M21.2143 0H0.785714C0.351116 0 0 0.345312 0 0.772727V16.2273C0 16.6547 0.351116 17 0.785714 17H21.2143C21.6489 17 22 16.6547 22 16.2273V0.772727C22 0.345312 21.6489 0 21.2143 0ZM19.2304 2.62969L11.4837 8.55795C11.2922 8.70526 11.0246 8.70526 10.833 8.55795L3.08393 2.62969C3.05472 2.60752 3.03329 2.57691 3.02265 2.54216C3.01202 2.50742 3.0127 2.47026 3.02462 2.43592C3.03653 2.40157 3.05907 2.37175 3.08908 2.35064C3.11909 2.32953 3.15507 2.31818 3.19196 2.31818H19.1223C19.1592 2.31818 19.1952 2.32953 19.2252 2.35064C19.2552 2.37175 19.2778 2.40157 19.2897 2.43592C19.3016 2.47026 19.3023 2.50742 19.2916 2.54216C19.281 2.57691 19.2596 2.60752 19.2304 2.62969Z" fill="black"/>
</svg>
