<svg width="742" height="320" viewBox="0 0 742 320" fill="none" xmlns="http://www.w3.org/2000/svg">
<path d="M388.502 151.44C388.804 151.501 389.101 151.59 389.387 151.705L400.582 121.327L401.628 90.146C401.694 88.1845 402.501 86.321 403.887 84.9312C405.272 83.5415 407.133 82.7289 409.094 82.6574C411.055 82.5859 412.97 83.2608 414.453 84.5459C415.936 85.8311 416.877 87.631 417.085 89.5824C417.761 95.9066 417.446 102.297 416.153 108.525L411.882 129.081L392.383 158.076C392.075 159.018 391.502 159.851 390.733 160.475C389.963 161.098 389.03 161.486 388.045 161.592C387.06 161.698 386.066 161.516 385.181 161.07C384.297 160.624 383.561 159.931 383.061 159.076C382.56 158.221 382.318 157.239 382.363 156.25C382.407 155.26 382.737 154.304 383.312 153.498C383.886 152.691 384.682 152.068 385.603 151.702C386.524 151.337 387.53 151.246 388.502 151.44H388.502Z" fill="#FFB8B8"/>
<path d="M413.553 121.598L399.922 119.581L397.606 90.6126C397.918 89.0413 398.536 87.5468 399.426 86.2145C400.315 84.8822 401.459 83.7383 402.79 82.848C404.122 81.9578 405.616 81.3387 407.187 81.0261C408.758 80.7136 410.375 80.7136 411.946 81.0263C413.517 81.3391 415.01 81.9583 416.342 82.8486C417.674 83.739 418.817 84.8831 419.706 86.2154C420.595 87.5478 421.213 89.0423 421.525 90.6137C421.837 92.1851 421.836 93.8024 421.522 95.3734L413.553 121.598Z" fill="#2F2E41"/>
<path d="M395.389 150.747H424.179V121.954H395.389V150.747Z" fill="#FFB8B8"/>
<path d="M406.7 75.1638L412.495 67.714L420.761 67.3556L421.586 74.3622L425.681 76.2511C429.771 91.7905 430.403 108.038 427.532 123.848C426.983 124.365 426.582 125.019 426.37 125.743C426.158 126.466 426.143 127.234 426.326 127.965L426.592 129.024L426.567 129.062C425.696 130.438 425.4 132.101 425.744 133.692L433.232 146.999C417.331 153.481 405.674 141.394 394.876 125.553L388.192 102.415L406.7 75.1638Z" fill="#62D2F0"/>
<path d="M389.278 117.999L387.718 102.39L408.436 71.7148L409.288 72.29L388.778 102.657L390.302 117.898L389.278 117.999Z" fill="#2F2E41"/>
<path d="M389.79 119.491C390.642 119.491 391.333 118.801 391.333 117.949C391.333 117.097 390.642 116.406 389.79 116.406C388.939 116.406 388.248 117.097 388.248 117.949C388.248 118.801 388.939 119.491 389.79 119.491Z" fill="#2F2E41"/>
<path d="M413.363 69.771C421.803 69.771 428.646 62.9274 428.646 54.4853C428.646 46.0432 421.803 39.1996 413.363 39.1996C404.922 39.1996 398.079 46.0432 398.079 54.4853C398.079 62.9274 404.922 69.771 413.363 69.771Z" fill="#FFB8B8"/>
<path d="M415.669 35.882L417.523 36.3757L418.153 36.5433L425.21 38.4219C431.464 40.087 435.016 47.1418 433.143 54.1794C436.602 60.1755 433.605 65.7362 428.159 71.1316C421.177 70.1734 414.096 70.1819 407.117 71.1569L407.238 67.1166L404.149 71.6578C402.385 71.9989 400.616 72.4144 398.841 72.9041C402.875 64.9587 405.849 56.7521 406.356 49.897L403.124 49.0368L404.065 45.5L402.027 48.7447L396.169 47.1852C396.707 45.1624 397.639 43.2655 398.91 41.6028C400.181 39.94 401.768 38.544 403.578 37.4944C405.389 36.4448 407.389 35.7622 409.463 35.4855C411.538 35.2089 413.647 35.3436 415.669 35.882Z" fill="#2F2E41"/>
<path d="M428.694 45.3299C432.669 45.3299 435.891 42.107 435.891 38.1314C435.891 34.1558 432.669 30.933 428.694 30.933C424.719 30.933 421.497 34.1558 421.497 38.1314C421.497 42.107 424.719 45.3299 428.694 45.3299Z" fill="#2F2E41"/>
<path d="M403.244 155.429C403.553 155.43 403.861 155.459 404.165 155.515L409.215 123.537L404.156 92.7511C403.837 90.8145 404.265 88.8292 405.353 87.1957C406.44 85.5621 408.107 84.4019 410.016 83.9489C411.925 83.4959 413.935 83.7839 415.641 84.7548C417.346 85.7258 418.62 87.3073 419.205 89.1806C421.102 95.2512 422.041 101.581 421.987 107.94L421.811 128.936L408.346 161.18C408.228 162.163 407.829 163.092 407.196 163.854C406.563 164.616 405.723 165.179 404.778 165.475C403.833 165.77 402.822 165.787 401.868 165.522C400.913 165.257 400.056 164.721 399.398 163.98C398.741 163.239 398.312 162.324 398.162 161.345C398.013 160.365 398.15 159.364 398.556 158.46C398.962 157.557 399.621 156.79 400.453 156.252C401.284 155.714 402.254 155.428 403.244 155.429L403.244 155.429Z" fill="#FFB8B8"/>
<path d="M421.989 121.27L408.227 121.954L400.302 93.9941C400.302 90.76 401.586 87.6584 403.873 85.3715C406.159 83.0847 409.261 81.7999 412.494 81.7999C415.728 81.7999 418.829 83.0847 421.115 85.3715C423.402 87.6584 424.687 90.76 424.687 93.9941L421.989 121.27Z" fill="#2F2E41"/>
<path d="M351.503 127.315C351.146 126.585 350.634 125.942 350.002 125.432C349.369 124.921 348.633 124.555 347.845 124.36C347.056 124.164 346.234 124.145 345.437 124.301C344.639 124.458 343.886 124.788 343.23 125.267L326.995 114.019L326.761 124.281L342.214 133.389C343.092 134.438 344.325 135.128 345.678 135.329C347.031 135.53 348.411 135.227 349.556 134.479C350.701 133.73 351.531 132.587 351.89 131.267C352.249 129.947 352.111 128.541 351.503 127.315Z" fill="#FFB6B6"/>
<path d="M336.054 130.683L304.823 113.294L304.814 113.142C304.798 112.851 303.174 83.9697 303.811 77.8061C304.159 74.0783 305.771 70.5815 308.38 67.8963L308.448 67.8338L308.54 67.825C310.425 67.6539 312.312 68.1303 313.89 69.1758C315.468 70.2212 316.642 71.7732 317.22 73.5758C319.962 82.294 320.641 91.5304 319.203 100.556L318.379 105.689L339.18 121.501L336.054 130.683Z" fill="#62D2F0"/>
<path d="M312.089 57.9396C319.569 57.9396 325.633 51.8746 325.633 44.3929C325.633 36.9113 319.569 30.8462 312.089 30.8462C304.608 30.8462 298.544 36.9113 298.544 44.3929C298.544 51.8746 304.608 57.9396 312.089 57.9396Z" fill="#FFB6B6"/>
<path d="M312.537 57.3515C309.37 58.8712 305.472 58.3565 302.449 56.5685C299.425 54.7806 297.2 51.8647 295.645 48.7147C294.507 46.4078 293.679 43.7658 294.339 41.279C294.998 38.7922 297.629 36.7086 300.094 37.4451C298.405 36.0853 298.602 33.2809 299.966 31.596C301.331 29.911 303.484 29.1008 305.564 28.4901C308.583 27.6039 311.755 26.9784 314.868 27.4317C317.982 27.885 321.047 29.5709 322.512 32.3557C323.529 32.6177 324.604 32.5351 325.569 32.1206C326.534 31.7061 327.335 30.9833 327.845 30.0652C328.184 30.9478 328.223 31.9175 327.956 32.8245C327.689 33.7314 327.13 34.5251 326.367 35.0825L330.583 32.7944C331.658 34.2847 330.681 36.5575 329.05 37.4017C327.418 38.2459 325.445 38.0207 323.664 37.5697C321.883 37.1186 319.563 38.1167 317.726 38.1529C315.889 38.1891 313.902 39.1506 313.376 40.9113C313.1 41.8335 313.261 42.8238 313.18 43.7828C313.098 44.7418 312.639 45.8057 311.71 46.0556C311.123 46.2134 310.48 46.0043 309.898 46.1795C309.547 46.3191 309.244 46.5581 309.026 46.8672C308.808 47.1764 308.686 47.5423 308.673 47.9202C308.66 48.676 308.798 49.4268 309.077 50.1291C309.996 52.9628 311.468 54.1383 312.387 56.9721" fill="#2F2E41"/>
<path d="M293.041 146.867L293.033 146.866L292.926 146.848L292.895 146.743C292.506 145.433 292.01 144.093 291.531 142.796C290.825 141 290.229 139.162 289.746 137.294C289.367 135.508 289.103 133.699 288.958 131.878C288.824 130.557 288.686 129.19 288.451 127.845C288.447 127.209 288.688 126.597 289.125 126.135C289.496 125.744 289.715 125.233 289.744 124.695C289.522 124.118 289.148 123.612 288.661 123.23C288.106 122.799 287.693 122.213 287.473 121.545C286.388 113.532 285.882 105.451 285.961 97.3653C286.073 86.1778 286.579 78.5521 287.464 74.7C289.843 64.3422 300.834 62.452 302.554 62.2186C302.737 61.7305 303.019 61.2853 303.382 60.9108C303.744 60.5362 304.18 60.2404 304.662 60.0416C305.144 59.8428 305.662 59.7454 306.183 59.7553C306.704 59.7653 307.218 59.8824 307.692 60.0995L315.501 63.6749C317.085 64.4027 318.503 65.4486 319.666 66.7475C320.829 68.0464 321.712 69.5706 322.261 71.2254L323.421 74.7626L324.002 98.5077L320.782 115.229L325.799 139.973C292.265 158.386 293.149 146.867 293.041 146.867Z" fill="#62D2F0"/>
<path d="M337.52 136.859C337.291 136.08 336.893 135.36 336.355 134.751C335.817 134.142 335.153 133.658 334.408 133.333C333.663 133.009 332.856 132.852 332.043 132.873C331.231 132.894 330.434 133.093 329.707 133.456L315.58 119.652L313.634 129.731L327.347 141.294C328.038 142.475 329.137 143.362 330.438 143.786C331.738 144.21 333.149 144.143 334.403 143.596C335.657 143.049 336.667 142.061 337.242 140.82C337.816 139.578 337.915 138.169 337.52 136.859L337.52 136.859Z" fill="#FFB6B6"/>
<path d="M321.726 137.597L293.841 115.23L293.858 115.079C293.89 114.789 297.116 86.0429 298.775 80.0726C299.741 76.4554 301.915 73.2773 304.936 71.0661L305.013 71.0159L305.106 71.0227C306.993 71.1691 308.774 71.9544 310.155 73.2489C311.536 74.5434 312.434 76.27 312.702 78.1438C313.949 87.1979 313.074 96.4178 310.148 105.076L308.477 109.999L326.343 129.066L321.726 137.597Z" fill="#62D2F0"/>
<path d="M196.018 228.622C195.605 227.775 195.01 227.029 194.277 226.437C193.544 225.845 192.69 225.42 191.775 225.194C190.86 224.967 189.906 224.944 188.982 225.126C188.057 225.308 187.183 225.69 186.422 226.246L167.588 213.198L167.316 225.102L185.243 235.668C186.262 236.885 187.692 237.686 189.261 237.919C190.831 238.152 192.432 237.801 193.76 236.932C195.088 236.064 196.051 234.738 196.468 233.206C196.884 231.675 196.724 230.044 196.018 228.622L196.018 228.622Z" fill="#FFB6B6"/>
<path d="M178.097 232.529L141.867 212.356L141.857 212.18C141.838 211.842 139.954 178.339 140.694 171.189C141.097 166.864 142.967 162.808 145.993 159.693L146.072 159.62L146.179 159.61C148.366 159.412 150.555 159.964 152.385 161.177C154.216 162.39 155.578 164.19 156.248 166.281C159.43 176.395 160.217 187.11 158.549 197.58L157.593 203.534L181.723 221.877L178.097 232.529Z" fill="#62D2F0"/>
<path d="M232.827 309.855L239.796 306.861L231.568 278.552L221.282 282.971L232.827 309.855Z" fill="#FFB6B6"/>
<path d="M227.915 308.757L230.181 307.783L237.482 300.385L243.769 301.946L243.769 301.946C246.449 300.795 249.476 300.756 252.184 301.837C254.892 302.918 257.06 305.031 258.211 307.711L258.352 308.039L232.396 319.19L227.915 308.757Z" fill="#2F2E41"/>
<path d="M201.477 310.585L209.061 310.584L212.669 281.324H201.476L201.477 310.585Z" fill="#FFB6B6"/>
<path d="M197.396 307.636L199.862 307.636L209.489 303.72L214.65 307.635H214.65C217.566 307.636 220.363 308.794 222.425 310.857C224.487 312.919 225.646 315.716 225.646 318.632V318.99L197.396 318.991L197.396 307.636Z" fill="#2F2E41"/>
<path d="M165.472 279.347H151.979V301.712H165.472V279.347Z" fill="#CACACA"/>
<path d="M164.796 291.182L163.064 293.734L195.451 315.714L197.183 313.161L164.796 291.182Z" fill="#CACACA"/>
<path d="M152.655 291.182L120.269 313.161L122.001 315.714L154.387 293.734L152.655 291.182Z" fill="#CACACA"/>
<path d="M196.317 318.68C198.659 318.68 200.558 316.781 200.558 314.438C200.558 312.095 198.659 310.196 196.317 310.196C193.975 310.196 192.076 312.095 192.076 314.438C192.076 316.781 193.975 318.68 196.317 318.68Z" fill="#CACACA"/>
<path d="M158.533 318.68C160.875 318.68 162.774 316.781 162.774 314.438C162.774 312.095 160.875 310.196 158.533 310.196C156.191 310.196 154.292 312.095 154.292 314.438C154.292 316.781 156.191 318.68 158.533 318.68Z" fill="#CACACA"/>
<path d="M121.134 318.68C123.477 318.68 125.375 316.781 125.375 314.438C125.375 312.095 123.477 310.196 121.134 310.196C118.792 310.196 116.894 312.095 116.894 314.438C116.894 316.781 118.792 318.68 121.134 318.68Z" fill="#CACACA"/>
<path d="M160.075 292.458H156.991V314.437H160.075V292.458Z" fill="#CACACA"/>
<path d="M161.617 259.681H155.834V289.373H161.617V259.681Z" fill="#CACACA"/>
<path d="M129.324 264.308V257.367C129.326 256.09 129.834 254.864 130.737 253.961C131.641 253.057 132.866 252.549 134.144 252.547H179.21C180.487 252.549 181.712 253.057 182.616 253.961C183.519 254.864 184.028 256.09 184.029 257.367V264.308C184.028 265.586 183.519 266.812 182.616 267.715C181.712 268.619 180.487 269.127 179.21 269.129H134.144C132.866 269.127 131.641 268.619 130.737 267.715C129.834 266.812 129.326 265.586 129.324 264.308Z" fill="#3F3D56"/>
<path d="M123.198 218.204L155.897 218.845L157.083 228.16C157.083 228.16 214.241 225.258 219.274 237.138C230.609 263.889 240.432 294.849 240.432 294.849L226.327 299.338L198.758 253.169C198.758 253.169 121.916 275.915 127.686 237.441L123.198 218.204Z" fill="#2F2E41"/>
<path d="M222.11 245.396C218.755 274.256 211.58 301.262 211.58 301.262L198.116 299.338L201.183 244.915" fill="#2F2E41"/>
<path d="M150.295 148.143C158.972 148.143 166.007 141.107 166.007 132.428C166.007 123.748 158.972 116.713 150.295 116.713C141.617 116.713 134.582 123.748 134.582 132.428C134.582 141.107 141.617 148.143 150.295 148.143Z" fill="#FFB6B6"/>
<path d="M150.815 147.46C147.141 149.223 142.62 148.626 139.112 146.552C135.605 144.478 133.024 141.095 131.22 137.441C129.899 134.765 128.939 131.7 129.704 128.815C130.469 125.93 133.521 123.513 136.38 124.368C134.422 122.79 134.65 119.537 136.233 117.582C137.816 115.628 140.313 114.688 142.726 113.979C146.228 112.951 149.908 112.226 153.52 112.752C157.132 113.277 160.688 115.233 162.387 118.464C163.567 118.768 164.814 118.672 165.934 118.191C167.053 117.71 167.981 116.872 168.573 115.807C168.967 116.83 169.012 117.955 168.702 119.008C168.392 120.06 167.744 120.98 166.858 121.627L171.75 118.973C172.997 120.701 171.864 123.338 169.971 124.317C168.078 125.297 165.789 125.035 163.723 124.512C161.657 123.989 164.095 128.353 161.964 128.395C159.833 128.437 157.528 129.552 156.918 131.595C156.598 132.665 156.784 133.813 156.69 134.926C156.596 136.038 156.063 137.273 154.985 137.563C154.304 137.746 153.558 137.503 152.883 137.706C152.476 137.868 152.124 138.145 151.872 138.504C151.619 138.863 151.477 139.287 151.462 139.726C151.447 140.602 151.606 141.473 151.931 142.288C152.997 145.575 149.575 143.733 150.642 147.02" fill="#2F2E41"/>
<path d="M128.199 251.303L128.19 251.302L128.066 251.281L128.03 251.16C127.578 249.64 127.003 248.085 126.447 246.58C125.628 244.497 124.937 242.366 124.377 240.198C123.936 238.126 123.631 236.027 123.462 233.916C123.307 232.383 123.147 230.797 122.874 229.236C122.753 228.544 123.212 227.887 123.656 227.253C124.067 226.664 124.456 226.108 124.374 225.583C124.291 225.045 123.695 224.454 123.118 223.883C122.486 223.257 121.833 222.61 121.74 221.929C120.48 212.633 119.894 203.259 119.986 193.879C120.116 180.9 120.702 172.054 121.729 167.585C124.489 155.57 137.239 153.377 139.235 153.106C139.447 152.54 139.774 152.024 140.195 151.589C140.615 151.155 141.121 150.812 141.68 150.581C142.239 150.35 142.84 150.237 143.444 150.249C144.049 150.26 144.645 150.396 145.195 150.648L154.254 154.796C156.092 155.64 157.736 156.853 159.085 158.36C160.434 159.867 161.459 161.635 162.096 163.555L163.441 167.658L164.115 195.204L160.38 214.601L167.679 225.552C128.777 246.913 128.324 251.303 128.199 251.303Z" fill="#62D2F0"/>
<path d="M580.31 230.611C580.613 230.673 580.909 230.761 581.196 230.876L592.391 200.498L593.437 169.317C593.503 167.356 594.31 165.492 595.695 164.102C597.081 162.713 598.942 161.9 600.903 161.829C602.864 161.757 604.779 162.432 606.262 163.717C607.745 165.002 608.686 166.802 608.894 168.754C609.57 175.078 609.255 181.469 607.961 187.696L603.69 208.253L584.191 237.248C583.884 238.189 583.311 239.022 582.541 239.646C581.772 240.27 580.838 240.657 579.853 240.763C578.869 240.869 577.874 240.687 576.99 240.241C576.106 239.795 575.369 239.102 574.869 238.247C574.369 237.392 574.127 236.411 574.171 235.421C574.216 234.431 574.545 233.476 575.12 232.669C575.695 231.862 576.491 231.239 577.411 230.874C578.332 230.509 579.339 230.417 580.31 230.611L580.31 230.611Z" fill="#FFB8B8"/>
<path d="M605.362 200.769L591.731 198.753L589.415 169.784C590.046 166.612 591.911 163.821 594.6 162.024C595.932 161.135 597.425 160.516 598.996 160.204C600.566 159.892 602.183 159.892 603.753 160.205C605.323 160.517 606.817 161.136 608.148 162.026C609.479 162.916 610.622 164.059 611.511 165.391C612.401 166.722 613.019 168.216 613.331 169.787C613.643 171.357 613.643 172.974 613.331 174.545L605.362 200.769Z" fill="#2F2E41"/>
<path d="M587.198 229.919H615.987V201.125H587.198V229.919Z" fill="#FFB8B8"/>
<path d="M518.924 285.925L507.929 282.225L501.807 312.158L509.256 314.664L518.924 285.925Z" fill="#FFB6B6"/>
<path d="M538.423 280.23L527.134 282.9L537.75 311.548L545.399 309.739L538.423 280.23Z" fill="#FFB6B6"/>
<path d="M590.021 279.347H576.527V301.712H590.021V279.347Z" fill="#CACACA"/>
<path d="M577.204 291.181L544.817 313.161L546.549 315.714L578.936 293.734L577.204 291.181Z" fill="#CACACA"/>
<path d="M589.345 291.181L587.613 293.734L619.999 315.714L621.731 313.161L589.345 291.181Z" fill="#CACACA"/>
<path d="M545.683 318.68C548.025 318.68 549.924 316.781 549.924 314.438C549.924 312.095 548.025 310.196 545.683 310.196C543.341 310.196 541.442 312.095 541.442 314.438C541.442 316.781 543.341 318.68 545.683 318.68Z" fill="#CACACA"/>
<path d="M583.466 318.68C585.809 318.68 587.707 316.781 587.707 314.438C587.707 312.095 585.809 310.196 583.466 310.196C581.124 310.196 579.226 312.095 579.226 314.438C579.226 316.781 581.124 318.68 583.466 318.68Z" fill="#CACACA"/>
<path d="M620.865 318.68C623.207 318.68 625.106 316.781 625.106 314.438C625.106 312.095 623.207 310.196 620.865 310.196C618.523 310.196 616.624 312.095 616.624 314.438C616.624 316.781 618.523 318.68 620.865 318.68Z" fill="#CACACA"/>
<path d="M585.009 292.458H581.925V314.437H585.009V292.458Z" fill="#CACACA"/>
<path d="M586.166 259.681H580.383V289.373H586.166V259.681Z" fill="#CACACA"/>
<path d="M607.856 269.129H562.79C561.512 269.127 560.287 268.619 559.384 267.715C558.48 266.811 557.972 265.586 557.971 264.308V257.367C557.972 256.09 558.48 254.864 559.384 253.961C560.287 253.057 561.512 252.549 562.79 252.547H607.856C609.134 252.549 610.359 253.057 611.262 253.961C612.166 254.864 612.674 256.09 612.676 257.367V264.308C612.674 265.586 612.166 266.811 611.262 267.715C610.359 268.619 609.134 269.127 607.856 269.129Z" fill="#3F3D56"/>
<path d="M614.955 237.441C620.725 275.915 543.883 253.169 543.883 253.169L516.314 299.338L502.209 294.849C502.209 294.849 512.032 263.889 523.367 237.138C528.4 225.258 585.558 228.16 585.558 228.16L586.744 218.845L619.443 218.204L614.955 237.441Z" fill="#2F2E41"/>
<path d="M541.458 244.915L544.525 299.338L531.06 301.262C531.06 301.262 523.885 274.256 520.53 245.396" fill="#2F2E41"/>
<path d="M598.508 154.335L604.303 146.885L612.569 146.527L613.394 153.533L617.49 155.422C621.58 170.962 622.211 187.209 619.34 203.019C618.791 203.536 618.39 204.19 618.178 204.914C617.966 205.638 617.951 206.405 618.135 207.136L618.4 208.195L618.376 208.234C617.504 209.609 617.209 211.272 617.553 212.864L625.04 226.171C609.14 232.652 597.483 220.565 586.684 204.724L580.001 181.586L598.508 154.335Z" fill="#62D2F0"/>
<path d="M581.088 197.171L579.527 181.561L600.246 150.886L601.098 151.461L580.587 181.828L582.111 197.069L581.088 197.171Z" fill="#2F2E41"/>
<path d="M581.599 198.663C582.451 198.663 583.141 197.972 583.141 197.12C583.141 196.268 582.451 195.577 581.599 195.577C580.747 195.577 580.057 196.268 580.057 197.12C580.057 197.972 580.747 198.663 581.599 198.663Z" fill="#2F2E41"/>
<path d="M605.171 148.942C613.612 148.942 620.455 142.099 620.455 133.657C620.455 125.214 613.612 118.371 605.171 118.371C596.73 118.371 589.888 125.214 589.888 133.657C589.888 142.099 596.73 148.942 605.171 148.942Z" fill="#FFB8B8"/>
<path d="M607.478 115.053L609.332 115.547L609.962 115.715L617.018 117.593C623.273 119.258 626.825 126.313 624.952 133.351C628.41 139.347 625.413 144.907 619.967 150.303C612.985 149.345 605.905 149.353 598.925 150.328L599.047 146.288L595.957 150.829C594.194 151.17 592.424 151.586 590.65 152.075C594.683 144.13 597.657 135.923 598.164 129.068L594.933 128.208L595.874 124.671L593.836 127.916L587.978 126.356C588.516 124.334 589.447 122.437 590.719 120.774C591.99 119.111 593.576 117.715 595.387 116.666C597.198 115.616 599.197 114.933 601.272 114.657C603.346 114.38 605.455 114.515 607.478 115.053Z" fill="#2F2E41"/>
<path d="M620.503 124.501C624.477 124.501 627.7 121.278 627.7 117.303C627.7 113.327 624.477 110.104 620.503 110.104C616.528 110.104 613.306 113.327 613.306 117.303C613.306 121.278 616.528 124.501 620.503 124.501Z" fill="#2F2E41"/>
<path d="M595.053 234.6C595.362 234.601 595.67 234.63 595.973 234.687L601.024 202.708L595.964 171.922C595.646 169.986 596.074 168 597.161 166.367C598.249 164.733 599.915 163.573 601.825 163.12C603.734 162.667 605.744 162.955 607.449 163.926C609.155 164.897 610.428 166.479 611.014 168.352C612.911 174.422 613.849 180.752 613.796 187.112L613.619 208.107L600.155 240.351C600.037 241.335 599.637 242.263 599.004 243.025C598.371 243.787 597.532 244.35 596.586 244.646C595.641 244.942 594.631 244.958 593.676 244.693C592.722 244.428 591.864 243.893 591.207 243.152C590.55 242.41 590.12 241.495 589.971 240.516C589.821 239.537 589.958 238.535 590.364 237.632C590.771 236.728 591.429 235.961 592.261 235.423C593.093 234.886 594.063 234.6 595.053 234.6Z" fill="#FFB8B8"/>
<path d="M613.798 200.441L600.035 201.125L592.11 173.165C592.11 169.931 593.395 166.83 595.681 164.543C597.968 162.256 601.069 160.971 604.303 160.971C607.536 160.971 610.638 162.256 612.924 164.543C615.211 166.83 616.495 169.931 616.495 173.165L613.798 200.441Z" fill="#2F2E41"/>
<path d="M515.79 318.878H510.85L509.968 314.214L507.709 318.878H494.607C493.979 318.878 493.367 318.678 492.861 318.305C492.355 317.933 491.981 317.409 491.795 316.809C491.608 316.21 491.617 315.566 491.822 314.972C492.027 314.378 492.416 313.865 492.933 313.508L503.396 306.281V301.565L514.402 302.222L515.79 318.878Z" fill="#2F2E41"/>
<path d="M548.211 317.029L543.311 317.66L541.842 313.145L540.197 318.06L527.201 319.733C526.578 319.813 525.946 319.692 525.397 319.387C524.848 319.083 524.41 318.611 524.148 318.04C523.886 317.469 523.814 316.829 523.941 316.214C524.068 315.599 524.389 315.041 524.856 314.621L534.312 306.117L533.71 301.439L544.709 300.686L548.211 317.029Z" fill="#2F2E41"/>
<path d="M590.021 137.967L582.386 137.395C581.735 137.345 581.13 137.039 580.704 136.544C580.277 136.049 580.065 135.405 580.113 134.753L580.842 125.025C580.891 124.374 581.197 123.768 581.693 123.342C582.188 122.915 582.832 122.703 583.484 122.751L591.118 123.324H591.118C591.77 123.373 592.375 123.678 592.802 124.174C593.228 124.669 593.44 125.314 593.391 125.966C594.532 128.742 598.805 130.462 592.662 135.693C592.638 136.016 592.551 136.331 592.405 136.62C592.259 136.909 592.058 137.167 591.813 137.378C591.567 137.589 591.283 137.75 590.975 137.851C590.668 137.952 590.343 137.992 590.021 137.967V137.967Z" fill="#3F3D56"/>
<path d="M583.099 122.636L584.825 122.807L583.572 137.809L581.845 137.638C581.519 137.606 581.203 137.508 580.915 137.352C580.628 137.196 580.374 136.984 580.169 136.729C579.745 136.209 579.54 135.545 579.597 134.877L580.43 124.911C580.469 124.38 580.679 123.876 581.027 123.473C581.376 123.071 581.845 122.791 582.365 122.676C582.606 122.625 582.853 122.612 583.099 122.636Z" fill="#62D2F0"/>
<path d="M623.663 135.756L589.192 133.172C588.771 133.14 588.38 132.942 588.104 132.622C587.828 132.301 587.691 131.885 587.722 131.463L587.915 128.89L587.915 128.889C587.931 128.68 587.987 128.477 588.082 128.29C588.176 128.103 588.306 127.937 588.465 127.8C588.623 127.664 588.807 127.56 589.006 127.494C589.205 127.429 589.415 127.403 589.623 127.419L624.094 130.003H624.094C624.516 130.034 624.907 130.232 625.183 130.552C625.459 130.873 625.596 131.29 625.564 131.711L625.372 134.285C625.356 134.494 625.299 134.698 625.205 134.885C625.111 135.072 624.981 135.238 624.822 135.375C624.663 135.511 624.479 135.615 624.28 135.681C624.082 135.746 623.872 135.772 623.663 135.756V135.756Z" fill="#3F3D56"/>
<path d="M584.622 128.842L584.622 128.842C584.276 128.807 583.958 128.636 583.738 128.368C583.518 128.099 583.413 127.753 583.447 127.407L583.654 125.32L583.655 125.303C583.692 124.958 583.864 124.64 584.134 124.422C584.405 124.203 584.751 124.101 585.097 124.137C585.442 124.174 585.759 124.346 585.978 124.616C586.197 124.887 586.299 125.233 586.263 125.579L586.056 127.666C586.039 127.837 585.988 128.004 585.907 128.156C585.826 128.307 585.716 128.442 585.582 128.551C585.449 128.66 585.296 128.742 585.131 128.792C584.966 128.842 584.793 128.859 584.622 128.842L584.622 128.842Z" fill="#3F3D56"/>
<path d="M584.368 134.313H584.368C584.021 134.295 583.695 134.14 583.462 133.882C583.229 133.623 583.109 133.283 583.127 132.936L583.236 130.841C583.254 130.494 583.41 130.168 583.668 129.936C583.926 129.703 584.266 129.583 584.613 129.601C584.96 129.619 585.286 129.774 585.518 130.032C585.751 130.29 585.872 130.63 585.854 130.977L585.745 133.072C585.736 133.244 585.694 133.413 585.62 133.568C585.546 133.724 585.442 133.863 585.314 133.979C585.186 134.094 585.037 134.183 584.874 134.24C584.712 134.298 584.54 134.323 584.368 134.313Z" fill="#3F3D56"/>
<path d="M626.835 217.444L624.868 217.422C622.982 217.398 621.183 216.628 619.865 215.279C618.546 213.93 617.817 212.113 617.836 210.227L617.852 192.749C617.876 190.863 618.647 189.063 619.995 187.745C621.343 186.426 623.16 185.697 625.045 185.716L627.012 185.738C628.898 185.762 630.697 186.532 632.015 187.881C633.334 189.23 634.063 191.047 634.044 192.933L634.028 210.411C634.004 212.297 633.234 214.097 631.885 215.415C630.537 216.734 628.72 217.463 626.835 217.444Z" fill="#3F3D56"/>
<path d="M590.486 261.022L591.965 258.927C595.531 261.438 599.786 262.787 604.147 262.787C615.833 262.789 628.514 226.686 628.515 214.998H631.08C631.065 228.095 617.247 265.337 604.152 265.352C599.257 265.363 594.481 263.849 590.486 261.022Z" fill="#3F3D56"/>
<path d="M179.797 239.693C179.531 238.789 179.07 237.954 178.446 237.248C177.822 236.541 177.051 235.98 176.187 235.603C175.323 235.227 174.386 235.045 173.444 235.07C172.502 235.094 171.577 235.325 170.733 235.746L154.346 219.732L152.088 231.424L167.996 244.839C168.797 246.209 170.073 247.237 171.582 247.729C173.09 248.221 174.727 248.143 176.182 247.509C177.636 246.874 178.808 245.729 179.474 244.288C180.141 242.848 180.256 241.213 179.797 239.693V239.693Z" fill="#FFB6B6"/>
<path d="M161.476 240.549L129.127 214.602L129.147 214.427C129.184 214.091 132.927 180.744 134.851 173.818C135.972 169.622 138.493 165.935 141.998 163.37L142.088 163.312L142.195 163.319C144.384 163.489 146.45 164.4 148.052 165.902C149.654 167.404 150.696 169.407 151.007 171.58C152.453 182.084 151.439 192.779 148.044 202.823L146.106 208.534L166.831 230.653L161.476 240.549Z" fill="#62D2F0"/>
<path d="M104.577 216.603L104.303 197.218C104.255 195.332 104.956 193.504 106.253 192.135C107.55 190.766 109.337 189.968 111.222 189.915L113.188 189.862C115.074 189.813 116.901 190.515 118.27 191.812C119.638 193.109 120.437 194.897 120.49 196.782L120.763 216.168C120.812 218.053 120.111 219.881 118.813 221.25C117.516 222.619 115.729 223.417 113.844 223.47L111.878 223.523C109.993 223.572 108.165 222.87 106.797 221.573C105.428 220.276 104.629 218.488 104.577 216.603Z" fill="#3F3D56"/>
<path d="M135.926 263.091C122.83 263.076 108.371 232.584 108.356 219.486H110.921C110.922 231.174 124.244 260.527 135.93 260.526C140.292 260.525 144.546 259.177 148.112 256.665L149.591 258.761C145.596 261.588 140.82 263.101 135.926 263.091Z" fill="#3F3D56"/>
<path d="M164.353 141.057C163.823 140.925 163.348 140.626 162.999 140.205C162.651 139.784 162.445 139.263 162.414 138.717C156.138 133.17 160.606 131.466 161.843 128.607C161.805 127.929 162.037 127.264 162.489 126.758C162.941 126.252 163.575 125.946 164.252 125.908H164.253L172.187 125.46C172.865 125.422 173.529 125.655 174.035 126.107C174.541 126.559 174.847 127.193 174.886 127.87L175.457 137.981C175.494 138.658 175.261 139.322 174.81 139.828C174.358 140.334 173.724 140.64 173.047 140.679L165.112 141.128C164.857 141.142 164.601 141.118 164.353 141.057Z" fill="#3F3D56"/>
<path d="M173.35 125.403C173.888 125.532 174.369 125.831 174.723 126.256C175.077 126.68 175.285 127.207 175.316 127.759L175.99 138.119C176.037 138.814 175.812 139.499 175.362 140.03C175.144 140.291 174.876 140.507 174.575 140.663C174.273 140.82 173.943 140.915 173.604 140.942L171.809 141.087L170.795 125.492L172.59 125.347C172.845 125.327 173.101 125.345 173.35 125.403Z" fill="#62D2F0"/>
<path d="M129.747 138.144C129.404 138.059 129.097 137.866 128.871 137.594C128.646 137.321 128.513 136.984 128.493 136.631L128.341 133.956C128.317 133.518 128.467 133.088 128.759 132.76C129.052 132.433 129.462 132.235 129.9 132.211H129.9L165.727 130.187C165.944 130.175 166.161 130.205 166.366 130.277C166.571 130.348 166.76 130.46 166.922 130.605C167.084 130.749 167.216 130.924 167.311 131.12C167.405 131.316 167.46 131.528 167.472 131.745L167.472 131.746L167.623 134.421C167.647 134.859 167.497 135.289 167.205 135.616C166.913 135.943 166.503 136.141 166.065 136.166L130.238 138.19C130.073 138.2 129.907 138.184 129.747 138.144Z" fill="#3F3D56"/>
<path d="M170.455 131.724C170.178 131.655 169.93 131.501 169.745 131.283C169.56 131.066 169.448 130.796 169.425 130.511L169.25 128.341C169.235 128.163 169.254 127.983 169.308 127.813C169.362 127.642 169.449 127.484 169.564 127.347C169.679 127.211 169.82 127.098 169.978 127.015C170.137 126.933 170.31 126.882 170.488 126.867C170.666 126.851 170.845 126.871 171.016 126.925C171.186 126.979 171.344 127.066 171.481 127.181C171.618 127.296 171.731 127.436 171.813 127.595C171.896 127.753 171.946 127.927 171.962 128.105L171.963 128.122L172.138 130.293C172.167 130.652 172.051 131.009 171.818 131.284C171.584 131.559 171.251 131.73 170.891 131.759L170.891 131.759C170.745 131.771 170.597 131.759 170.455 131.724Z" fill="#3F3D56"/>
<path d="M170.674 137.404C170.388 137.332 170.132 137.168 169.946 136.938C169.76 136.708 169.654 136.424 169.644 136.128L169.571 133.952C169.565 133.773 169.594 133.595 169.657 133.428C169.72 133.26 169.815 133.107 169.937 132.976C170.059 132.846 170.206 132.74 170.368 132.667C170.531 132.593 170.707 132.551 170.885 132.545C171.064 132.539 171.242 132.569 171.409 132.631C171.577 132.694 171.73 132.789 171.86 132.912C171.991 133.034 172.096 133.18 172.17 133.343C172.244 133.506 172.285 133.681 172.291 133.86L172.364 136.037C172.37 136.215 172.341 136.393 172.278 136.561C172.216 136.728 172.121 136.882 171.998 137.012C171.876 137.143 171.73 137.248 171.567 137.322C171.404 137.396 171.229 137.437 171.05 137.443H171.05C170.924 137.447 170.797 137.434 170.674 137.404Z" fill="#3F3D56"/>
<path opacity="0.54" d="M273.616 27.6206L457.738 0.741821V177.069L273.616 150.191V27.6206Z" fill="#F2F2F2"/>
<path d="M458.38 177.81L272.975 150.745V27.0661L458.38 0V177.81ZM274.257 149.636L457.097 176.327V1.4835L274.257 28.1751L274.257 149.636Z" fill="#3F3D56"/>
</svg>
