<svg width="546" height="350" viewBox="0 0 546 350" fill="none" xmlns="http://www.w3.org/2000/svg">
<g clip-path="url(#clip0_225_938)">
<path d="M546 0.30957H0.233398V350H546V0.30957Z" fill="#E6E6E6"/>
<path d="M535.768 32.4878H10.4648V341.122H535.768V32.4878Z" fill="white"/>
<path d="M545.767 0H0V23.1966H545.767V0Z" fill="#5C42FF"/>
<path d="M17.23 16.1587C19.6034 16.1587 21.5274 14.2338 21.5274 11.8594C21.5274 9.48492 19.6034 7.56006 17.23 7.56006C14.8566 7.56006 12.9326 9.48492 12.9326 11.8594C12.9326 14.2338 14.8566 16.1587 17.23 16.1587Z" fill="white"/>
<path d="M33.5415 16.1587C35.9149 16.1587 37.8389 14.2338 37.8389 11.8594C37.8389 9.48492 35.9149 7.56006 33.5415 7.56006C31.1681 7.56006 29.2441 9.48492 29.2441 11.8594C29.2441 14.2338 31.1681 16.1587 33.5415 16.1587Z" fill="white"/>
<path d="M49.854 16.1587C52.2274 16.1587 54.1514 14.2338 54.1514 11.8594C54.1514 9.48492 52.2274 7.56006 49.854 7.56006C47.4806 7.56006 45.5566 9.48492 45.5566 11.8594C45.5566 14.2338 47.4806 16.1587 49.854 16.1587Z" fill="white"/>
<path d="M174.559 119.225C174.559 119.225 176.532 146.459 175.632 148.061C174.733 149.662 191.428 178.43 191.428 178.43L218.119 153.404C218.119 153.404 216.503 118.785 218.223 117.223C219.942 115.662 174.559 119.225 174.559 119.225Z" fill="#A0616A"/>
<path d="M197.256 140.023C214.488 140.023 228.457 126.048 228.457 108.808C228.457 91.569 214.488 77.5938 197.256 77.5938C180.025 77.5938 166.056 91.569 166.056 108.808C166.056 126.048 180.025 140.023 197.256 140.023Z" fill="#A0616A"/>
<path d="M194.839 158.858L191.638 157.058L175.842 142.825C175.842 142.825 174.269 142.238 174.031 147.161L173.794 152.084L163.596 158.992L163.128 270.815L233.658 274.224L236.625 161.7L220.699 151.061L217.78 144.837L199.839 157.455L194.839 158.858Z" fill="white"/>
<path d="M265.016 169.65L257.216 283.477H139.433C124.424 265.701 112.437 174.234 125.229 171.523C129.408 170.077 157.743 161.173 157.743 161.173C157.743 161.173 166.208 155.826 168.91 151.028C170.569 148.173 172.601 145.551 174.953 143.233L174.969 143.216L174.977 143.2C175.043 143.134 175.1 143.069 175.166 143.011C175.179 142.988 175.199 142.971 175.224 142.962C175.306 142.871 175.388 142.789 175.478 142.707V142.83L174.879 163.646L197.442 241.222C197.442 241.222 203.797 194.655 210.25 180.165C213.888 172 215.793 161.921 216.762 154.676C217.509 149.065 217.698 145.163 217.698 145.163C217.698 145.163 217.73 145.204 217.788 145.278V145.287C217.788 145.288 217.788 145.289 217.788 145.29C217.789 145.291 217.789 145.292 217.79 145.292C217.791 145.293 217.792 145.294 217.793 145.294C217.794 145.295 217.795 145.295 217.796 145.295C217.895 145.418 218.051 145.623 218.281 145.903L218.289 145.911C220.177 148.277 226.237 155.439 230.342 155.637C235.26 155.875 248.767 165.576 248.767 165.576C255.368 165.067 265.016 169.65 265.016 169.65Z" fill="#2F2E41"/>
<path d="M227.108 256.637C227.108 256.637 235.995 225.816 248.958 229.732C261.922 233.648 247.69 255.988 247.69 255.988L227.108 256.637Z" fill="#A0616A"/>
<path d="M175.475 281.673C175.475 281.673 146.5 267.937 152.45 255.768C158.4 243.598 178.147 261.246 178.147 261.246L175.475 281.673Z" fill="#A0616A"/>
<path d="M187.08 283.477H180.126C177.33 282.784 174.495 282.263 171.636 281.916C170.979 281.883 170.766 280.857 170.848 279.23C171.077 276.541 171.519 273.874 172.17 271.254C173.163 266.818 174.493 262.021 175.347 258.965V258.957C175.848 257.174 176.177 255.992 176.185 255.819C176.209 255.277 180.758 256.024 183.895 256.599C185.545 256.903 186.801 257.158 186.801 257.158L186.957 271.969L187.08 283.477Z" fill="white"/>
<path d="M279.902 269.882C277.898 275.558 276.453 280.051 275.271 283.477H184.19C183.886 280.339 183.5 276.043 183.254 271.788C182.852 264.978 182.786 258.275 183.894 256.599C183.946 256.505 184.016 256.422 184.1 256.355C184.185 256.289 184.283 256.24 184.387 256.213C186.514 255.794 210.538 255.417 227.551 255.195C229.915 255.17 232.14 255.145 234.16 255.121C240.294 255.047 244.448 255.006 244.448 255.006C244.448 255.006 244.776 243.769 245.778 229.443C247.543 204.258 251.403 169.519 259.268 169.371L265.016 169.65C265.016 169.65 268.292 169.806 269.696 174.809C271.1 179.812 285.616 253.708 279.902 269.882Z" fill="#2F2E41"/>
<path d="M171.704 79.5645L165.895 77.1275C165.895 77.1275 178.856 65.3557 196.006 67.2628L191.402 62.1887C191.402 62.1887 203.436 58.458 213.641 70.2714C219.006 76.4815 225.208 83.776 228.905 91.8342L235.238 92.1403L232.34 97.3009L241.335 103.036L231.886 101.627C232.565 106.237 232.027 110.943 230.326 115.28L227.891 121.092C227.891 121.092 220.121 103.467 220.224 101.316L219.965 106.694C219.965 106.694 214.285 101.568 214.441 98.3408L211.034 101.95L209.707 95.9558L189.532 100.91L192.991 96.2259L180.549 97.2417L185.673 91.5597C185.673 91.5597 171.359 97.8756 170.535 103.765C169.712 109.655 162.36 116.847 162.36 116.847L159.395 111.313C159.395 111.313 155.725 86.8779 171.704 79.5645Z" fill="#2F2E41"/>
<path d="M471.987 284.154H60.708V52.116H471.987V284.154ZM62.0611 282.8H470.634V53.4696H62.0611V282.8Z" fill="#E6E6E6"/>
<path d="M392.254 80.887C388.366 74.313 380.672 74.0066 380.672 74.0066C380.672 74.0066 373.174 73.0475 368.365 83.0597C363.882 92.392 357.695 101.402 367.369 103.587L369.116 98.1461L370.198 103.992C371.576 104.091 372.957 104.115 374.337 104.063C384.697 103.728 394.563 104.161 394.245 100.442C393.823 95.4976 395.996 87.2125 392.254 80.887Z" fill="#2F2E41"/>
<path d="M377.908 103.285C377.988 104.025 377.865 104.772 377.553 105.448C376.825 106.721 375.046 106.912 373.976 107.916C372.851 108.971 372.724 110.685 372.67 112.227C372.506 113.836 372.671 115.463 373.155 117.007C373.515 117.834 373.97 118.617 374.512 119.339C375.165 120.281 375.824 121.219 376.489 122.152C376.845 122.678 377.241 123.175 377.674 123.639C378.935 124.793 380.469 125.607 382.131 126.005C383.166 126.396 384.293 126.471 385.37 126.219C386.062 125.949 386.7 125.557 387.254 125.061C388.062 124.481 388.78 123.784 389.385 122.994C390.169 121.651 390.617 120.138 390.689 118.585C391.227 114.038 391.437 109.459 391.316 104.882C391.338 104.383 391.249 103.886 391.054 103.426C390.513 102.367 389.061 102.141 388.297 101.231C387.643 100.453 387.617 99.342 387.622 98.3254L387.636 95.7374C387.659 95.5193 387.615 95.2995 387.511 95.1069C387.416 95.0031 387.301 94.9191 387.174 94.8597C387.047 94.8003 386.909 94.7666 386.769 94.7605C385.161 94.4936 383.531 94.3845 381.902 94.4348C380.581 94.4751 378.047 94.3645 376.905 95.1005C375.869 95.7684 377.166 97.6133 377.407 98.6497C377.729 100.174 377.897 101.727 377.908 103.285Z" fill="#FFB8B8"/>
<path d="M380.939 98.841C386.714 98.841 391.395 94.1577 391.395 88.3805C391.395 82.6033 386.714 77.9199 380.939 77.9199C375.165 77.9199 370.483 82.6033 370.483 88.3805C370.483 94.1577 375.165 98.841 380.939 98.841Z" fill="#FFB8B8"/>
<path d="M374.975 107.623C373.845 106.967 372.311 107.498 371.489 108.513C370.732 109.591 370.331 110.877 370.341 112.194C370.355 113.501 370.261 114.807 370.062 116.098C369.434 118.921 367.104 121.241 366.93 124.127C366.76 126.966 368.706 129.44 369.664 132.118C370.244 133.788 370.486 135.556 370.377 137.32C370.319 137.599 370.319 137.887 370.377 138.166C370.434 138.445 370.548 138.71 370.712 138.943C370.921 139.126 371.168 139.259 371.436 139.333C376.056 140.959 381.046 141.1 385.942 141.224L394.029 141.429C394.518 141.488 395.014 141.404 395.457 141.19C396.182 140.745 396.279 139.747 396.292 138.896C396.398 131.564 396.086 124.233 395.775 116.907C395.737 114.248 395.473 111.597 394.984 108.983C394.955 108.646 394.852 108.319 394.681 108.027C394.51 107.734 394.275 107.484 393.995 107.294C393.724 107.202 393.437 107.165 393.151 107.184C392.865 107.203 392.586 107.278 392.329 107.405C389.822 108.338 381.856 111.912 381.071 110.64C380.159 109.164 374.532 108.728 374.975 107.623Z" fill="white"/>
<path d="M375.383 107.804C375.177 107.95 374.974 108.104 374.78 108.267C374.052 108.868 373.4 109.555 372.837 110.313C371.907 111.583 371.166 112.982 370.638 114.465C369.776 117.097 369.188 119.811 368.884 122.564C368.712 123.573 368.619 124.593 368.607 125.616C368.667 129.377 370.889 132.861 370.892 136.625C370.892 136.768 370.889 136.908 370.881 137.051C370.854 137.667 370.782 138.28 370.664 138.885C370.501 139.768 370.267 140.64 370.035 141.509C369.543 143.721 368.753 145.856 367.687 147.856C367.573 148.05 367.45 148.242 367.324 148.427H359.326C359.389 148.236 359.455 148.047 359.518 147.856C360.88 143.818 362.242 139.781 363.602 135.744C364.019 134.51 364.437 133.27 364.731 132.001C365.067 130.434 365.297 128.846 365.419 127.248C365.733 123.936 365.94 120.617 366.039 117.292C366.012 116.094 366.163 114.899 366.488 113.745C366.849 112.823 367.327 111.951 367.91 111.15C368.736 109.907 369.561 108.664 370.387 107.421C370.797 106.697 371.361 106.07 372.038 105.586C372.629 105.223 373.332 105.092 373.954 104.786C374.346 104.564 374.722 104.314 375.08 104.04C376.011 103.38 377.105 102.686 377.908 103.36C378.038 103.468 378.15 103.596 378.239 103.74C378.285 103.811 378.326 103.884 378.362 103.96C379.133 105.629 376.42 107.069 375.383 107.804Z" fill="#2F2E41"/>
<path d="M401.731 148.427H364.688C364.887 148.245 365.085 148.053 365.276 147.856C365.305 147.827 365.33 147.799 365.359 147.77C366.776 146.298 367.098 144.489 367.81 142.575C368.344 141.131 368.878 139.689 369.412 138.248C369.497 137.967 369.636 137.706 369.821 137.479C369.975 137.319 370.169 137.203 370.383 137.142C370.545 137.092 370.712 137.062 370.88 137.05C371.121 137.035 371.362 137.035 371.603 137.05C378.25 137.393 384.893 137.812 391.53 138.305C392.387 138.371 393.244 138.437 394.101 138.502C394.801 139.022 395.492 139.574 396.152 140.157C398.341 141.977 400.076 144.281 401.222 146.887C401.351 147.204 401.468 147.527 401.565 147.856C401.628 148.044 401.682 148.236 401.731 148.427Z" fill="#2F2E41"/>
<path d="M390.535 80.2532L382.934 76.27L372.437 77.8992L370.266 87.4959L375.672 87.2882L377.182 83.7625V87.2293L379.677 87.1338L381.125 81.5209L382.029 87.4959L390.897 87.3145L390.535 80.2532Z" fill="#2F2E41"/>
<path d="M401.73 148.427H393.367C393.307 148.239 393.249 148.047 393.195 147.856C392.604 145.73 392.171 143.564 391.898 141.374C391.81 140.749 391.733 140.12 391.661 139.494C391.615 139.097 391.573 138.702 391.53 138.305C391.05 133.893 390.681 129.437 389.333 125.214C389.17 124.702 388.993 124.193 388.822 123.685C388.505 122.809 388.257 121.91 388.079 120.995C387.713 118.904 387.988 116.737 387.611 114.648C387.399 113.482 386.979 112.456 386.725 111.388C386.563 110.743 386.5 110.077 386.537 109.413C387.152 108.832 387.927 108.448 388.762 108.31C389.055 108.306 389.336 108.193 389.55 107.993C389.653 107.816 389.699 107.613 389.682 107.41C389.702 106.062 389.624 104.714 389.45 103.377C389.393 102.908 389.322 102.44 389.236 101.974C389.233 101.951 389.227 101.931 389.225 101.908C389.942 101.654 390.705 101.551 391.464 101.605C392.29 101.608 393.112 101.608 393.935 101.611C395.457 101.617 396.98 101.622 398.503 101.625C399.92 101.529 401.341 101.735 402.673 102.228C403.992 102.893 405.051 103.98 405.684 105.315C406.307 106.641 406.764 108.04 407.044 109.479C407.135 109.873 407.183 110.277 407.186 110.682C407.249 113.9 404.85 117.14 404.61 120.43C404.533 121.496 404.621 122.57 404.524 123.636C404.427 124.705 404.141 125.751 404.09 126.82C404.087 126.874 404.084 126.931 404.084 126.985C404.115 128.381 404.401 129.759 404.927 131.052C405.652 133.09 406.535 135.064 407.446 137.028C408.326 138.928 409.229 140.82 410.04 142.746C410.462 143.64 410.746 144.593 410.883 145.573C410.973 146.36 410.822 147.156 410.451 147.856C410.356 148.029 410.242 148.191 410.111 148.339L410.106 148.345C410.08 148.373 410.054 148.402 410.029 148.427H401.73V148.427Z" fill="#2F2E41"/>
<path d="M409.698 145.495C409.663 145.876 409.56 146.246 409.393 146.59C409.378 146.624 409.364 146.656 409.35 146.69C409.184 147.081 409.016 147.467 408.841 147.856C408.756 148.045 408.67 148.236 408.581 148.427H403.851C404.022 148.248 404.18 148.057 404.325 147.856C405.05 146.847 405.47 145.621 406.21 144.532C406.311 144.383 406.427 144.245 406.556 144.121C407.741 142.972 409.773 143.206 409.698 145.495Z" fill="#FFB8B8"/>
<path d="M412.777 148.427C412.838 148.24 412.888 148.049 412.929 147.856C412.963 147.704 412.992 147.556 413.014 147.404C413.166 146.407 413.163 145.387 413.4 144.406C413.734 143.003 414.737 141.343 413.911 140.163C414.554 140.031 415.159 139.76 415.685 139.368C415.943 139.166 416.129 138.886 416.215 138.57C416.301 138.254 416.284 137.919 416.165 137.614C415.871 137.039 415.074 136.659 415.182 136.022C415.237 135.82 415.332 135.631 415.462 135.467C415.896 134.784 416.12 133.988 416.107 133.179C416.094 132.37 415.845 131.582 415.391 130.912C415.131 130.54 414.811 130.215 414.574 129.826C414.315 129.351 414.116 128.845 413.983 128.32C413.158 125.661 411.942 123.139 410.375 120.838C410.028 120.395 409.758 119.897 409.578 119.364C409.473 118.786 409.452 118.196 409.515 117.612C409.491 115.288 408.778 113.023 407.467 111.105C407.376 110.962 407.281 110.822 407.187 110.682C405.937 108.946 404.542 107.32 403.017 105.821C402.418 105.994 401.899 106.371 401.548 106.887C401.393 107.222 401.297 107.581 401.266 107.95C400.86 110.779 400.509 113.625 400.234 116.469C400.047 117.901 400.008 119.349 400.12 120.79C400.237 122.239 400.805 123.616 401.743 124.728C402.351 125.396 403.122 125.894 403.782 126.511C403.888 126.611 403.991 126.714 404.091 126.82C404.566 127.326 404.988 127.881 405.35 128.474C406.933 131.033 407.667 134.027 407.447 137.028C407.407 137.569 407.336 138.107 407.233 138.639C407.107 139.402 406.85 140.137 406.473 140.811C406.173 141.306 405.779 141.737 405.507 142.249C405.355 142.495 405.263 142.774 405.241 143.063C405.218 143.352 405.264 143.642 405.376 143.909C405.779 143.909 406.178 143.981 406.556 144.121C407.445 144.464 408.218 145.054 408.784 145.821C408.992 146.097 409.181 146.387 409.349 146.69C409.561 147.067 409.75 147.456 409.915 147.856C409.984 148.013 410.049 148.176 410.112 148.339C410.126 148.367 410.138 148.397 410.146 148.427L412.777 148.427Z" fill="#2F2E41"/>
<path d="M458.366 149.494H310.434V65.6526H458.366V149.494ZM311.787 148.14H457.013V67.0062H311.787V148.14Z" fill="#E6E6E6"/>
<path d="M272.893 326.795C281.299 326.795 288.113 319.978 288.113 311.568C288.113 303.158 281.299 296.341 272.893 296.341C264.487 296.341 257.673 303.158 257.673 311.568C257.673 319.978 264.487 326.795 272.893 326.795Z" fill="#E6E6E6"/>
<path d="M272.893 323.242C279.337 323.242 284.561 318.015 284.561 311.568C284.561 305.12 279.337 299.894 272.893 299.894C266.448 299.894 261.224 305.12 261.224 311.568C261.224 318.015 266.448 323.242 272.893 323.242Z" fill="white"/>
<path d="M278.738 317.944C278.668 317.944 278.599 317.93 278.535 317.904C278.47 317.877 278.412 317.838 278.362 317.788L266.67 306.09C266.574 305.989 266.522 305.855 266.523 305.717C266.525 305.578 266.581 305.446 266.679 305.348C266.777 305.25 266.91 305.194 267.048 305.192C267.187 305.19 267.32 305.243 267.421 305.338L279.114 317.036C279.188 317.111 279.239 317.205 279.259 317.309C279.28 317.412 279.269 317.518 279.229 317.616C279.189 317.713 279.121 317.796 279.033 317.854C278.946 317.913 278.843 317.944 278.738 317.944Z" fill="#5C42FF"/>
<path d="M272.627 313.552L270.906 311.831C270.896 311.821 270.884 311.815 270.87 311.812C270.856 311.81 270.842 311.812 270.83 311.819C270.817 311.825 270.807 311.835 270.801 311.847C270.794 311.859 270.792 311.873 270.794 311.887C270.863 312.334 271.073 312.747 271.392 313.066C271.712 313.386 272.124 313.596 272.571 313.665C272.584 313.667 272.598 313.665 272.611 313.658C272.623 313.652 272.633 313.641 272.639 313.629C272.645 313.617 272.647 313.602 272.645 313.589C272.643 313.575 272.637 313.562 272.627 313.552Z" fill="#5C42FF"/>
<path d="M273.158 309.574L274.881 311.298C274.891 311.307 274.904 311.314 274.918 311.316C274.931 311.319 274.946 311.317 274.958 311.31C274.971 311.304 274.981 311.294 274.987 311.282C274.994 311.269 274.996 311.255 274.994 311.241C274.925 310.794 274.715 310.381 274.395 310.061C274.076 309.741 273.662 309.531 273.215 309.461C273.201 309.459 273.187 309.461 273.175 309.468C273.162 309.474 273.152 309.484 273.146 309.497C273.14 309.509 273.137 309.524 273.139 309.537C273.142 309.551 273.148 309.564 273.158 309.574Z" fill="#5C42FF"/>
<path d="M280.698 312.14C280.808 311.967 280.866 311.767 280.865 311.562C280.865 311.357 280.806 311.157 280.695 310.985C279.842 309.652 278.719 308.513 277.397 307.644C276.058 306.753 274.489 306.267 272.881 306.246C272.07 306.247 271.264 306.379 270.495 306.637C270.474 306.645 270.454 306.657 270.439 306.674C270.424 306.691 270.413 306.711 270.408 306.733C270.403 306.755 270.403 306.778 270.409 306.8C270.416 306.822 270.427 306.842 270.443 306.858L272.013 308.428C272.029 308.444 272.049 308.456 272.071 308.462C272.094 308.468 272.117 308.468 272.14 308.463C272.671 308.333 273.228 308.342 273.755 308.49C274.282 308.638 274.762 308.919 275.15 309.306C275.537 309.694 275.818 310.174 275.965 310.702C276.113 311.229 276.123 311.786 275.993 312.318C275.987 312.34 275.987 312.363 275.994 312.386C276 312.408 276.011 312.428 276.028 312.444L278.285 314.704C278.308 314.728 278.34 314.742 278.373 314.743C278.406 314.745 278.439 314.734 278.464 314.712C279.333 313.971 280.086 313.104 280.698 312.14Z" fill="#5C42FF"/>
<path d="M272.892 314.753C272.41 314.753 271.933 314.644 271.499 314.433C271.065 314.222 270.684 313.915 270.386 313.535C270.087 313.156 269.879 312.713 269.776 312.241C269.674 311.769 269.679 311.28 269.793 310.811C269.799 310.789 269.798 310.765 269.792 310.743C269.786 310.721 269.774 310.701 269.758 310.684L267.538 308.462C267.514 308.438 267.483 308.425 267.45 308.423C267.416 308.422 267.384 308.433 267.358 308.454C266.505 309.194 265.75 310.04 265.11 310.971C264.99 311.143 264.924 311.348 264.92 311.558C264.916 311.768 264.975 311.975 265.089 312.152C265.928 313.486 267.04 314.626 268.354 315.497C269.695 316.392 271.27 316.873 272.882 316.88C273.701 316.878 274.515 316.749 275.295 316.496C275.316 316.49 275.336 316.477 275.352 316.46C275.367 316.444 275.378 316.423 275.383 316.401C275.389 316.379 275.388 316.356 275.382 316.334C275.376 316.312 275.364 316.292 275.348 316.276L273.771 314.699C273.755 314.682 273.735 314.671 273.713 314.664C273.69 314.658 273.667 314.658 273.645 314.664C273.398 314.723 273.146 314.753 272.892 314.753Z" fill="#5C42FF"/>
<path d="M215.145 326.795C223.551 326.795 230.365 319.978 230.365 311.568C230.365 303.158 223.551 296.341 215.145 296.341C206.739 296.341 199.925 303.158 199.925 311.568C199.925 319.978 206.739 326.795 215.145 326.795Z" fill="#E6E6E6"/>
<path d="M215.145 323.242C221.59 323.242 226.814 318.015 226.814 311.568C226.814 305.12 221.59 299.894 215.145 299.894C208.701 299.894 203.477 305.12 203.477 311.568C203.477 318.015 208.701 323.242 215.145 323.242Z" fill="white"/>
<path d="M219.628 319.012C218.586 318.929 217.581 318.586 216.705 318.015C215.01 317.109 213.462 315.95 212.114 314.579C210.719 313.25 209.554 311.698 208.666 309.987C207.442 307.761 207.651 306.594 207.884 306.095C208.153 305.549 208.577 305.095 209.102 304.788C209.403 304.591 209.721 304.422 210.053 304.283C210.086 304.269 210.117 304.255 210.145 304.243C210.255 304.18 210.376 304.142 210.502 304.131C210.628 304.119 210.755 304.135 210.874 304.176C211.139 304.304 211.375 304.485 211.567 304.708C212.258 305.484 212.841 306.349 213.299 307.281C213.488 307.604 213.604 307.963 213.639 308.335C213.612 308.703 213.463 309.052 213.216 309.326C213.172 309.385 213.129 309.442 213.087 309.497C212.834 309.83 212.779 309.926 212.816 310.097C213.154 310.96 213.677 311.737 214.35 312.374C214.977 313.037 215.746 313.549 216.599 313.872C216.778 313.91 216.876 313.852 217.219 313.59C217.268 313.553 217.319 313.514 217.371 313.475C217.646 313.216 218 313.057 218.377 313.025H218.379C218.756 313.064 219.118 313.191 219.437 313.397C220.358 313.864 221.218 314.442 221.999 315.117C222.223 315.309 222.404 315.544 222.533 315.809C222.574 315.929 222.589 316.056 222.578 316.182C222.566 316.308 222.528 316.43 222.466 316.54C222.454 316.568 222.44 316.598 222.426 316.631C222.286 316.963 222.116 317.281 221.918 317.581C221.61 318.106 221.155 318.529 220.61 318.797C220.303 318.942 219.968 319.016 219.628 319.012Z" fill="#5C42FF"/>
<path d="M331.087 326.795C339.493 326.795 346.308 319.978 346.308 311.568C346.308 303.158 339.493 296.341 331.087 296.341C322.682 296.341 315.867 303.158 315.867 311.568C315.867 319.978 322.682 326.795 331.087 326.795Z" fill="#E6E6E6"/>
<path d="M331.088 323.242C337.532 323.242 342.757 318.015 342.757 311.568C342.757 305.12 337.532 299.894 331.088 299.894C324.643 299.894 319.419 305.12 319.419 311.568C319.419 318.015 324.643 323.242 331.088 323.242Z" fill="white"/>
<path d="M333.214 318.481H328.962C328.892 318.481 328.823 318.467 328.758 318.441C328.693 318.414 328.635 318.375 328.585 318.325C328.536 318.276 328.496 318.217 328.469 318.153C328.443 318.088 328.429 318.019 328.429 317.949C328.429 317.879 328.443 317.809 328.469 317.745C328.496 317.68 328.536 317.621 328.585 317.572C328.635 317.523 328.693 317.483 328.758 317.457C328.823 317.43 328.892 317.417 328.962 317.417H333.214C333.284 317.417 333.354 317.43 333.418 317.457C333.483 317.483 333.542 317.523 333.592 317.572C333.641 317.621 333.68 317.68 333.707 317.745C333.734 317.809 333.748 317.879 333.748 317.949C333.748 318.019 333.734 318.088 333.707 318.153C333.68 318.217 333.641 318.276 333.592 318.325C333.542 318.375 333.483 318.414 333.418 318.441C333.354 318.467 333.284 318.481 333.214 318.481Z" fill="#5C42FF"/>
<path d="M331.088 315.822C329.82 315.82 328.604 315.316 327.707 314.418C326.811 313.521 326.306 312.305 326.305 311.036V309.973C326.305 309.832 326.361 309.697 326.461 309.598C326.561 309.499 326.696 309.443 326.836 309.443C326.977 309.443 327.112 309.499 327.211 309.598C327.311 309.697 327.367 309.832 327.368 309.973V311.036C327.367 311.525 327.463 312.01 327.649 312.462C327.836 312.914 328.11 313.325 328.456 313.671C328.801 314.017 329.212 314.292 329.663 314.479C330.115 314.667 330.599 314.763 331.088 314.763C331.577 314.763 332.061 314.667 332.513 314.479C332.965 314.292 333.375 314.017 333.721 313.671C334.066 313.325 334.34 312.914 334.527 312.462C334.714 312.01 334.809 311.525 334.809 311.036V309.973C334.809 309.832 334.865 309.697 334.965 309.598C335.065 309.499 335.199 309.443 335.34 309.443C335.481 309.443 335.616 309.499 335.715 309.598C335.815 309.697 335.871 309.832 335.872 309.973V311.036C335.87 312.305 335.366 313.521 334.469 314.418C333.572 315.316 332.356 315.82 331.088 315.822Z" fill="#5C42FF"/>
<path d="M331.089 318.48C331.019 318.48 330.95 318.467 330.885 318.44C330.82 318.413 330.762 318.374 330.712 318.325C330.663 318.275 330.624 318.217 330.597 318.152C330.57 318.088 330.557 318.018 330.557 317.949V315.29C330.556 315.22 330.57 315.151 330.597 315.086C330.623 315.021 330.662 314.962 330.712 314.913C330.761 314.863 330.82 314.824 330.885 314.797C330.949 314.77 331.019 314.756 331.089 314.756C331.159 314.756 331.228 314.77 331.292 314.797C331.357 314.824 331.416 314.863 331.465 314.913C331.515 314.962 331.554 315.021 331.58 315.086C331.607 315.151 331.621 315.22 331.62 315.29V317.949C331.62 318.018 331.607 318.088 331.58 318.152C331.553 318.217 331.514 318.275 331.465 318.325C331.415 318.374 331.357 318.413 331.292 318.44C331.227 318.467 331.158 318.48 331.089 318.48Z" fill="#5C42FF"/>
<path d="M331.088 313.695C330.738 313.694 330.391 313.623 330.068 313.485C329.745 313.347 329.453 313.146 329.21 312.894C328.711 312.391 328.431 311.711 328.431 311.003V307.314C328.428 306.611 328.704 305.937 329.199 305.438C329.693 304.94 330.366 304.658 331.068 304.655C331.075 304.655 331.082 304.655 331.088 304.655C331.438 304.651 331.786 304.718 332.11 304.85C332.434 304.982 332.729 305.178 332.976 305.425C333.224 305.673 333.419 305.968 333.551 306.292C333.684 306.616 333.75 306.964 333.746 307.314V311.003C333.75 311.712 333.472 312.394 332.974 312.898C332.475 313.403 331.797 313.689 331.088 313.695Z" fill="#5C42FF"/>
</g>
<defs>
<clipPath id="clip0_225_938">
<rect width="546" height="350" fill="white"/>
</clipPath>
</defs>
</svg>
