<svg width="540" height="400" viewBox="0 0 540 400" fill="none" xmlns="http://www.w3.org/2000/svg">
<g clip-path="url(#clip0_225_901)">
<path d="M321.003 395.696L311.667 391.761L305.262 344.914H219.972L213.03 391.57L204.677 395.75C204.278 395.95 203.957 396.279 203.768 396.684C203.579 397.09 203.531 397.547 203.634 397.982C203.737 398.417 203.983 398.805 204.334 399.083C204.684 399.36 205.118 399.511 205.565 399.511H320.234C320.692 399.511 321.135 399.353 321.49 399.062C321.844 398.772 322.087 398.368 322.178 397.919C322.269 397.47 322.201 397.003 321.987 396.598C321.773 396.192 321.425 395.874 321.003 395.696Z" fill="#E6E6E6"/>
<path d="M472.569 351.147H53.6022C51.404 351.142 49.2975 350.264 47.7449 348.707C46.1923 347.149 45.3203 345.038 45.3203 342.838V283.702H480.851V342.838C480.851 345.038 479.979 347.149 478.426 348.706C476.873 350.264 474.767 351.142 472.569 351.147Z" fill="#CCCCCC"/>
<path d="M481.288 311.651H44.9375V58.6212C44.9406 55.9657 45.9958 53.42 47.8717 51.5423C49.7476 49.6647 52.291 48.6086 54.9439 48.6056H471.282C473.935 48.6086 476.478 49.6647 478.354 51.5423C480.23 53.42 481.285 55.9657 481.288 58.6212V311.651Z" fill="#3F3D56"/>
<path d="M455.227 293.286H70.9994C68.9541 293.284 66.9933 292.47 65.5471 291.022C64.1009 289.575 63.2875 287.612 63.2852 285.565V74.6919C63.2874 72.6447 64.1009 70.682 65.5471 69.2344C66.9933 67.7868 68.9541 66.9724 70.9994 66.9701H455.227C457.272 66.9724 459.233 67.7868 460.679 69.2344C462.125 70.682 462.939 72.6447 462.941 74.6919V285.565C462.939 287.612 462.125 289.575 460.679 291.022C459.233 292.47 457.272 293.284 455.227 293.286Z" fill="white"/>
<path d="M370.87 400H154.967C154.746 400.005 154.53 399.936 154.351 399.805C154.173 399.673 154.044 399.487 153.983 399.274C153.944 399.129 153.94 398.977 153.97 398.831C153.999 398.684 154.062 398.546 154.153 398.427C154.245 398.308 154.362 398.212 154.496 398.146C154.63 398.08 154.778 398.045 154.928 398.045H370.79C371.023 398.037 371.253 398.108 371.44 398.247C371.628 398.386 371.763 398.584 371.824 398.81C371.856 398.953 371.855 399.101 371.822 399.243C371.789 399.386 371.724 399.519 371.632 399.634C371.541 399.748 371.425 399.84 371.293 399.904C371.161 399.967 371.016 400 370.87 400Z" fill="#CCCCCC"/>
<path d="M411.675 255.747H330.722C330.521 255.764 330.321 255.701 330.165 255.572C330.009 255.443 329.91 255.258 329.889 255.057V189.696C329.91 189.495 330.009 189.31 330.165 189.181C330.321 189.051 330.521 188.989 330.722 189.006H411.675C411.877 188.989 412.077 189.051 412.233 189.181C412.389 189.31 412.488 189.495 412.509 189.696V255.057C412.488 255.258 412.389 255.443 412.233 255.572C412.077 255.701 411.877 255.764 411.675 255.747Z" fill="#F0F0F0"/>
<path d="M402.876 196.237H339.522C339.301 196.238 339.089 196.326 338.933 196.482C338.777 196.638 338.689 196.85 338.688 197.072V246.209C338.689 246.43 338.777 246.642 338.933 246.798C339.089 246.955 339.301 247.043 339.522 247.043H402.876C403.097 247.043 403.309 246.955 403.466 246.798C403.622 246.642 403.71 246.43 403.71 246.209V197.072C403.71 196.85 403.622 196.638 403.466 196.482C403.309 196.326 403.097 196.238 402.876 196.237Z" fill="white"/>
<path d="M369.633 229.533C374.082 229.533 377.689 225.923 377.689 221.47C377.689 217.017 374.082 213.408 369.633 213.408C365.185 213.408 361.578 217.017 361.578 221.47C361.578 225.923 365.185 229.533 369.633 229.533Z" fill="#FFB8B8"/>
<path d="M381.419 247.043H363.56L364.143 233.9L364.282 233.754L366.286 231.634H372.664L375.028 233.926L375.219 234.111L380.252 238.94L381.419 247.043Z" fill="#A048EB"/>
<path d="M366.631 247.043H353.119C353.086 244.076 353.067 242.3 353.067 242.3L353.849 241.823L353.853 241.821H353.855L362.465 236.589L364.273 233.65L364.282 233.754L364.814 239.949C364.814 239.949 365.692 242.789 366.631 247.043Z" fill="#2F2E41"/>
<path d="M389.34 247.043H375.027C375.244 238.391 374.077 233.65 374.677 233.65L375.027 233.926L379.246 237.26L384.805 239.302H384.809L388.641 240.709L389.314 240.956V241.273C389.316 242.033 389.319 244.111 389.34 247.043Z" fill="#2F2E41"/>
<path d="M362.013 223.993C362.013 223.993 362.698 222.79 362.539 218.771C362.38 214.752 368.494 217.025 373.603 216.642C378.712 216.258 377.63 223.351 377.63 223.351C377.63 223.351 377.999 222.93 378.788 219.506C379.577 216.083 377.785 212.671 377.785 212.671C377.258 209.074 374.414 210.227 374.414 210.227C374.773 210.319 375.086 210.541 375.29 210.85C375.495 211.16 375.577 211.535 375.52 211.902C374.361 209.867 371.517 211.02 371.517 211.02C367.724 208.638 363.88 211.775 363.88 211.775C359.298 212.816 361.985 216.464 361.985 216.464C357.377 218.795 362.013 223.993 362.013 223.993Z" fill="#2F2E41"/>
<path d="M354.923 247.043H349.372C349.415 246.358 349.416 245.672 349.375 244.987C349.044 243.665 353.708 241.877 353.849 241.823L353.853 241.822H353.855L354.744 242.3L354.923 247.043Z" fill="#2F2E41"/>
<path d="M390.343 247.043H384.511L383.783 239.849L384.6 239.252C384.6 239.252 384.674 239.268 384.806 239.302H384.809C386.142 239.605 387.43 240.078 388.642 240.709C388.899 240.853 389.127 241.045 389.315 241.273C389.429 241.41 389.486 241.587 389.474 241.766C389.444 242.035 389.785 244.015 390.343 247.043Z" fill="#2F2E41"/>
<path d="M411.411 172.353H330.459C330.257 172.37 330.057 172.307 329.901 172.178C329.745 172.049 329.646 171.864 329.625 171.662V106.278C329.646 106.077 329.745 105.892 329.901 105.763C330.057 105.634 330.257 105.571 330.459 105.588H411.411C411.613 105.571 411.813 105.634 411.969 105.763C412.125 105.892 412.224 106.077 412.245 106.278V171.662C412.224 171.864 412.125 172.049 411.969 172.178C411.813 172.307 411.613 172.37 411.411 172.353Z" fill="#F0F0F0"/>
<path d="M402.613 112.819H339.258C339.037 112.82 338.826 112.908 338.669 113.064C338.513 113.221 338.425 113.433 338.425 113.654V162.791C338.425 163.012 338.513 163.224 338.669 163.381C338.826 163.537 339.037 163.625 339.258 163.625H402.613C402.834 163.625 403.046 163.537 403.202 163.381C403.358 163.224 403.446 163.012 403.446 162.791V113.654C403.446 113.433 403.358 113.221 403.202 113.064C403.046 112.908 402.834 112.82 402.613 112.819Z" fill="white"/>
<path d="M386.53 163.625C386.887 162.337 387.165 161.226 387.308 160.44C387.352 160.197 387.356 159.949 387.321 159.705C386.787 155.906 377.151 152.695 375.915 152.298L375.617 148.99L363.487 147.683L361.951 151.914L357.598 153.548C357.44 153.606 357.29 153.683 357.151 153.777C356.786 154.024 356.505 154.377 356.347 154.789C356.188 155.2 356.159 155.65 356.264 156.079L358.118 163.625H386.53L386.53 163.625Z" fill="#A048EB"/>
<path d="M361.384 163.625H351.972C352.309 161.522 352.611 159.663 352.807 158.48C353.526 154.174 356.66 153.807 357.151 153.777C357.19 153.774 357.214 153.774 357.216 153.774H359.196L361.384 163.625Z" fill="#A048EB"/>
<path d="M386.529 163.625H388.812C388.701 162.202 388.183 160.842 387.32 159.705C386.888 159.133 386.329 158.668 385.688 158.346L385.516 158.272L383.51 163.625H386.529Z" fill="#A048EB"/>
<path d="M369.078 145.589C373.901 145.589 377.811 141.675 377.811 136.847C377.811 132.019 373.901 128.105 369.078 128.105C364.254 128.105 360.344 132.019 360.344 136.847C360.344 141.675 364.254 145.589 369.078 145.589Z" fill="#A0616A"/>
<path d="M363.215 132.588C364.119 133.659 365.649 133.961 367.061 134.084C370.36 134.266 373.67 133.996 376.896 133.28C377.097 135.219 376.551 137.311 377.692 138.906C378.227 136.975 378.538 134.988 378.619 132.985C378.705 132.126 378.592 131.258 378.292 130.449C378.131 130.043 377.86 129.691 377.509 129.432C377.158 129.173 376.741 129.018 376.307 128.984C376.957 128.49 377.72 128.164 378.526 128.035L375.753 126.64L376.465 125.908L371.445 125.6L372.899 124.676C370.709 124.375 368.494 124.305 366.29 124.468C365.261 124.468 364.251 124.749 363.369 125.281C362.54 125.874 362.061 127.053 362.575 127.925C361.931 128.03 361.325 128.299 360.813 128.705C360.302 129.112 359.902 129.642 359.653 130.246C359.337 131.206 359.261 132.228 359.431 133.225C359.62 134.823 359.991 136.394 360.537 137.908" fill="#2F2E41"/>
<path d="M113.718 253.919V106.071C113.77 105.612 113.999 105.192 114.356 104.9C114.713 104.608 115.171 104.468 115.63 104.509H301.35C301.81 104.468 302.267 104.608 302.624 104.9C302.982 105.192 303.211 105.612 303.263 106.071V253.919C303.211 254.378 302.982 254.798 302.624 255.09C302.267 255.382 301.81 255.522 301.35 255.481H115.63C115.171 255.522 114.713 255.382 114.356 255.09C113.999 254.798 113.77 254.378 113.718 253.919Z" fill="#E4E4E4"/>
<path d="M133.904 123.014V235.743C133.905 236.251 134.107 236.737 134.465 237.096C134.824 237.455 135.31 237.657 135.817 237.658H281.163C281.67 237.657 282.156 237.455 282.514 237.096C282.873 236.737 283.074 236.251 283.075 235.743V123.014C283.074 122.507 282.873 122.02 282.514 121.662C282.156 121.303 281.67 121.101 281.163 121.1H135.817C135.31 121.101 134.824 121.303 134.465 121.662C134.107 122.02 133.905 122.507 133.904 123.014Z" fill="white"/>
<path d="M194.188 237.658H223.44L221.617 210.271L211.065 212.708L200.801 208.756L200.529 208.654L200.512 208.646C200.509 208.654 200.506 208.663 200.504 208.671C200.342 209.322 197.121 222.233 194.188 237.658Z" fill="#A048EB"/>
<path d="M176.561 214.742L179.293 237.657H203.947L200.802 208.757L200.772 208.475L200.53 208.654L200.505 208.671L194.423 213.113L176.561 214.742Z" fill="#2F2E41"/>
<path d="M219.114 237.658H241.192L241.511 219.617L225.264 214.223L221.617 210.271C221.617 210.271 220.466 222.161 219.114 237.658Z" fill="#2F2E41"/>
<path d="M165.932 237.658H184.228L183.054 221.242L176.561 214.742C176.561 214.742 171.423 225.53 165.932 237.658Z" fill="#2F2E41"/>
<path d="M235.986 237.658H245.638C245.595 232.4 245.57 228.767 245.57 227.742C245.618 226.157 245.273 224.585 244.564 223.167C243.856 221.749 242.807 220.529 241.511 219.617L236.637 221.242L235.986 237.658Z" fill="#2F2E41"/>
<path d="M237.492 201.653H186.35V180.077C186.35 172.683 191.554 163.793 197.951 160.26C206.93 155.302 216.746 155.215 224.881 160.022C228.711 162.292 231.886 165.518 234.097 169.384C236.307 173.251 237.477 177.625 237.492 182.08V201.653Z" fill="#2F2E41"/>
<path d="M229.142 191.5C234.036 182.54 230.746 171.306 221.794 166.408C212.843 161.51 201.619 164.803 196.726 173.763C191.832 182.723 195.122 193.957 204.074 198.855C213.025 203.753 224.249 200.46 229.142 191.5Z" fill="#FFB8B8"/>
<path d="M230.492 183.586H204.139L204.077 183.286C203.772 181.714 203.378 180.16 202.896 178.632C201.85 180.167 200.885 181.756 200.005 183.392L199.898 183.586H194.774C194.46 183.585 194.149 183.519 193.862 183.392C193.574 183.265 193.316 183.079 193.105 182.846C192.965 182.693 192.639 182.333 193.989 165.845C194.026 165.453 194.164 165.077 194.39 164.754C194.616 164.43 194.922 164.172 195.278 164.003C206.841 158.6 218.559 158.743 230.108 164.43H230.314L230.387 164.717C232.665 182.266 232.337 182.645 232.198 182.806C231.986 183.051 231.724 183.247 231.43 183.382C231.135 183.516 230.816 183.586 230.492 183.586Z" fill="#2F2E41"/>
</g>
<defs>
<clipPath id="clip0_225_901">
<rect width="540" height="400" fill="white"/>
</clipPath>
</defs>
</svg>
