<svg width="378" height="98" viewBox="0 0 378 98" fill="none" xmlns="http://www.w3.org/2000/svg">
<path d="M144.376 51.7192V57.5843H121.237C121.664 54.0653 121.77 49.7998 121.77 39.136C121.77 29.3253 121.664 25.4864 121.237 21.9673H143.31V27.2992C138.191 25.3798 134.673 25.2731 129.554 25.2731H128.701V37.3232C133.073 37.3232 135.739 37.1099 140.111 36.1502V41.8019C135.739 40.8422 133.073 40.7356 128.701 40.6289V54.3852H130.621C135.952 54.3852 140.004 54.0653 144.376 51.7192Z" fill="black" fill-opacity="0.1"/>
<path d="M178.497 22.074V27.4059C174.445 25.8063 171.672 25.3797 168.687 25.3797H167.621V39.2426C167.621 49.9064 167.727 54.1719 168.154 57.6909H160.156C160.583 54.1719 160.69 49.9064 160.69 39.2426V25.3797H159.73C156.424 25.3797 153.759 25.8063 149.813 27.4059V22.074H178.497Z" fill="black" fill-opacity="0.1"/>
<path d="M215.284 43.6148C215.284 52.8923 209.846 58.2241 200.676 58.2241C191.612 58.2241 185.854 52.5723 185.854 43.6148V31.8846C185.854 27.6191 185.748 25.8063 185.321 22.074H193.532C193.105 25.8063 192.999 27.5125 192.999 31.8846V43.6148C192.999 50.8661 196.091 54.7051 201.742 54.7051C207.607 54.7051 211.019 50.8661 211.019 43.6148V31.8846C211.019 27.6191 210.806 25.8063 210.059 22.074H216.35C215.604 25.8063 215.391 27.5125 215.391 31.8846V43.6148H215.284Z" fill="black" fill-opacity="0.1"/>
<path d="M299.095 51.7192V57.5843H275.956C276.383 54.0653 276.489 49.7998 276.489 39.136C276.489 29.3253 276.383 25.4864 275.956 21.9673H298.028V27.2992C292.91 25.3798 289.391 25.2731 284.273 25.2731H283.42V37.3232C287.792 37.3232 290.458 37.1099 294.829 36.1502V41.8019C290.458 40.8422 287.792 40.7356 283.42 40.6289V54.3852H285.339C290.564 54.3852 294.616 54.0653 299.095 51.7192Z" fill="black" fill-opacity="0.1"/>
<path d="M338.547 39.136C338.547 29.3253 338.44 25.4864 338.014 21.9673H346.011C345.584 25.3798 345.478 29.3253 345.478 39.136C345.478 49.7998 345.584 54.0653 346.011 57.5843H338.014C338.44 54.0653 338.547 49.7998 338.547 39.136Z" fill="black" fill-opacity="0.1"/>
<path d="M270.838 51.7192V57.5843H247.699C248.126 53.852 248.232 52.1458 248.232 47.7737V31.778C248.232 27.5125 248.126 25.6997 247.699 21.9673H255.696C255.163 25.6997 255.163 27.4059 255.163 31.778V54.0653H258.042C262.947 54.0653 266.786 53.7454 270.838 51.7192Z" fill="black" fill-opacity="0.1"/>
<path d="M331.084 22.074V27.4059C327.032 25.8063 324.259 25.3797 321.274 25.3797H320.207V39.2426C320.207 49.9064 320.314 54.1719 320.741 57.6909H312.743C313.17 54.1719 313.277 49.9064 313.277 39.2426V25.3797H312.317C309.011 25.3797 306.346 25.8063 302.4 27.4059V22.074H331.084Z" fill="black" fill-opacity="0.1"/>
<path d="M65.2568 52.2524C65.3635 53.3188 65.4702 54.5985 65.4702 57.691C65.4702 60.9967 65.4702 62.383 65.2568 63.4494H67.7103C67.6036 62.383 67.497 60.9967 67.497 57.691C67.497 54.5985 67.497 53.4255 67.7103 52.2524H65.2568Z" fill="black" fill-opacity="0.1"/>
<path d="M69.9482 60.4635C69.9482 62.4896 71.4411 63.6627 74.0001 63.6627C76.6659 63.6627 78.2653 62.4896 78.2653 60.3569C78.2653 58.9706 77.5189 58.0109 76.0261 57.5843C77.199 57.1578 77.8388 56.3047 77.8388 55.025C77.8388 53.2122 76.4526 52.0392 74.1068 52.0392C71.6543 52.0392 70.1615 53.1055 70.1615 55.1316C70.1615 56.3047 70.8013 57.1578 72.0808 57.6909C70.6946 58.1175 69.9482 59.0772 69.9482 60.4635ZM74.1068 53.1055C75.1731 53.1055 75.7062 53.852 75.7062 55.1316C75.7062 56.4113 75.0664 57.1578 74.2134 57.1578C73.2537 57.1578 72.614 56.4113 72.614 55.1316C72.5073 53.852 73.1471 53.1055 74.1068 53.1055ZM74.1068 58.2241C75.2797 58.2241 76.0261 59.0772 76.0261 60.4635C76.0261 61.8498 75.2797 62.5963 74.2134 62.5963C73.0405 62.5963 72.2941 61.7432 72.2941 60.3569C72.2941 59.0772 72.9339 58.2241 74.1068 58.2241Z" fill="black" fill-opacity="0.1"/>
<path d="M79.8652 60.4635C79.8652 62.4896 81.358 63.6627 83.9171 63.6627C86.5829 63.6627 88.1823 62.4896 88.1823 60.3569C88.1823 58.9706 87.4359 58.0109 85.9431 57.5843C87.116 57.1578 87.7558 56.3047 87.7558 55.025C87.7558 53.2122 86.3696 52.0392 84.0238 52.0392C81.5713 52.0392 80.0785 53.1055 80.0785 55.1316C80.0785 56.3047 80.7183 57.1578 81.9978 57.6909C80.6116 58.1175 79.8652 59.0772 79.8652 60.4635ZM83.9171 53.1055C84.9834 53.1055 85.5166 53.852 85.5166 55.1316C85.5166 56.4113 84.8768 57.1578 84.0238 57.1578C83.0641 57.1578 82.4243 56.4113 82.4243 55.1316C82.4243 53.852 82.9575 53.1055 83.9171 53.1055ZM83.9171 58.2241C85.09 58.2241 85.8365 59.0772 85.8365 60.4635C85.8365 61.8498 85.0901 62.5963 84.0238 62.5963C82.8508 62.5963 82.1044 61.7432 82.1044 60.3569C82.2111 59.0772 82.8508 58.2241 83.9171 58.2241Z" fill="black" fill-opacity="0.1"/>
<path d="M94.6862 56.3047C93.4066 56.3047 92.6602 56.8378 92.1271 57.371C92.2337 54.8117 92.9801 53.1055 94.6862 53.1055C96.0724 53.1055 96.8188 54.4918 96.8188 54.4918V52.4657C96.8188 52.4657 95.9657 52.0392 94.5796 52.0392C91.8072 52.0392 89.7812 54.1719 89.7812 58.0109C89.7812 61.8498 91.3807 63.556 94.0464 63.556C96.4989 63.556 97.9917 62.0631 97.9917 59.6104C97.8851 57.4777 96.7121 56.3047 94.6862 56.3047ZM94.0464 62.5963C92.8735 62.5963 92.1271 61.6365 92.0205 58.6507C92.447 58.2241 92.9801 57.691 93.8332 57.691C95.0061 57.691 95.6458 58.4374 95.6458 60.037C95.7525 61.6365 95.1127 62.5963 94.0464 62.5963Z" fill="black" fill-opacity="0.1"/>
<path d="M86.796 19.9412C70.9083 4.05222 45.2107 4.05222 29.4296 19.9412C21.7523 27.6191 17.807 37.6431 17.5938 47.667V47.7737C17.5938 48.2002 17.5938 48.6268 17.5938 49.0533C17.5938 48.84 17.5938 48.7334 17.5938 48.5201C17.5938 51.9325 17.9136 55.4516 18.8733 58.9706C24.418 80.7247 46.5969 93.7345 68.2426 88.0827C78.4789 85.4167 86.6894 79.1251 92.0208 70.914H91.9142C87.1159 77.8455 79.8651 83.284 71.0149 85.5234C51.1819 90.642 30.9224 78.8052 25.8042 58.9706C24.8445 55.2383 24.5246 51.3993 24.7379 47.667H26.444C26.3373 50.6529 26.6572 53.7454 27.5103 56.8379C31.9887 74.6463 50.1156 85.3101 67.9227 80.7247C74.427 79.0185 79.8651 75.4994 84.0237 70.914C78.6922 75.926 71.5481 79.0185 63.6575 79.0185C55.1272 79.0185 47.4499 75.3928 42.0118 69.6344C41.9052 69.5277 41.7985 69.4211 41.6919 69.3145C41.5853 69.3145 41.5853 69.2078 41.4787 69.1012C38.3864 65.6888 36.0406 61.5299 34.8677 56.7312C34.1213 53.7454 33.8014 50.6529 34.0146 47.667H35.9339C35.8273 50.2263 36.0406 52.7856 36.6804 55.3449C40.1991 68.9945 54.1675 77.099 67.7094 73.58C70.0552 72.9401 72.2945 71.9804 74.2138 70.8074H73.6806C71.0149 71.9804 68.0293 72.6202 64.9371 72.6202C52.7813 72.6202 42.8648 62.7029 42.8648 50.5462C42.8648 49.5865 42.9715 48.6268 43.0781 47.667H48.8361H72.721H80.5049H82.5309H90.1015H91.4877H98.6318C98.4186 37.6431 94.4733 27.6191 86.796 19.9412ZM30.3892 46.6006C31.1356 42.5484 33.055 38.6028 36.2538 35.4037C44.6775 26.9793 58.326 26.9793 66.7497 35.4037C68.8823 37.5364 70.4818 40.0957 71.5481 42.8683L30.3892 46.6006ZM79.332 42.1219C78.1591 38.4962 76.1331 34.9771 73.1475 32.0979C63.231 22.1806 47.0234 22.1806 37.1069 32.0979C33.055 36.1502 30.7091 41.2688 29.9627 46.6006L23.4583 47.1338C24.3114 40.8422 27.0837 34.7639 31.882 29.9652C43.5046 18.3417 62.378 18.3417 74.0005 29.9652C77.5193 33.4842 79.8651 37.5364 81.2513 41.9086L79.332 42.1219ZM89.0352 41.2688C87.649 35.7236 84.7701 30.3917 80.3983 26.0196C67.2829 12.9031 46.1703 12.9031 33.055 26.0196C27.1904 31.8846 23.9915 39.4559 23.4583 47.1338L19.6197 47.4537L17.5938 47.5604C18.0203 38.7095 21.6457 30.0718 28.3633 23.3536C42.7582 8.95755 66.2166 8.95755 80.7182 23.4603C85.7297 28.4722 89.0352 34.6572 90.528 41.0555L89.0352 41.2688Z" fill="black" fill-opacity="0.1"/>
<path d="M234.051 22.074H238.209L235.117 31.0315H231.705L234.051 22.074ZM240.982 22.074H245.247L241.728 31.0315H238.103L240.982 22.074Z" fill="black" fill-opacity="0.1"/>
<path d="M351.556 22.074H355.714L352.622 31.0315H349.21L351.556 22.074ZM358.487 22.074H362.752L359.233 31.0315H355.608L358.487 22.074Z" fill="black" fill-opacity="0.1"/>
<path d="M132.86 72.6202C132.86 71.0207 132.86 70.2742 132.753 69.741H134.14C134.033 70.2742 134.033 71.0207 134.033 72.6202C134.033 74.4331 134.033 75.1795 134.14 75.7127H132.753C132.86 75.1795 132.86 74.4331 132.86 72.6202Z" fill="black" fill-opacity="0.1"/>
<path d="M121.131 75.4995V74.3264C121.131 74.3264 121.771 75.3928 123.05 75.3928C123.69 75.3928 124.01 75.0729 124.01 74.6463C124.01 74.2198 123.903 74.0065 123.264 73.6866L122.197 72.9401C121.344 72.407 121.024 71.9804 121.024 71.3406C121.024 70.3808 121.771 69.8477 123.05 69.8477C124.117 69.8477 124.756 70.1676 124.756 70.1676V71.3406C124.756 71.3406 124.117 70.4875 123.05 70.4875C122.517 70.4875 122.197 70.8074 122.197 71.2339C122.197 71.6605 122.304 71.8738 122.944 72.3003L124.01 73.0468C124.863 73.58 125.183 74.0065 125.183 74.6463C125.183 75.6061 124.437 76.2459 123.05 76.2459C121.877 75.8194 121.131 75.4995 121.131 75.4995Z" fill="black" fill-opacity="0.1"/>
<path d="M147.148 69.741V70.5941C146.508 70.2742 145.975 70.2742 145.549 70.2742H145.335V72.6202C145.335 74.4331 145.335 75.1795 145.442 75.7127H144.056C144.163 75.0729 144.163 74.4331 144.163 72.6202V70.2742H143.949C143.416 70.2742 142.99 70.3808 142.243 70.5941V69.741H147.148Z" fill="black" fill-opacity="0.1"/>
<path d="M141.283 69.6344C141.177 70.2742 141.177 70.7007 141.177 72.3003V75.6061H140.43L136.805 71.3406V72.8335C136.805 74.4331 136.805 74.9663 137.018 75.6061H136.059C136.165 74.9663 136.165 74.4331 136.165 72.8335V70.8074C136.165 70.2742 136.165 70.0609 136.059 69.6344H136.805L140.537 74.0065V72.3003C140.537 70.7007 140.537 70.2742 140.324 69.6344H141.283Z" fill="black" fill-opacity="0.1"/>
<path d="M131.58 75.6061H130.088C129.981 74.9663 129.874 74.4331 129.661 73.7932L129.554 73.6866H127.209V73.7932C126.995 74.4331 126.889 74.9663 126.782 75.6061H125.716C126.036 74.9663 126.036 74.8596 126.249 74.3264L128.168 69.5277H129.128L131.047 74.3264C131.261 74.9663 131.261 75.0729 131.58 75.6061ZM129.341 73.2601L128.382 70.8074L127.529 73.2601H129.341Z" fill="black" fill-opacity="0.1"/>
<path d="M217.096 74.6463V75.6061H213.258C213.364 74.9663 213.364 74.3264 213.364 72.5136C213.364 70.914 213.364 70.1676 213.258 69.6344H216.99V70.4875C216.137 70.1676 215.497 70.1676 214.644 70.1676H214.537V72.1937C215.284 72.1937 215.71 72.1937 216.457 71.9804V72.9401C215.71 72.8335 215.284 72.7269 214.537 72.7269V75.0729H214.857C215.71 75.0729 216.35 75.0729 217.096 74.6463Z" fill="black" fill-opacity="0.1"/>
<path d="M222.642 74.6464V75.6061H218.696C218.803 74.9663 218.803 74.6464 218.803 74.0065V71.3406C218.803 70.5941 218.803 70.2742 218.696 69.741H220.082C219.976 70.3809 219.976 70.7008 219.976 71.3406V75.0729H220.509C221.362 75.0729 221.895 74.9663 222.642 74.6464Z" fill="black" fill-opacity="0.1"/>
<path d="M228.079 74.6463V75.6061H224.134C224.24 74.9663 224.24 74.3264 224.24 72.5136C224.24 70.914 224.24 70.1676 224.134 69.6344H227.866V70.4875C227.013 70.1676 226.373 70.1676 225.52 70.1676H225.413V72.1937C226.16 72.1937 226.586 72.1937 227.333 71.9804V72.9401C226.586 72.8335 226.16 72.7269 225.413 72.7269V75.0729H225.733C226.586 75.0729 227.333 75.0729 228.079 74.6463Z" fill="black" fill-opacity="0.1"/>
<path d="M229.252 72.8335C229.252 70.8074 230.638 69.6344 232.557 69.6344C233.517 69.6344 234.264 69.8476 234.264 69.8476V71.0207C234.264 71.0207 233.73 70.2742 232.664 70.2742C231.385 70.2742 230.638 71.2339 230.638 72.8335C230.638 74.4331 231.385 75.3928 232.771 75.3928C233.944 75.3928 234.477 74.753 234.477 74.753L234.583 75.4994C234.583 75.4994 233.837 75.926 232.451 75.926C230.532 75.8194 229.252 74.753 229.252 72.8335Z" fill="black" fill-opacity="0.1"/>
<path d="M240.129 69.6344V70.4875C239.489 70.1676 238.956 70.1676 238.529 70.1676H238.316V72.5136C238.316 74.3264 238.316 75.0729 238.423 75.6061H237.036C237.143 74.9663 237.143 74.3264 237.143 72.5136V70.1676H236.93C236.397 70.1676 235.97 70.2742 235.224 70.4875V69.6344H240.129Z" fill="black" fill-opacity="0.1"/>
<path d="M245.034 75.6061L243.221 73.0468H243.114H242.688C242.688 74.3264 242.688 74.9663 242.794 75.6061H241.408C241.515 74.9663 241.515 74.3264 241.515 72.5136C241.515 70.914 241.515 70.1676 241.408 69.6344H243.541C244.927 69.6344 245.673 70.1676 245.673 71.2339C245.673 72.087 245.247 72.6202 244.394 72.9401L244.82 73.4733C245.567 74.4331 245.993 74.9663 246.633 75.6061H245.034ZM243.114 72.5136C244.074 72.5136 244.5 72.087 244.5 71.3406C244.5 70.5941 244.074 70.1676 243.328 70.1676H242.794V72.5136H243.114Z" fill="black" fill-opacity="0.1"/>
<path d="M247.379 72.8335C247.379 70.914 248.552 69.6344 250.578 69.6344C252.39 69.6344 253.563 70.8074 253.563 72.7269C253.563 74.6463 252.39 75.926 250.365 75.926C248.552 75.8194 247.379 74.753 247.379 72.8335ZM252.284 72.8335C252.284 71.2339 251.537 70.2742 250.471 70.2742C249.405 70.2742 248.658 71.2339 248.658 72.8335C248.658 74.4331 249.405 75.3928 250.471 75.3928C251.644 75.2862 252.284 74.4331 252.284 72.8335Z" fill="black" fill-opacity="0.1"/>
<path d="M259.322 69.6344V70.4875C258.682 70.1676 258.149 70.1676 257.722 70.1676H257.509V72.5136C257.509 74.3264 257.509 75.0729 257.616 75.6061H256.23C256.336 74.9663 256.336 74.3264 256.336 72.5136V70.1676H256.123C255.59 70.1676 255.163 70.2742 254.417 70.4875V69.6344H259.322Z" fill="black" fill-opacity="0.1"/>
<path d="M264.653 74.6463V75.6061H260.708C260.815 74.9663 260.815 74.3264 260.815 72.5136C260.815 70.914 260.815 70.1676 260.708 69.6344H264.44V70.4875C263.587 70.1676 262.947 70.1676 262.094 70.1676H261.988V72.1937C262.734 72.1937 263.16 72.1937 263.907 71.9804V72.9401C263.16 72.8335 262.734 72.7269 261.988 72.7269V75.0729H262.307C263.267 75.0729 263.907 75.0729 264.653 74.6463Z" fill="black" fill-opacity="0.1"/>
<path d="M265.826 72.8335C265.826 70.8074 267.212 69.6344 269.132 69.6344C270.091 69.6344 270.838 69.8476 270.838 69.8476V71.0207C270.838 71.0207 270.305 70.2742 269.238 70.2742C267.959 70.2742 267.212 71.2339 267.212 72.8335C267.212 74.4331 267.959 75.3928 269.345 75.3928C270.518 75.3928 271.051 74.753 271.051 74.753L271.158 75.4994C271.158 75.4994 270.411 75.926 269.025 75.926C267.106 75.8194 265.826 74.753 265.826 72.8335Z" fill="black" fill-opacity="0.1"/>
<path d="M277.662 72.5136C277.662 74.3264 277.662 75.0729 277.769 75.6061H276.383C276.489 75.0729 276.489 74.3264 276.489 72.7269H273.717C273.717 74.3264 273.717 74.9663 273.824 75.6061H272.438C272.544 74.9663 272.544 74.3264 272.544 72.5136C272.544 70.914 272.544 70.1676 272.438 69.6344H273.824C273.717 70.1676 273.717 70.8074 273.717 72.1937H276.489C276.489 70.8074 276.489 70.1676 276.383 69.6344H277.769C277.662 70.2742 277.662 70.914 277.662 72.5136Z" fill="black" fill-opacity="0.1"/>
<path d="M284.912 69.6344C284.806 70.2742 284.806 70.7007 284.806 72.3003V75.6061H284.059L280.434 71.3406V72.8335C280.434 74.4331 280.434 74.9663 280.647 75.6061H279.688C279.794 74.9663 279.794 74.4331 279.794 72.8335V70.8074C279.794 70.2742 279.794 70.0609 279.688 69.6344H280.434L284.166 74.0065V72.3003C284.166 70.7007 284.166 70.2742 283.953 69.6344H284.912Z" fill="black" fill-opacity="0.1"/>
<path d="M286.939 72.5136C286.939 70.914 286.939 70.1676 286.832 69.6344H288.219C288.112 70.1676 288.112 70.914 288.112 72.5136C288.112 74.3264 288.112 75.0729 288.219 75.6061H286.832C286.939 75.0729 286.939 74.3264 286.939 72.5136Z" fill="black" fill-opacity="0.1"/>
<path d="M289.711 72.8335C289.711 70.8074 291.097 69.6344 293.016 69.6344C293.976 69.6344 294.722 69.8476 294.722 69.8476V71.0207C294.722 71.0207 294.189 70.2742 293.123 70.2742C291.843 70.2742 291.097 71.2339 291.097 72.8335C291.097 74.4331 291.843 75.3928 293.23 75.3928C294.403 75.3928 294.936 74.753 294.936 74.753L295.042 75.4994C295.042 75.4994 294.296 75.926 292.91 75.926C290.99 75.8194 289.711 74.753 289.711 72.8335Z" fill="black" fill-opacity="0.1"/>
<path d="M301.547 75.6061H300.054C299.948 74.9663 299.841 74.4331 299.628 73.7932L299.521 73.6866H297.175V73.7932C296.962 74.4331 296.856 74.9663 296.749 75.6061H295.683C296.003 74.9663 296.003 74.8596 296.216 74.3264L298.135 69.5277H299.095L301.014 74.3264C301.121 74.9663 301.227 75.0729 301.547 75.6061ZM299.201 73.2601L298.242 70.8074L297.389 73.2601H299.201Z" fill="black" fill-opacity="0.1"/>
<path d="M306.559 74.6464V75.6061H302.613C302.72 74.9663 302.72 74.6464 302.72 74.0065V71.3406C302.72 70.5941 302.72 70.2742 302.613 69.741H303.999C303.893 70.3809 303.893 70.7008 303.893 71.3406V75.0729H304.426C305.279 75.0729 305.919 74.9663 306.559 74.6464Z" fill="black" fill-opacity="0.1"/>
<path d="M314.769 73.26C314.769 74.8596 313.81 75.7127 312.317 75.7127C310.824 75.7127 309.864 74.753 309.864 73.26V71.2339C309.864 70.4875 309.864 70.1676 309.758 69.6344H311.144C311.037 70.2742 311.037 70.5941 311.037 71.2339V73.26C311.037 74.4331 311.571 75.1795 312.53 75.1795C313.49 75.1795 314.13 74.5397 314.13 73.26V71.2339C314.13 70.4875 314.13 70.1676 313.916 69.6344H314.983C314.876 70.2742 314.769 70.5941 314.769 71.2339V73.26Z" fill="black" fill-opacity="0.1"/>
<path d="M322.02 69.6344C321.913 70.2742 321.913 70.7007 321.913 72.3003V75.6061H321.167L317.541 71.3406V72.8335C317.541 74.4331 317.541 74.9663 317.755 75.6061H316.795C316.902 74.9663 316.902 74.4331 316.902 72.8335V70.8074C316.902 70.2742 316.902 70.0609 316.795 69.6344H317.541L321.273 74.0065V72.3003C321.273 70.7007 321.273 70.2742 321.06 69.6344H322.02Z" fill="black" fill-opacity="0.1"/>
<path d="M324.046 72.5136C324.046 70.914 324.046 70.1676 323.939 69.6344H325.326C325.22 70.1676 325.22 70.914 325.22 72.5136C325.22 74.3264 325.22 75.0729 325.326 75.6061H323.939C324.046 75.0729 324.046 74.3264 324.046 72.5136Z" fill="black" fill-opacity="0.1"/>
<path d="M332.362 69.6344C332.043 70.2742 331.936 70.4875 331.509 71.6605L329.91 75.6061H329.377H329.057L327.351 71.234C327.031 70.4875 326.924 70.1676 326.604 69.5277H328.097C328.097 70.1676 328.204 70.4875 328.63 71.5539L329.803 74.3264L330.87 71.5539C331.296 70.4875 331.296 70.1676 331.403 69.5277H332.362V69.6344Z" fill="black" fill-opacity="0.1"/>
<path d="M337.481 74.6463V75.6061H333.536C333.643 74.9663 333.643 74.3264 333.643 72.5136C333.643 70.914 333.643 70.1676 333.536 69.6344H337.268V70.4875C336.415 70.1676 335.775 70.1676 334.922 70.1676H334.816V72.1937C335.562 72.1937 335.989 72.1937 336.735 71.9804V72.9401C335.989 72.8335 335.562 72.7269 334.816 72.7269V75.0729H335.136C335.989 75.0729 336.735 75.0729 337.481 74.6463Z" fill="black" fill-opacity="0.1"/>
<path d="M342.599 75.6061L340.786 73.0468H340.68H340.253C340.253 74.3264 340.253 74.9663 340.36 75.6061H339.08C339.187 74.9663 339.187 74.3264 339.187 72.5136C339.187 70.914 339.187 70.1676 339.08 69.6344H341.213C342.599 69.6344 343.345 70.1676 343.345 71.2339C343.345 72.087 342.919 72.6202 342.066 72.9401L342.492 73.4733C343.239 74.4331 343.665 74.9663 344.305 75.6061H342.599ZM340.68 72.5136C341.639 72.5136 342.066 72.087 342.066 71.3406C342.066 70.5941 341.639 70.1676 340.893 70.1676H340.36V72.5136H340.68Z" fill="black" fill-opacity="0.1"/>
<path d="M345.052 75.4995V74.3264C345.052 74.3264 345.692 75.3928 346.971 75.3928C347.611 75.3928 347.931 75.0729 347.931 74.6463C347.931 74.2198 347.824 74.0065 347.291 73.6866L346.225 72.9401C345.372 72.407 345.052 71.9804 345.052 71.3406C345.052 70.3808 345.798 69.8477 347.078 69.8477C348.144 69.8477 348.784 70.1676 348.784 70.1676V71.3406C348.784 71.3406 348.144 70.4875 347.078 70.4875C346.545 70.4875 346.225 70.8074 346.225 71.2339C346.225 71.6605 346.331 71.8738 346.971 72.3003L348.037 73.0468C348.89 73.58 349.21 74.0065 349.21 74.6463C349.21 75.6061 348.464 76.2459 347.078 76.2459C345.905 75.8194 345.052 75.4995 345.052 75.4995Z" fill="black" fill-opacity="0.1"/>
<path d="M350.81 72.5136C350.81 70.914 350.81 70.1676 350.703 69.6344H352.09C351.983 70.1676 351.983 70.914 351.983 72.5136C351.983 74.3264 351.983 75.0729 352.09 75.6061H350.703C350.81 75.0729 350.81 74.3264 350.81 72.5136Z" fill="black" fill-opacity="0.1"/>
<path d="M358.38 69.6344V70.4875C357.741 70.1676 357.208 70.1676 356.781 70.1676H356.568V72.5136C356.568 74.3264 356.568 75.0729 356.674 75.6061H355.288C355.395 74.9663 355.395 74.3264 355.395 72.5136V70.1676H355.182C354.649 70.1676 354.222 70.2742 353.476 70.4875V69.6344H358.38Z" fill="black" fill-opacity="0.1"/>
<path d="M361.686 73.0468V74.0065C361.686 74.753 361.686 75.0729 361.793 75.6061H360.407C360.513 74.9663 360.513 74.6463 360.513 74.0065V73.0468L359.234 70.914C358.914 70.4875 358.807 70.2742 358.381 69.6344H359.98C360.087 70.2742 360.3 70.4875 360.833 71.3406L361.473 72.4069L362.006 71.4472C362.539 70.5941 362.646 70.2742 362.753 69.6344H363.926C363.499 70.2742 363.392 70.3808 363.073 70.914L361.686 73.0468Z" fill="black" fill-opacity="0.1"/>
<path d="M155.359 71.3406C155.359 72.6203 154.506 73.2601 152.8 73.2601H152.373C152.373 74.4331 152.373 75.0729 152.48 75.7127H151.094C151.2 75.0729 151.2 74.4331 151.2 72.6202C151.2 70.914 151.2 70.2742 151.094 69.741H153.226C154.613 69.6344 155.359 70.2742 155.359 71.3406ZM154.186 71.4472C154.186 70.7008 153.759 70.2742 153.013 70.2742H152.48V72.8335H152.8C153.653 72.7269 154.186 72.3003 154.186 71.4472Z" fill="black" fill-opacity="0.1"/>
<path d="M189.587 73.8999C189.587 75.0729 188.734 75.6061 187.028 75.6061H185.108C185.215 74.9663 185.215 74.3264 185.215 72.5136C185.215 70.8074 185.215 70.1676 185.108 69.6344H187.241C188.627 69.6344 189.267 70.0609 189.267 71.0207C189.267 71.6605 188.84 72.3003 187.881 72.5136C189.16 72.6202 189.587 73.1534 189.587 73.8999ZM186.388 70.1676V72.1937H186.814C187.667 72.1937 188.094 71.8738 188.094 71.1273C188.094 70.4875 187.668 70.1676 186.921 70.1676H186.388ZM188.414 74.0065C188.414 73.1534 187.774 72.8335 186.921 72.8335H186.495V75.1795H186.921C187.774 75.0729 188.414 74.753 188.414 74.0065Z" fill="black" fill-opacity="0.1"/>
<path d="M179.456 75.4995V74.3264C179.456 74.3264 180.096 75.3928 181.376 75.3928C182.015 75.3928 182.335 75.0729 182.335 74.6463C182.335 74.2198 182.229 74.0065 181.589 73.6866L180.523 72.9401C179.67 72.407 179.35 71.9804 179.35 71.3406C179.35 70.3808 180.096 69.8477 181.376 69.8477C182.442 69.8477 183.082 70.1676 183.082 70.1676V71.3406C183.082 71.3406 182.442 70.4875 181.376 70.4875C180.842 70.4875 180.523 70.8074 180.523 71.2339C180.523 71.6605 180.629 71.8738 181.269 72.3003L182.335 73.0468C183.188 73.58 183.508 74.0065 183.508 74.6463C183.508 75.6061 182.762 76.2459 181.376 76.2459C180.203 75.8194 179.456 75.4995 179.456 75.4995Z" fill="black" fill-opacity="0.1"/>
<path d="M171.566 74.6463V75.6061H167.621C167.728 74.9663 167.728 74.3264 167.728 72.5136C167.728 70.914 167.728 70.1676 167.621 69.6344H171.353V70.4875C170.5 70.1676 169.86 70.1676 169.007 70.1676H168.901V72.1937C169.647 72.1937 170.074 72.1937 170.82 71.9804V72.9401C170.074 72.8335 169.647 72.7269 168.901 72.7269V75.0729H169.221C170.18 75.0729 170.82 75.0729 171.566 74.6463Z" fill="black" fill-opacity="0.1"/>
<path d="M160.69 74.6463V75.6061H156.745C156.852 74.9663 156.852 74.3264 156.852 72.5136C156.852 70.914 156.852 70.1676 156.745 69.6344H160.477V70.4875C159.624 70.1676 158.984 70.1676 158.131 70.1676H158.025V72.1937C158.771 72.1937 159.198 72.1937 159.944 71.9804V72.9401C159.198 72.8335 158.771 72.7269 158.025 72.7269V75.0729H158.345C159.304 75.0729 159.944 75.0729 160.69 74.6463Z" fill="black" fill-opacity="0.1"/>
<path d="M166.235 69.6344V70.4875C165.595 70.1676 165.062 70.1676 164.636 70.1676H164.422V72.5136C164.422 74.3264 164.422 75.0729 164.529 75.6061H163.143C163.249 74.9663 163.249 74.3264 163.249 72.5136V70.1676H163.036C162.503 70.1676 162.076 70.2742 161.33 70.4875V69.6344H166.235Z" fill="black" fill-opacity="0.1"/>
<path d="M176.898 75.6061L175.085 73.0468H174.979H174.552C174.552 74.3264 174.552 74.9663 174.659 75.6061H173.272C173.379 74.9663 173.379 74.3264 173.379 72.5136C173.379 70.914 173.379 70.1676 173.272 69.6344H175.405C176.791 69.6344 177.538 70.1676 177.538 71.2339C177.538 72.087 177.111 72.6202 176.258 72.9401L176.685 73.4733C177.431 74.4331 177.858 74.9663 178.497 75.6061H176.898ZM174.872 72.5136C175.832 72.5136 176.258 72.087 176.258 71.3406C176.258 70.5941 175.832 70.1676 175.085 70.1676H174.552V72.5136H174.872Z" fill="black" fill-opacity="0.1"/>
<path d="M201.102 75.6061L199.289 73.0468H199.183H198.756C198.756 74.3264 198.756 74.9663 198.863 75.6061H197.477C197.583 74.9663 197.583 74.3264 197.583 72.5136C197.583 70.914 197.583 70.1676 197.477 69.6344H199.609C200.995 69.6344 201.742 70.1676 201.742 71.2339C201.742 72.087 201.315 72.6202 200.462 72.9401L200.889 73.4733C201.635 74.4331 202.062 74.9663 202.701 75.6061H201.102ZM199.183 72.5136C200.142 72.5136 200.569 72.087 200.569 71.3406C200.569 70.5941 200.142 70.1676 199.396 70.1676H198.863V72.5136H199.183Z" fill="black" fill-opacity="0.1"/>
<path d="M195.984 73.26C195.984 74.8596 195.025 75.7127 193.532 75.7127C192.039 75.7127 191.079 74.753 191.079 73.26V71.2339C191.079 70.4875 191.079 70.1676 190.973 69.6344H192.359C192.252 70.2742 192.252 70.5941 192.252 71.2339V73.26C192.252 74.4331 192.785 75.1795 193.745 75.1795C194.705 75.1795 195.344 74.5397 195.344 73.26V71.2339C195.344 70.4875 195.344 70.1676 195.131 69.6344H196.197C196.091 70.2742 195.984 70.5941 195.984 71.2339V73.26Z" fill="black" fill-opacity="0.1"/>
<path d="M208.887 73.0468H207.5C207.607 73.6866 207.607 74.0065 207.607 74.6464V74.9663V75.0729C207.394 75.2862 207.074 75.2862 206.754 75.2862C206.434 75.2862 206.221 75.1795 205.901 75.0729C205.688 74.9663 205.474 74.753 205.261 74.6464C205.048 74.4331 204.941 74.2198 204.835 73.8999C204.728 73.58 204.728 73.2601 204.728 72.9402C204.728 72.5136 204.728 72.1937 204.835 71.8738C205.048 71.0207 205.581 70.1676 206.754 70.1676C207.82 70.1676 208.353 70.914 208.353 70.914V69.741C208.353 69.741 207.607 69.5277 206.647 69.5277C206.008 69.5277 205.474 69.6344 204.941 69.9543C204.408 70.1676 204.088 70.5941 203.768 71.0207C203.448 71.5539 203.342 72.0871 203.342 72.8335C203.342 73.3667 203.448 73.7933 203.555 74.1132C203.768 74.5397 203.982 74.753 204.301 75.0729C204.621 75.2862 204.941 75.4995 205.368 75.6061C205.794 75.7127 206.114 75.8194 206.541 75.8194C206.861 75.8194 207.18 75.8194 207.5 75.7127C207.82 75.6061 208.247 75.4995 208.673 75.3928V74.4331C208.78 74.0065 208.887 73.6866 208.887 73.0468Z" fill="black" fill-opacity="0.1"/>
</svg>
