<svg width="326" height="77" viewBox="0 0 326 77" fill="none" xmlns="http://www.w3.org/2000/svg">
<path d="M119.399 41.4996V46.9996H97.6992C98.0992 43.6996 98.1992 39.6996 98.1992 29.6996C98.1992 20.4996 98.0992 16.8996 97.6992 13.5996H118.399V18.5996C113.599 16.7996 110.299 16.6996 105.499 16.6996H104.699V27.9996C108.799 27.9996 111.299 27.7996 115.399 26.8996V32.1996C111.299 31.2996 108.799 31.1996 104.699 31.0996V43.9996H106.499C111.499 43.9996 115.299 43.6996 119.399 41.4996Z" fill="#F0F0F0"/>
<path d="M151.4 13.7012V18.7012C147.6 17.2012 145 16.8012 142.2 16.8012H141.2V29.8012C141.2 39.8012 141.3 43.8012 141.7 47.1012H134.2C134.6 43.8012 134.7 39.8012 134.7 29.8012V16.8012H133.8C130.7 16.8012 128.2 17.2012 124.5 18.7012V13.7012H151.4Z" fill="#F0F0F0"/>
<path d="M185.901 33.9012C185.901 42.6012 180.801 47.6012 172.201 47.6012C163.701 47.6012 158.301 42.3012 158.301 33.9012V22.9012C158.301 18.9012 158.201 17.2012 157.801 13.7012H165.501C165.101 17.2012 165.001 18.8012 165.001 22.9012V33.9012C165.001 40.7012 167.901 44.3012 173.201 44.3012C178.701 44.3012 181.901 40.7012 181.901 33.9012V22.9012C181.901 18.9012 181.701 17.2012 181.001 13.7012H186.901C186.201 17.2012 186.001 18.8012 186.001 22.9012V33.9012H185.901Z" fill="#F0F0F0"/>
<path d="M264.501 41.4996V46.9996H242.801C243.201 43.6996 243.301 39.6996 243.301 29.6996C243.301 20.4996 243.201 16.8996 242.801 13.5996H263.501V18.5996C258.701 16.7996 255.401 16.6996 250.601 16.6996H249.801V27.9996C253.901 27.9996 256.401 27.7996 260.501 26.8996V32.1996C256.401 31.2996 253.901 31.1996 249.801 31.0996V43.9996H251.601C256.501 43.9996 260.301 43.6996 264.501 41.4996Z" fill="#F0F0F0"/>
<path d="M301.5 29.6996C301.5 20.4996 301.4 16.8996 301 13.5996H308.5C308.1 16.7996 308 20.4996 308 29.6996C308 39.6996 308.1 43.6996 308.5 46.9996H301C301.4 43.6996 301.5 39.6996 301.5 29.6996Z" fill="#F0F0F0"/>
<path d="M238.001 41.4996V46.9996H216.301C216.701 43.4996 216.801 41.8996 216.801 37.7996V22.7996C216.801 18.7996 216.701 17.0996 216.301 13.5996H223.801C223.301 17.0996 223.301 18.6996 223.301 22.7996V43.6996H226.001C230.601 43.6996 234.201 43.3996 238.001 41.4996Z" fill="#F0F0F0"/>
<path d="M294.502 13.7012V18.7012C290.702 17.2012 288.102 16.8012 285.302 16.8012H284.302V29.8012C284.302 39.8012 284.402 43.8012 284.802 47.1012H277.302C277.702 43.8012 277.802 39.8012 277.802 29.8012V16.8012H276.902C273.802 16.8012 271.302 17.2012 267.602 18.7012V13.7012H294.502Z" fill="#F0F0F0"/>
<path d="M45.1992 42C45.2992 43 45.3992 44.2 45.3992 47.1C45.3992 50.2 45.3992 51.5 45.1992 52.5H47.4992C47.3992 51.5 47.2992 50.2 47.2992 47.1C47.2992 44.2 47.2992 43.1 47.4992 42H45.1992Z" fill="#F0F0F0"/>
<path d="M49.6016 49.7008C49.6016 51.6008 51.0016 52.7008 53.4016 52.7008C55.9016 52.7008 57.4016 51.6008 57.4016 49.6008C57.4016 48.3008 56.7016 47.4008 55.3016 47.0008C56.4016 46.6008 57.0016 45.8008 57.0016 44.6008C57.0016 42.9008 55.7016 41.8008 53.5016 41.8008C51.2016 41.8008 49.8016 42.8008 49.8016 44.7008C49.8016 45.8008 50.4016 46.6008 51.6016 47.1008C50.3016 47.5008 49.6016 48.4008 49.6016 49.7008ZM53.5016 42.8008C54.5016 42.8008 55.0016 43.5008 55.0016 44.7008C55.0016 45.9008 54.4016 46.6008 53.6016 46.6008C52.7016 46.6008 52.1016 45.9008 52.1016 44.7008C52.0016 43.5008 52.6016 42.8008 53.5016 42.8008ZM53.5016 47.6008C54.6016 47.6008 55.3016 48.4008 55.3016 49.7008C55.3016 51.0008 54.6016 51.7008 53.6016 51.7008C52.5016 51.7008 51.8016 50.9008 51.8016 49.6008C51.8016 48.4008 52.4016 47.6008 53.5016 47.6008Z" fill="#F0F0F0"/>
<path d="M58.8984 49.7008C58.8984 51.6008 60.2984 52.7008 62.6984 52.7008C65.1984 52.7008 66.6984 51.6008 66.6984 49.6008C66.6984 48.3008 65.9984 47.4008 64.5984 47.0008C65.6984 46.6008 66.2984 45.8008 66.2984 44.6008C66.2984 42.9008 64.9984 41.8008 62.7984 41.8008C60.4984 41.8008 59.0984 42.8008 59.0984 44.7008C59.0984 45.8008 59.6984 46.6008 60.8984 47.1008C59.5984 47.5008 58.8984 48.4008 58.8984 49.7008ZM62.6984 42.8008C63.6984 42.8008 64.1984 43.5008 64.1984 44.7008C64.1984 45.9008 63.5984 46.6008 62.7984 46.6008C61.8984 46.6008 61.2984 45.9008 61.2984 44.7008C61.2984 43.5008 61.7984 42.8008 62.6984 42.8008ZM62.6984 47.6008C63.7984 47.6008 64.4984 48.4008 64.4984 49.7008C64.4984 51.0008 63.7984 51.7008 62.7984 51.7008C61.6984 51.7008 60.9984 50.9008 60.9984 49.6008C61.0984 48.4008 61.6984 47.6008 62.6984 47.6008Z" fill="#F0F0F0"/>
<path d="M72.7992 45.8008C71.5992 45.8008 70.8992 46.3008 70.3992 46.8008C70.4992 44.4008 71.1992 42.8008 72.7992 42.8008C74.0992 42.8008 74.7992 44.1008 74.7992 44.1008V42.2008C74.7992 42.2008 73.9992 41.8008 72.6992 41.8008C70.0992 41.8008 68.1992 43.8008 68.1992 47.4008C68.1992 51.0008 69.6992 52.6008 72.1992 52.6008C74.4992 52.6008 75.8992 51.2008 75.8992 48.9008C75.7992 46.9008 74.6992 45.8008 72.7992 45.8008ZM72.1992 51.7008C71.0992 51.7008 70.3992 50.8008 70.2992 48.0008C70.6992 47.6008 71.1992 47.1008 71.9992 47.1008C73.0992 47.1008 73.6992 47.8008 73.6992 49.3008C73.7992 50.8008 73.1992 51.7008 72.1992 51.7008Z" fill="#F0F0F0"/>
<path d="M65.4 11.7004C50.5 -3.19961 26.4 -3.19961 11.6 11.7004C4.4 18.9004 0.7 28.3004 0.5 37.7004V37.8004C0.5 38.2004 0.5 38.6004 0.5 39.0004C0.5 38.8004 0.5 38.7004 0.5 38.5004C0.5 41.7004 0.800001 45.0004 1.7 48.3004C6.9 68.7004 27.7 80.9004 48 75.6004C57.6 73.1004 65.3 67.2004 70.3 59.5004H70.2C65.7 66.0004 58.9 71.1004 50.6 73.2004C32 78.0004 13 66.9004 8.2 48.3004C7.3 44.8004 7 41.2004 7.2 37.7004H8.8C8.7 40.5004 9 43.4004 9.8 46.3004C14 63.0004 31 73.0004 47.7 68.7004C53.8 67.1004 58.9 63.8004 62.8 59.5004C57.8 64.2004 51.1 67.1004 43.7 67.1004C35.7 67.1004 28.5 63.7004 23.4 58.3004C23.3 58.2004 23.2 58.1004 23.1 58.0004C23 58.0004 23 57.9004 22.9 57.8004C20 54.6004 17.8 50.7004 16.7 46.2004C16 43.4004 15.7 40.5004 15.9 37.7004H17.7C17.6 40.1004 17.8 42.5004 18.4 44.9004C21.7 57.7004 34.8 65.3004 47.5 62.0004C49.7 61.4004 51.8 60.5004 53.6 59.4004H53.1C50.6 60.5004 47.8 61.1004 44.9 61.1004C33.5 61.1004 24.2 51.8004 24.2 40.4004C24.2 39.5004 24.3 38.6004 24.4 37.7004H29.8H52.2H59.5H61.4H68.5H69.8H76.5C76.3 28.3004 72.6 18.9004 65.4 11.7004ZM12.5 36.7004C13.2 32.9004 15 29.2004 18 26.2004C25.9 18.3004 38.7 18.3004 46.6 26.2004C48.6 28.2004 50.1 30.6004 51.1 33.2004L12.5 36.7004ZM58.4 32.5004C57.3 29.1004 55.4 25.8004 52.6 23.1004C43.3 13.8004 28.1 13.8004 18.8 23.1004C15 26.9004 12.8 31.7004 12.1 36.7004L6 37.2004C6.8 31.3004 9.4 25.6004 13.9 21.1004C24.8 10.2004 42.5 10.2004 53.4 21.1004C56.7 24.4004 58.9 28.2004 60.2 32.3004L58.4 32.5004ZM67.5 31.7004C66.2 26.5004 63.5 21.5004 59.4 17.4004C47.1 5.10039 27.3 5.10039 15 17.4004C9.5 22.9004 6.5 30.0004 6 37.2004L2.4 37.5004L0.5 37.6004C0.9 29.3004 4.3 21.2004 10.6 14.9004C24.1 1.40039 46.1 1.40039 59.7 15.0004C64.4 19.7004 67.5 25.5004 68.9 31.5004L67.5 31.7004Z" fill="#F0F0F0"/>
<path d="M203.501 13.7012H207.401L204.501 22.1012H201.301L203.501 13.7012ZM210.001 13.7012H214.001L210.701 22.1012H207.301L210.001 13.7012Z" fill="#F0F0F0"/>
<path d="M313.7 13.7012H317.6L314.7 22.1012H311.5L313.7 13.7012ZM320.2 13.7012H324.2L320.9 22.1012H317.5L320.2 13.7012Z" fill="#F0F0F0"/>
<path d="M108.6 61.1004C108.6 59.6004 108.6 58.9004 108.5 58.4004H109.8C109.7 58.9004 109.7 59.6004 109.7 61.1004C109.7 62.8004 109.7 63.5004 109.8 64.0004H108.5C108.6 63.5004 108.6 62.8004 108.6 61.1004Z" fill="#F0F0F0"/>
<path d="M97.6 63.8V62.7C97.6 62.7 98.2 63.7 99.4 63.7C100 63.7 100.3 63.4 100.3 63C100.3 62.6 100.2 62.4 99.6 62.1L98.6 61.4C97.8 60.9 97.5 60.5 97.5 59.9C97.5 59 98.2 58.5 99.4 58.5C100.4 58.5 101 58.8 101 58.8V59.9C101 59.9 100.4 59.1 99.4 59.1C98.9 59.1 98.6 59.4 98.6 59.8C98.6 60.2 98.7 60.4 99.3 60.8L100.3 61.5C101.1 62 101.4 62.4 101.4 63C101.4 63.9 100.7 64.5 99.4 64.5C98.3 64.1 97.6 63.8 97.6 63.8Z" fill="#F0F0F0"/>
<path d="M121.998 58.4004V59.2004C121.398 58.9004 120.898 58.9004 120.498 58.9004H120.298V61.1004C120.298 62.8004 120.298 63.5004 120.398 64.0004H119.098C119.198 63.4004 119.198 62.8004 119.198 61.1004V58.9004H118.998C118.498 58.9004 118.098 59.0004 117.398 59.2004V58.4004H121.998Z" fill="#F0F0F0"/>
<path d="M116.502 58.3008C116.402 58.9008 116.402 59.3008 116.402 60.8008V63.9008H115.702L112.302 59.9008V61.3008C112.302 62.8008 112.302 63.3008 112.502 63.9008H111.602C111.702 63.3008 111.702 62.8008 111.702 61.3008V59.4008C111.702 58.9008 111.702 58.7008 111.602 58.3008H112.302L115.802 62.4008V60.8008C115.802 59.3008 115.802 58.9008 115.602 58.3008H116.502Z" fill="#F0F0F0"/>
<path d="M107.398 63.9012H105.998C105.898 63.3012 105.798 62.8012 105.598 62.2012L105.498 62.1012H103.298V62.2012C103.098 62.8012 102.998 63.3012 102.898 63.9012H101.898C102.198 63.3012 102.198 63.2012 102.398 62.7012L104.198 58.2012H105.098L106.898 62.7012C107.098 63.3012 107.098 63.4012 107.398 63.9012ZM105.298 61.7012L104.398 59.4012L103.598 61.7012H105.298Z" fill="#F0F0F0"/>
<path d="M187.6 63.0008V63.9008H184C184.1 63.3008 184.1 62.7008 184.1 61.0008C184.1 59.5008 184.1 58.8008 184 58.3008H187.5V59.1008C186.7 58.8008 186.1 58.8008 185.3 58.8008H185.2V60.7008C185.9 60.7008 186.3 60.7008 187 60.5008V61.4008C186.3 61.3008 185.9 61.2008 185.2 61.2008V63.4008H185.5C186.3 63.4008 186.9 63.4008 187.6 63.0008Z" fill="#F0F0F0"/>
<path d="M192.802 63.0004V63.9004H189.102C189.202 63.3004 189.202 63.0004 189.202 62.4004V59.9004C189.202 59.2004 189.202 58.9004 189.102 58.4004H190.402C190.302 59.0004 190.302 59.3004 190.302 59.9004V63.4004H190.802C191.602 63.4004 192.102 63.3004 192.802 63.0004Z" fill="#F0F0F0"/>
<path d="M197.899 63.0008V63.9008H194.199C194.299 63.3008 194.299 62.7008 194.299 61.0008C194.299 59.5008 194.299 58.8008 194.199 58.3008H197.699V59.1008C196.899 58.8008 196.299 58.8008 195.499 58.8008H195.399V60.7008C196.099 60.7008 196.499 60.7008 197.199 60.5008V61.4008C196.499 61.3008 196.099 61.2008 195.399 61.2008V63.4008H195.699C196.499 63.4008 197.199 63.4008 197.899 63.0008Z" fill="#F0F0F0"/>
<path d="M199 61.3008C199 59.4008 200.3 58.3008 202.1 58.3008C203 58.3008 203.7 58.5008 203.7 58.5008V59.6008C203.7 59.6008 203.2 58.9008 202.2 58.9008C201 58.9008 200.3 59.8008 200.3 61.3008C200.3 62.8008 201 63.7008 202.3 63.7008C203.4 63.7008 203.9 63.1008 203.9 63.1008L204 63.8008C204 63.8008 203.3 64.2008 202 64.2008C200.2 64.1008 199 63.1008 199 61.3008Z" fill="#F0F0F0"/>
<path d="M209.202 58.3008V59.1008C208.602 58.8008 208.102 58.8008 207.702 58.8008H207.502V61.0008C207.502 62.7008 207.502 63.4008 207.602 63.9008H206.302C206.402 63.3008 206.402 62.7008 206.402 61.0008V58.8008H206.202C205.702 58.8008 205.302 58.9008 204.602 59.1008V58.3008H209.202Z" fill="#F0F0F0"/>
<path d="M213.798 63.9008L212.098 61.5008H211.998H211.598C211.598 62.7008 211.598 63.3008 211.698 63.9008H210.398C210.498 63.3008 210.498 62.7008 210.498 61.0008C210.498 59.5008 210.498 58.8008 210.398 58.3008H212.398C213.698 58.3008 214.398 58.8008 214.398 59.8008C214.398 60.6008 213.998 61.1008 213.198 61.4008L213.598 61.9008C214.298 62.8008 214.698 63.3008 215.298 63.9008H213.798ZM211.998 61.0008C212.898 61.0008 213.298 60.6008 213.298 59.9008C213.298 59.2008 212.898 58.8008 212.198 58.8008H211.698V61.0008H211.998Z" fill="#F0F0F0"/>
<path d="M216 61.3008C216 59.5008 217.1 58.3008 219 58.3008C220.7 58.3008 221.8 59.4008 221.8 61.2008C221.8 63.0008 220.7 64.2008 218.8 64.2008C217.1 64.1008 216 63.1008 216 61.3008ZM220.6 61.3008C220.6 59.8008 219.9 58.9008 218.9 58.9008C217.9 58.9008 217.2 59.8008 217.2 61.3008C217.2 62.8008 217.9 63.7008 218.9 63.7008C220 63.6008 220.6 62.8008 220.6 61.3008Z" fill="#F0F0F0"/>
<path d="M227.202 58.3008V59.1008C226.602 58.8008 226.102 58.8008 225.702 58.8008H225.502V61.0008C225.502 62.7008 225.502 63.4008 225.602 63.9008H224.302C224.402 63.3008 224.402 62.7008 224.402 61.0008V58.8008H224.202C223.702 58.8008 223.302 58.9008 222.602 59.1008V58.3008H227.202Z" fill="#F0F0F0"/>
<path d="M232.2 63.0008V63.9008H228.5C228.6 63.3008 228.6 62.7008 228.6 61.0008C228.6 59.5008 228.6 58.8008 228.5 58.3008H232V59.1008C231.2 58.8008 230.6 58.8008 229.8 58.8008H229.7V60.7008C230.4 60.7008 230.8 60.7008 231.5 60.5008V61.4008C230.8 61.3008 230.4 61.2008 229.7 61.2008V63.4008H230C230.9 63.4008 231.5 63.4008 232.2 63.0008Z" fill="#F0F0F0"/>
<path d="M233.301 61.3008C233.301 59.4008 234.601 58.3008 236.401 58.3008C237.301 58.3008 238.001 58.5008 238.001 58.5008V59.6008C238.001 59.6008 237.501 58.9008 236.501 58.9008C235.301 58.9008 234.601 59.8008 234.601 61.3008C234.601 62.8008 235.301 63.7008 236.601 63.7008C237.701 63.7008 238.201 63.1008 238.201 63.1008L238.301 63.8008C238.301 63.8008 237.601 64.2008 236.301 64.2008C234.501 64.1008 233.301 63.1008 233.301 61.3008Z" fill="#F0F0F0"/>
<path d="M244.4 61.0008C244.4 62.7008 244.4 63.4008 244.5 63.9008H243.2C243.3 63.4008 243.3 62.7008 243.3 61.2008H240.7C240.7 62.7008 240.7 63.3008 240.8 63.9008H239.5C239.6 63.3008 239.6 62.7008 239.6 61.0008C239.6 59.5008 239.6 58.8008 239.5 58.3008H240.8C240.7 58.8008 240.7 59.4008 240.7 60.7008H243.3C243.3 59.4008 243.3 58.8008 243.2 58.3008H244.5C244.4 58.9008 244.4 59.5008 244.4 61.0008Z" fill="#F0F0F0"/>
<path d="M251.201 58.3008C251.101 58.9008 251.101 59.3008 251.101 60.8008V63.9008H250.401L247.001 59.9008V61.3008C247.001 62.8008 247.001 63.3008 247.201 63.9008H246.301C246.401 63.3008 246.401 62.8008 246.401 61.3008V59.4008C246.401 58.9008 246.401 58.7008 246.301 58.3008H247.001L250.501 62.4008V60.8008C250.501 59.3008 250.501 58.9008 250.301 58.3008H251.201Z" fill="#F0F0F0"/>
<path d="M253.1 61.0008C253.1 59.5008 253.1 58.8008 253 58.3008H254.3C254.2 58.8008 254.2 59.5008 254.2 61.0008C254.2 62.7008 254.2 63.4008 254.3 63.9008H253C253.1 63.4008 253.1 62.7008 253.1 61.0008Z" fill="#F0F0F0"/>
<path d="M255.699 61.3008C255.699 59.4008 256.999 58.3008 258.799 58.3008C259.699 58.3008 260.399 58.5008 260.399 58.5008V59.6008C260.399 59.6008 259.899 58.9008 258.899 58.9008C257.699 58.9008 256.999 59.8008 256.999 61.3008C256.999 62.8008 257.699 63.7008 258.999 63.7008C260.099 63.7008 260.599 63.1008 260.599 63.1008L260.699 63.8008C260.699 63.8008 259.999 64.2008 258.699 64.2008C256.899 64.1008 255.699 63.1008 255.699 61.3008Z" fill="#F0F0F0"/>
<path d="M266.801 63.9012H265.401C265.301 63.3012 265.201 62.8012 265.001 62.2012L264.901 62.1012H262.701V62.2012C262.501 62.8012 262.401 63.3012 262.301 63.9012H261.301C261.601 63.3012 261.601 63.2012 261.801 62.7012L263.601 58.2012H264.501L266.301 62.7012C266.401 63.3012 266.501 63.4012 266.801 63.9012ZM264.601 61.7012L263.701 59.4012L262.901 61.7012H264.601Z" fill="#F0F0F0"/>
<path d="M271.501 63.0004V63.9004H267.801C267.901 63.3004 267.901 63.0004 267.901 62.4004V59.9004C267.901 59.2004 267.901 58.9004 267.801 58.4004H269.101C269.001 59.0004 269.001 59.3004 269.001 59.9004V63.4004H269.501C270.301 63.4004 270.901 63.3004 271.501 63.0004Z" fill="#F0F0F0"/>
<path d="M279.2 61.7008C279.2 63.2008 278.3 64.0008 276.9 64.0008C275.5 64.0008 274.6 63.1008 274.6 61.7008V59.8008C274.6 59.1008 274.6 58.8008 274.5 58.3008H275.8C275.7 58.9008 275.7 59.2008 275.7 59.8008V61.7008C275.7 62.8008 276.2 63.5008 277.1 63.5008C278 63.5008 278.6 62.9008 278.6 61.7008V59.8008C278.6 59.1008 278.6 58.8008 278.4 58.3008H279.4C279.3 58.9008 279.2 59.2008 279.2 59.8008V61.7008Z" fill="#F0F0F0"/>
<path d="M286.002 58.3008C285.902 58.9008 285.902 59.3008 285.902 60.8008V63.9008H285.202L281.802 59.9008V61.3008C281.802 62.8008 281.802 63.3008 282.002 63.9008H281.102C281.202 63.3008 281.202 62.8008 281.202 61.3008V59.4008C281.202 58.9008 281.202 58.7008 281.102 58.3008H281.802L285.302 62.4008V60.8008C285.302 59.3008 285.302 58.9008 285.102 58.3008H286.002Z" fill="#F0F0F0"/>
<path d="M287.901 61.0008C287.901 59.5008 287.901 58.8008 287.801 58.3008H289.101C289.001 58.8008 289.001 59.5008 289.001 61.0008C289.001 62.7008 289.001 63.4008 289.101 63.9008H287.801C287.901 63.4008 287.901 62.7008 287.901 61.0008Z" fill="#F0F0F0"/>
<path d="M295.701 58.3012C295.401 58.9012 295.301 59.1012 294.901 60.2012L293.401 63.9012H292.901H292.601L291.001 59.8012C290.701 59.1012 290.601 58.8012 290.301 58.2012H291.701C291.701 58.8012 291.801 59.1012 292.201 60.1012L293.301 62.7012L294.301 60.1012C294.701 59.1012 294.701 58.8012 294.801 58.2012H295.701V58.3012Z" fill="#F0F0F0"/>
<path d="M300.501 63.0008V63.9008H296.801C296.901 63.3008 296.901 62.7008 296.901 61.0008C296.901 59.5008 296.901 58.8008 296.801 58.3008H300.301V59.1008C299.501 58.8008 298.901 58.8008 298.101 58.8008H298.001V60.7008C298.701 60.7008 299.101 60.7008 299.801 60.5008V61.4008C299.101 61.3008 298.701 61.2008 298.001 61.2008V63.4008H298.301C299.101 63.4008 299.801 63.4008 300.501 63.0008Z" fill="#F0F0F0"/>
<path d="M305.3 63.9008L303.6 61.5008H303.5H303.1C303.1 62.7008 303.1 63.3008 303.2 63.9008H302C302.1 63.3008 302.1 62.7008 302.1 61.0008C302.1 59.5008 302.1 58.8008 302 58.3008H304C305.3 58.3008 306 58.8008 306 59.8008C306 60.6008 305.6 61.1008 304.8 61.4008L305.2 61.9008C305.9 62.8008 306.3 63.3008 306.9 63.9008H305.3ZM303.5 61.0008C304.4 61.0008 304.8 60.6008 304.8 59.9008C304.8 59.2008 304.4 58.8008 303.7 58.8008H303.2V61.0008H303.5Z" fill="#F0F0F0"/>
<path d="M307.602 63.8V62.7C307.602 62.7 308.202 63.7 309.402 63.7C310.002 63.7 310.302 63.4 310.302 63C310.302 62.6 310.202 62.4 309.702 62.1L308.702 61.4C307.902 60.9 307.602 60.5 307.602 59.9C307.602 59 308.302 58.5 309.502 58.5C310.502 58.5 311.102 58.8 311.102 58.8V59.9C311.102 59.9 310.502 59.1 309.502 59.1C309.002 59.1 308.702 59.4 308.702 59.8C308.702 60.2 308.802 60.4 309.402 60.8L310.402 61.5C311.202 62 311.502 62.4 311.502 63C311.502 63.9 310.802 64.5 309.502 64.5C308.402 64.1 307.602 63.8 307.602 63.8Z" fill="#F0F0F0"/>
<path d="M312.998 61.0008C312.998 59.5008 312.998 58.8008 312.898 58.3008H314.198C314.098 58.8008 314.098 59.5008 314.098 61.0008C314.098 62.7008 314.098 63.4008 314.198 63.9008H312.898C312.998 63.4008 312.998 62.7008 312.998 61.0008Z" fill="#F0F0F0"/>
<path d="M320.1 58.3008V59.1008C319.5 58.8008 319 58.8008 318.6 58.8008H318.4V61.0008C318.4 62.7008 318.4 63.4008 318.5 63.9008H317.2C317.3 63.3008 317.3 62.7008 317.3 61.0008V58.8008H317.1C316.6 58.8008 316.2 58.9008 315.5 59.1008V58.3008H320.1Z" fill="#F0F0F0"/>
<path d="M323.202 61.5008V62.4008C323.202 63.1008 323.202 63.4008 323.302 63.9008H322.002C322.102 63.3008 322.102 63.0008 322.102 62.4008V61.5008L320.902 59.5008C320.602 59.1008 320.502 58.9008 320.102 58.3008H321.602C321.702 58.9008 321.902 59.1008 322.402 59.9008L323.002 60.9008L323.502 60.0008C324.002 59.2008 324.102 58.9008 324.202 58.3008H325.302C324.902 58.9008 324.802 59.0008 324.502 59.5008L323.202 61.5008Z" fill="#F0F0F0"/>
<path d="M129.699 59.8995C129.699 61.0995 128.899 61.6995 127.299 61.6995H126.899C126.899 62.7995 126.899 63.3995 126.999 63.9995H125.699C125.799 63.3995 125.799 62.7995 125.799 61.0995C125.799 59.4995 125.799 58.8995 125.699 58.3995H127.699C128.999 58.2995 129.699 58.8995 129.699 59.8995ZM128.599 59.9995C128.599 59.2995 128.199 58.8995 127.499 58.8995H126.999V61.2995H127.299C128.099 61.1995 128.599 60.7995 128.599 59.9995Z" fill="#F0F0F0"/>
<path d="M161.802 62.3008C161.802 63.4008 161.002 63.9008 159.402 63.9008H157.602C157.702 63.3008 157.702 62.7008 157.702 61.0008C157.702 59.4008 157.702 58.8008 157.602 58.3008H159.602C160.902 58.3008 161.502 58.7008 161.502 59.6008C161.502 60.2008 161.102 60.8008 160.202 61.0008C161.402 61.1008 161.802 61.6008 161.802 62.3008ZM158.802 58.8008V60.7008H159.202C160.002 60.7008 160.402 60.4008 160.402 59.7008C160.402 59.1008 160.002 58.8008 159.302 58.8008H158.802ZM160.702 62.4008C160.702 61.6008 160.102 61.3008 159.302 61.3008H158.902V63.5008H159.302C160.102 63.4008 160.702 63.1008 160.702 62.4008Z" fill="#F0F0F0"/>
<path d="M152.299 63.8V62.7C152.299 62.7 152.899 63.7 154.099 63.7C154.699 63.7 154.999 63.4 154.999 63C154.999 62.6 154.899 62.4 154.299 62.1L153.299 61.4C152.499 60.9 152.199 60.5 152.199 59.9C152.199 59 152.899 58.5 154.099 58.5C155.099 58.5 155.699 58.8 155.699 58.8V59.9C155.699 59.9 155.099 59.1 154.099 59.1C153.599 59.1 153.299 59.4 153.299 59.8C153.299 60.2 153.399 60.4 153.999 60.8L154.999 61.5C155.799 62 156.099 62.4 156.099 63C156.099 63.9 155.399 64.5 154.099 64.5C152.999 64.1 152.299 63.8 152.299 63.8Z" fill="#F0F0F0"/>
<path d="M144.899 63.0008V63.9008H141.199C141.299 63.3008 141.299 62.7008 141.299 61.0008C141.299 59.5008 141.299 58.8008 141.199 58.3008H144.699V59.1008C143.899 58.8008 143.299 58.8008 142.499 58.8008H142.399V60.7008C143.099 60.7008 143.499 60.7008 144.199 60.5008V61.4008C143.499 61.3008 143.099 61.2008 142.399 61.2008V63.4008H142.699C143.599 63.4008 144.199 63.4008 144.899 63.0008Z" fill="#F0F0F0"/>
<path d="M134.7 63.0008V63.9008H131C131.1 63.3008 131.1 62.7008 131.1 61.0008C131.1 59.5008 131.1 58.8008 131 58.3008H134.5V59.1008C133.7 58.8008 133.1 58.8008 132.3 58.8008H132.2V60.7008C132.9 60.7008 133.3 60.7008 134 60.5008V61.4008C133.3 61.3008 132.9 61.2008 132.2 61.2008V63.4008H132.5C133.4 63.4008 134 63.4008 134.7 63.0008Z" fill="#F0F0F0"/>
<path d="M139.901 58.3008V59.1008C139.301 58.8008 138.801 58.8008 138.401 58.8008H138.201V61.0008C138.201 62.7008 138.201 63.4008 138.301 63.9008H137.001C137.101 63.3008 137.101 62.7008 137.101 61.0008V58.8008H136.901C136.401 58.8008 136.001 58.9008 135.301 59.1008V58.3008H139.901Z" fill="#F0F0F0"/>
<path d="M149.9 63.9008L148.2 61.5008H148.1H147.7C147.7 62.7008 147.7 63.3008 147.8 63.9008H146.5C146.6 63.3008 146.6 62.7008 146.6 61.0008C146.6 59.5008 146.6 58.8008 146.5 58.3008H148.5C149.8 58.3008 150.5 58.8008 150.5 59.8008C150.5 60.6008 150.1 61.1008 149.3 61.4008L149.7 61.9008C150.4 62.8008 150.8 63.3008 151.4 63.9008H149.9ZM148 61.0008C148.9 61.0008 149.3 60.6008 149.3 59.9008C149.3 59.2008 148.9 58.8008 148.2 58.8008H147.7V61.0008H148Z" fill="#F0F0F0"/>
<path d="M172.599 63.9008L170.899 61.5008H170.799H170.399C170.399 62.7008 170.399 63.3008 170.499 63.9008H169.199C169.299 63.3008 169.299 62.7008 169.299 61.0008C169.299 59.5008 169.299 58.8008 169.199 58.3008H171.199C172.499 58.3008 173.199 58.8008 173.199 59.8008C173.199 60.6008 172.799 61.1008 171.999 61.4008L172.399 61.9008C173.099 62.8008 173.499 63.3008 174.099 63.9008H172.599ZM170.799 61.0008C171.699 61.0008 172.099 60.6008 172.099 59.9008C172.099 59.2008 171.699 58.8008 170.999 58.8008H170.499V61.0008H170.799Z" fill="#F0F0F0"/>
<path d="M167.802 61.7008C167.802 63.2008 166.902 64.0008 165.502 64.0008C164.102 64.0008 163.202 63.1008 163.202 61.7008V59.8008C163.202 59.1008 163.202 58.8008 163.102 58.3008H164.402C164.302 58.9008 164.302 59.2008 164.302 59.8008V61.7008C164.302 62.8008 164.802 63.5008 165.702 63.5008C166.602 63.5008 167.202 62.9008 167.202 61.7008V59.8008C167.202 59.1008 167.202 58.8008 167.002 58.3008H168.002C167.902 58.9008 167.802 59.2008 167.802 59.8008V61.7008Z" fill="#F0F0F0"/>
<path d="M179.899 61.5012H178.599C178.699 62.1012 178.699 62.4012 178.699 63.0012V63.3012V63.4012C178.499 63.6012 178.199 63.6012 177.899 63.6012C177.599 63.6012 177.399 63.5012 177.099 63.4012C176.899 63.3012 176.699 63.1012 176.499 63.0012C176.299 62.8012 176.199 62.6012 176.099 62.3012C175.999 62.0012 175.999 61.7012 175.999 61.4012C175.999 61.0012 175.999 60.7012 176.099 60.4012C176.299 59.6012 176.799 58.8012 177.899 58.8012C178.899 58.8012 179.399 59.5012 179.399 59.5012V58.4012C179.399 58.4012 178.699 58.2012 177.799 58.2012C177.199 58.2012 176.699 58.3012 176.199 58.6012C175.699 58.8012 175.399 59.2012 175.099 59.6012C174.799 60.1012 174.699 60.6012 174.699 61.3012C174.699 61.8012 174.799 62.2012 174.899 62.5012C175.099 62.9012 175.299 63.1012 175.599 63.4012C175.899 63.6012 176.199 63.8012 176.599 63.9012C176.999 64.0012 177.299 64.1012 177.699 64.1012C177.999 64.1012 178.299 64.1012 178.599 64.0012C178.899 63.9012 179.299 63.8012 179.699 63.7012V62.8012C179.799 62.4012 179.899 62.1012 179.899 61.5012Z" fill="#F0F0F0"/>
</svg>
