<svg width="371" height="286" viewBox="0 0 371 286" fill="none" xmlns="http://www.w3.org/2000/svg">
<path d="M9.37263 1.5H361.627C362.661 1.5 363.685 1.70352 364.64 2.09891C365.596 2.49429 366.464 3.07379 367.195 3.80426C367.926 4.53473 368.505 5.40184 368.901 6.35606C369.296 7.3103 369.5 8.33302 369.5 9.36585V222.5H1.5V9.36585C1.5 7.28004 2.32916 5.27947 3.80545 3.80425C5.28177 2.329 7.28433 1.5 9.37263 1.5Z" fill="white" stroke="#020202" stroke-width="3"/>
<rect x="10" y="15" width="114" height="94" rx="4" fill="url(#paint0_angular_272_938)" fill-opacity="0.7"/>
<path d="M86.4788 44H48.5185C47.8159 44.0019 47.1429 44.2603 46.6468 44.7186C46.1508 45.1768 45.8721 45.7979 45.8721 46.445V69.8326C45.87 70.4805 46.148 71.1024 46.6444 71.561C47.1411 72.0199 47.8153 72.2776 48.5185 72.2776H63.9017L62.7315 78.7304H61.1141C60.7628 78.765 60.4964 79.0382 60.4964 79.3634C60.4964 79.6889 60.7628 79.9618 61.1141 79.9963H73.8749C74.0698 80.0157 74.2644 79.9576 74.4102 79.8368C74.556 79.7163 74.6395 79.5442 74.6395 79.3634C74.6395 79.1828 74.556 79.0107 74.4102 78.8899C74.2644 78.7691 74.0698 78.7113 73.8749 78.7304H72.3044L71.1342 72.2776H86.4788C87.182 72.2776 87.8562 72.0199 88.3529 71.561C88.8493 71.1024 89.1273 70.4804 89.1252 69.8326V46.445C89.1252 45.7978 88.8465 45.1768 88.3505 44.7185C87.8544 44.2603 87.1813 44.0019 86.4788 44ZM48.5185 45.2659H86.4788C87.1827 45.2698 87.751 45.7965 87.751 46.445V67.1341H47.2464V46.445C47.2464 45.7965 47.8147 45.2698 48.5186 45.2659H48.5185ZM70.8748 78.7298H64.1215L65.2917 72.277H69.705L70.8748 78.7298ZM86.4779 71.0111H48.5176C47.8136 71.0072 47.2453 70.4805 47.2453 69.832L47.2464 67.1341H87.751L87.7499 69.832C87.7499 70.4805 87.1817 71.0072 86.4777 71.0111H86.4779Z" fill="white"/>
<path d="M47.2188 67.6437V66.2368H87.7349V67.6437H47.2188Z" fill="white"/>
<rect x="129" y="15" width="114" height="94" rx="4" fill="url(#paint1_angular_272_938)" fill-opacity="0.7"/>
<rect x="248" y="15" width="114" height="94" rx="4" fill="url(#paint2_angular_272_938)" fill-opacity="0.7"/>
<path d="M311.973 79.9997C314.28 79.9997 316.157 78.2547 316.157 76.1095L316.157 47.8902C316.157 45.7454 314.28 44 311.973 44L299.038 44.0003C296.731 44.0003 294.854 45.7453 294.854 47.8905V76.1098C294.854 78.2546 296.73 80 299.038 80L311.973 79.9997ZM295.768 76.1098V47.8898C295.768 46.2138 297.235 44.8502 299.037 44.8502H311.973C313.775 44.8502 315.242 46.2138 315.242 47.8898V76.1091C315.242 77.7851 313.775 79.1487 311.973 79.1487L299.037 79.149C297.235 79.149 295.768 77.7852 295.768 76.1094V76.1098Z" fill="white" stroke="white" stroke-width="0.8"/>
<path d="M302.447 47.4548H308.563C308.816 47.4548 309.021 47.2643 309.021 47.0296C309.021 46.795 308.816 46.6045 308.563 46.6045H302.447C302.195 46.6045 301.99 46.795 301.99 47.0296C301.99 47.2643 302.195 47.4548 302.447 47.4548Z" fill="white" stroke="white" stroke-width="0.8"/>
<path d="M305.504 73.4976C304.35 73.4976 303.412 74.3724 303.412 75.447C303.412 76.5216 304.35 77.3958 305.504 77.3958C306.659 77.3958 307.6 76.5215 307.6 75.447C307.6 74.3724 306.659 73.4976 305.504 73.4976ZM305.504 76.5456C304.854 76.5456 304.327 76.0528 304.327 75.447C304.327 74.8406 304.855 74.3479 305.504 74.3479C306.155 74.3479 306.685 74.8407 306.685 75.447C306.685 76.0528 306.155 76.5456 305.504 76.5456Z" fill="white" stroke="white" stroke-width="0.8"/>
<rect x="10" y="115" width="114" height="94" rx="4" fill="url(#paint3_angular_272_938)" fill-opacity="0.7"/>
<rect x="129" y="115" width="114" height="94" rx="4" fill="url(#paint4_angular_272_938)" fill-opacity="0.7"/>
<path d="M186.433 173.4C182.185 173.4 178.111 171.851 175.106 169.094C172.102 166.338 170.414 162.599 170.414 158.7C170.414 154.801 172.102 151.063 175.106 148.305C178.11 145.549 182.185 144 186.433 144C190.682 144 194.756 145.549 197.761 148.305C200.765 151.062 202.453 154.801 202.453 158.7C202.447 162.597 200.758 166.333 197.755 169.089C194.752 171.845 190.681 173.395 186.433 173.4L186.433 173.4ZM186.433 145.201C182.532 145.201 178.79 146.623 176.031 149.155C173.272 151.686 171.722 155.12 171.722 158.7C171.722 162.28 173.272 165.714 176.031 168.246C178.79 170.777 182.532 172.2 186.433 172.2C190.335 172.2 194.077 170.777 196.836 168.246C199.595 165.714 201.145 162.28 201.145 158.7C201.139 155.121 199.588 151.69 196.83 149.159C194.072 146.628 190.333 145.205 186.433 145.2L186.433 145.201Z" fill="white"/>
<path d="M186.433 166.8C184.005 166.8 181.677 165.915 179.96 164.34C178.244 162.765 177.279 160.628 177.279 158.4C177.279 156.173 178.244 154.036 179.96 152.461C181.677 150.885 184.005 150 186.433 150C188.861 150 191.189 150.885 192.906 152.461C194.622 154.036 195.587 156.173 195.587 158.4C195.587 160.628 194.622 162.765 192.906 164.34C191.189 165.915 188.861 166.8 186.433 166.8ZM186.433 151.2C184.352 151.2 182.356 151.959 180.885 153.309C179.414 154.66 178.587 156.491 178.587 158.4C178.587 160.31 179.414 162.141 180.885 163.491C182.357 164.841 184.352 165.6 186.433 165.6C188.514 165.6 190.51 164.842 191.981 163.491C193.452 162.141 194.279 160.31 194.279 158.4C194.279 156.491 193.452 154.659 191.981 153.309C190.509 151.959 188.514 151.2 186.433 151.2Z" fill="white"/>
<path d="M186.435 164.401C184.701 164.401 183.038 163.768 181.812 162.643C180.585 161.518 179.896 159.992 179.896 158.401C179.896 156.809 180.585 155.283 181.812 154.158C183.038 153.033 184.701 152.401 186.435 152.401C188.169 152.401 189.832 153.033 191.058 154.158C192.284 155.283 192.973 156.809 192.973 158.401C192.973 159.992 192.284 161.518 191.058 162.643C189.832 163.768 188.169 164.401 186.435 164.401ZM186.435 153.601C185.048 153.601 183.717 154.107 182.736 155.007C181.755 155.907 181.204 157.128 181.204 158.401C181.204 159.674 181.755 160.895 182.736 161.795C183.717 162.695 185.048 163.201 186.435 163.201C187.822 163.201 189.153 162.695 190.133 161.795C191.114 160.895 191.666 159.674 191.666 158.401C191.666 157.128 191.114 155.907 190.133 155.007C189.153 154.107 187.822 153.601 186.435 153.601Z" fill="white"/>
<path d="M187.09 147.6C187.09 147.931 186.797 148.2 186.436 148.2C186.075 148.2 185.782 147.931 185.782 147.6C185.782 147.269 186.075 147 186.436 147C186.797 147 187.09 147.269 187.09 147.6Z" fill="white"/>
<path d="M205.395 179.999H167.472C167.246 179.999 167.035 179.89 166.917 179.713C166.798 179.536 166.788 179.315 166.89 179.13L167.988 177.114H167.989C169.041 175.192 170.902 173.747 173.141 173.112C175.1 172.544 177.217 172.657 179.091 173.43C181.395 174.397 183.899 174.898 186.433 174.898C188.967 174.898 191.472 174.397 193.776 173.43C195.649 172.657 197.767 172.544 199.726 173.112C201.965 173.747 203.826 175.192 204.878 177.114L205.976 179.13H205.977C206.079 179.315 206.068 179.536 205.95 179.713C205.831 179.89 205.621 179.999 205.395 179.999H205.395ZM168.532 178.8H204.336L203.682 177.654C202.79 176.025 201.212 174.801 199.314 174.264C197.662 173.783 195.875 173.877 194.293 174.528C191.817 175.567 189.127 176.105 186.404 176.105C183.682 176.105 180.992 175.567 178.516 174.528C176.934 173.877 175.146 173.783 173.494 174.264C171.596 174.801 170.019 176.025 169.127 177.654L168.532 178.8Z" fill="white"/>
<rect x="248" y="115" width="114" height="94" rx="4" fill="url(#paint5_angular_272_938)" fill-opacity="0.7"/>
<path d="M180.82 65.4385C180.12 64.6501 178.951 64.5715 178.172 65.2021C177.393 65.9114 177.315 67.0939 177.939 67.8818L179.808 70.1672C167.813 69.6944 160.413 67.8818 157.297 66.3841C156.362 65.9113 156.362 64.7287 157.297 64.2559C159.199 63.3293 162.628 62.3384 167.587 61.5746C168.517 61.4312 169.215 60.6371 169.215 59.6954C169.215 58.5612 168.218 57.6829 167.096 57.853C159.278 59.0394 152 61.2313 152 65.2807C152 72.059 171.863 73.6352 180.353 73.9509L177.549 76.7884C176.848 77.4976 176.848 78.7588 177.549 79.4681C178.25 80.1773 179.497 80.1773 180.198 79.4681L185.572 74.1087C186.273 73.3995 186.352 72.1383 185.728 71.2713C184.404 69.695 182.222 67.0939 180.82 65.4385Z" fill="white"/>
<path d="M204.906 57.8535C203.784 57.683 202.786 58.5621 202.786 59.6972C202.786 60.6383 203.482 61.4324 204.411 61.5772C209.316 62.3411 212.804 63.3307 214.704 64.2559C215.638 64.7287 215.638 65.9899 214.704 66.3841C211.51 67.9603 203.487 69.8523 190.634 70.2463C189.621 70.2463 188.765 71.1134 188.765 72.2168C188.765 73.2416 189.622 74.1086 190.634 74.0295C198.424 73.7931 220 72.4533 220 65.3592C220 61.2385 212.724 59.0409 204.906 57.8535Z" fill="white"/>
<path d="M175.676 57.5575C176.143 57.3211 176.533 57.0055 176.844 56.6904C177.467 56.0598 177.779 55.1142 177.779 54.0108C177.779 52.8287 177.389 51.8039 176.532 51.0946C175.675 50.3062 174.429 49.9126 172.794 49.9126C171.781 49.9126 170.846 50.0704 169.989 50.3854C169.21 50.7005 168.509 51.0947 167.964 51.5675C167.79 51.6995 167.752 51.9453 167.877 52.1241L168.753 53.3754C168.875 53.5502 169.118 53.5883 169.288 53.4592C169.834 53.1442 170.379 52.8286 170.924 52.5922C171.47 52.3558 172.093 52.2772 172.794 52.2772C173.495 52.2772 174.118 52.435 174.508 52.75C174.897 53.065 175.053 53.5384 175.053 54.0898C175.053 54.7991 174.82 55.3511 174.274 55.8238C173.729 56.2966 172.872 56.5331 171.781 56.5331H171.094C170.441 56.5331 169.912 57.0624 169.912 57.7154C169.912 58.3684 170.441 58.8978 171.094 58.8978H171.703C172.949 58.8978 173.884 59.0556 174.585 59.4498C175.208 59.7648 175.442 60.3168 175.442 61.1052C175.442 61.8936 175.208 62.5237 174.663 62.997C174.117 63.4698 173.261 63.7062 172.092 63.7062C171.469 63.7062 170.768 63.6276 170.145 63.4698C169.444 63.312 168.821 63.0756 168.197 62.7606C167.912 62.6162 167.574 62.8238 167.574 63.1439V64.8C167.574 64.9473 167.668 65.0782 167.808 65.1252C168.431 65.4402 169.132 65.6772 169.833 65.8344C170.534 65.9922 171.235 65.9922 172.014 65.9922C173.338 65.9922 174.507 65.7558 175.363 65.3616C176.298 64.9674 176.921 64.3368 177.388 63.6276C177.856 62.9183 178.011 62.0514 178.011 61.1051C178.011 60.0017 177.7 59.1347 176.999 58.4254C176.845 58.1093 176.299 57.7943 175.676 57.5573L175.676 57.5575Z" fill="white"/>
<path d="M185.568 55.7439C184.634 55.7439 183.855 55.9017 183.231 56.2959C182.92 56.4536 182.686 56.6109 182.452 56.8478C182.53 56.4536 182.608 56.0594 182.686 55.6658C182.842 54.9566 183.075 54.4046 183.387 53.8531C183.698 53.3803 184.166 52.9861 184.711 52.6711C185.49 52.2769 186.58 52.1191 187.749 52.2769C188.052 52.3179 188.294 52.3555 188.528 52.4347C188.801 52.5136 189.073 52.3088 189.073 52.0246V50.5478C189.073 50.3589 188.945 50.1943 188.762 50.148C188.528 50.0694 188.261 49.9853 187.844 49.9451C187.496 49.9116 187.127 49.9116 186.815 49.9116C185.335 49.9116 184.166 50.148 183.231 50.7C182.297 51.252 181.518 51.9612 181.05 52.8283C180.505 53.6953 180.193 54.72 179.96 55.7444C179.804 56.7692 179.648 57.8726 179.648 58.9761C179.648 60.5523 179.882 61.8135 180.349 62.8383C180.817 63.8631 181.518 64.651 182.297 65.203C183.076 65.6758 184.01 65.9914 185.023 65.9914C186.581 65.9914 187.827 65.5186 188.762 64.4937C189.697 63.548 190.164 62.2083 190.164 60.5528C190.164 58.9766 189.697 57.7939 188.84 56.9269C188.061 56.1379 186.97 55.7437 185.568 55.7437L185.568 55.7439ZM187.593 60.631C187.593 61.7344 187.36 62.5228 186.892 62.9957C186.425 63.4686 185.802 63.7049 185.101 63.7049C184.478 63.7049 184.011 63.5471 183.621 63.2321C183.231 62.9171 182.92 62.4437 182.686 61.9709C182.453 61.4189 182.375 60.8675 182.375 60.3154C182.375 59.9212 182.453 59.6062 182.686 59.212C182.92 58.8178 183.232 58.5028 183.699 58.2663C184.089 58.0299 184.634 57.8721 185.179 57.8721C186.036 57.8721 186.581 58.1086 187.049 58.5814C187.437 59.1334 187.593 59.8427 187.593 60.631Z" fill="white"/>
<path d="M200.685 52.1185C199.828 50.6208 198.426 49.9116 196.634 49.9116C195.388 49.9116 194.297 50.2267 193.519 50.9364C192.74 51.567 192.195 52.5126 191.805 53.7739C191.494 54.9559 191.338 56.3749 191.338 58.0298C191.338 60.473 191.727 62.4434 192.584 63.8624C193.441 65.3601 194.843 66.0694 196.635 66.0694C197.881 66.0694 198.972 65.7543 199.75 65.0445C200.53 64.4139 201.075 63.4683 201.464 62.2071C201.775 61.0251 202.01 59.6061 202.01 57.9512C202.009 55.5074 201.542 53.537 200.685 52.1185ZM199.361 58.0299C199.361 60.0003 199.127 61.498 198.66 62.4436C198.27 63.3106 197.569 63.7048 196.635 63.7048C195.7 63.7048 194.999 63.3106 194.61 62.4436C194.142 61.4979 193.986 60.0003 193.986 58.0299C193.986 56.0594 194.22 54.5617 194.61 53.6162C194.999 52.7492 195.622 52.355 196.635 52.355C197.569 52.355 198.193 52.7492 198.66 53.6162C199.127 54.5619 199.361 56.0594 199.361 58.0299Z" fill="white"/>
<path d="M202.633 50.1478C200.997 50.1478 199.595 48.808 199.595 47.0739C199.595 45.3399 200.919 44 202.633 44C204.269 44 205.67 45.3398 205.67 47.0739C205.67 48.8079 204.268 50.1478 202.633 50.1478ZM202.633 45.6549C201.853 45.6549 201.231 46.2855 201.231 47.0733C201.231 47.8617 201.854 48.4918 202.633 48.4918C203.412 48.4918 204.034 47.8612 204.034 47.0733C204.034 46.2855 203.411 45.6549 202.633 45.6549Z" fill="white"/>
<path d="M61.8205 165.439C61.1196 164.65 59.9509 164.572 59.1722 165.202C58.3931 165.911 58.3154 167.094 58.9386 167.882L60.8082 170.167C48.8128 169.694 41.4126 167.882 38.2968 166.384C37.3622 165.911 37.3622 164.729 38.2968 164.256C40.1985 163.329 43.6284 162.338 48.5868 161.575C49.5175 161.431 50.2146 160.637 50.2146 159.695C50.2146 158.561 49.2176 157.683 48.0962 157.853C40.2776 159.039 33 161.231 33 165.281C33 172.059 52.863 173.635 61.3534 173.951L58.5492 176.788C57.8483 177.498 57.8483 178.759 58.5492 179.468C59.2502 180.177 60.4966 180.177 61.1975 179.468L66.5723 174.109C67.2733 173.399 67.3515 172.138 66.7283 171.271C65.4036 169.695 63.2223 167.094 61.8205 165.439Z" fill="white"/>
<path d="M85.9059 157.853C84.7836 157.683 83.7857 158.562 83.7857 159.697C83.7857 160.638 84.4815 161.432 85.4114 161.577C90.316 162.341 93.8038 163.331 95.7035 164.256C96.6381 164.729 96.6381 165.99 95.7035 166.384C92.5097 167.96 84.4866 169.852 71.6342 170.246C70.6215 170.246 69.7646 171.113 69.7646 172.217C69.7646 173.242 70.6215 174.109 71.6342 174.029C79.4237 173.793 101 172.453 101 165.359C101 161.238 93.7236 159.041 85.9059 157.853Z" fill="white"/>
<path d="M56.676 157.557C57.1433 157.321 57.5329 157.005 57.8442 156.69C58.4674 156.06 58.7788 155.114 58.7788 154.011C58.7788 152.829 58.3892 151.804 57.5323 151.095C56.6755 150.306 55.429 149.913 53.7936 149.913C52.7808 149.913 51.8462 150.07 50.9894 150.385C50.2102 150.7 49.5092 151.095 48.9643 151.567C48.7904 151.699 48.7519 151.945 48.8771 152.124L49.7529 153.375C49.8753 153.55 50.1184 153.588 50.2884 153.459C50.8339 153.144 51.3789 152.829 51.9244 152.592C52.47 152.356 53.0926 152.277 53.794 152.277C54.495 152.277 55.1182 152.435 55.5077 152.75C55.8973 153.065 56.0532 153.538 56.0532 154.09C56.0532 154.799 55.8196 155.351 55.2741 155.824C54.7285 156.297 53.8723 156.533 52.7812 156.533H52.0939C51.4409 156.533 50.9116 157.062 50.9116 157.715C50.9116 158.368 51.4409 158.898 52.0939 158.898H52.703C53.9494 158.898 54.884 159.056 55.5849 159.45C56.2082 159.765 56.4418 160.317 56.4418 161.105C56.4418 161.894 56.2082 162.524 55.6626 162.997C55.1171 163.47 54.2608 163.706 53.0921 163.706C52.4689 163.706 51.768 163.628 51.1448 163.47C50.4439 163.312 49.8207 163.076 49.1974 162.761C48.9118 162.616 48.5742 162.824 48.5742 163.144V164.8C48.5742 164.947 48.6683 165.078 48.8079 165.125C49.4311 165.44 50.132 165.677 50.833 165.834C51.5339 165.992 52.2348 165.992 53.014 165.992C54.3381 165.992 55.5069 165.756 56.3632 165.362C57.2977 164.967 57.9209 164.337 58.3883 163.628C58.8555 162.918 59.0115 162.051 59.0115 161.105C59.0115 160.002 58.7002 159.135 57.9987 158.425C57.8449 158.109 57.2994 157.794 56.6762 157.557L56.676 157.557Z" fill="white"/>
<path d="M66.5683 155.744C65.6337 155.744 64.8546 155.902 64.2313 156.296C63.92 156.454 63.6858 156.611 63.4521 156.848C63.5298 156.454 63.6081 156.059 63.6858 155.666C63.8417 154.957 64.0754 154.405 64.3867 153.853C64.6981 153.38 65.1659 152.986 65.7108 152.671C66.49 152.277 67.5804 152.119 68.7487 152.277C69.0524 152.318 69.2942 152.355 69.5279 152.435C69.8009 152.514 70.0734 152.309 70.0734 152.025V150.548C70.0734 150.359 69.9451 150.194 69.7621 150.148C69.5284 150.069 69.261 149.985 68.8437 149.945C68.496 149.912 68.1266 149.912 67.8147 149.912C66.3346 149.912 65.1664 150.148 64.2313 150.7C63.2967 151.252 62.5176 151.961 62.0503 152.828C61.5047 153.695 61.1934 154.72 60.9598 155.744C60.8038 156.769 60.6484 157.873 60.6484 158.976C60.6484 160.552 60.8821 161.814 61.3494 162.838C61.8166 163.863 62.5175 164.651 63.2967 165.203C64.0759 165.676 65.0104 165.991 66.0233 165.991C67.581 165.991 68.8275 165.519 69.7621 164.494C70.6966 163.548 71.1639 162.208 71.1639 160.553C71.1639 158.977 70.6966 157.794 69.8397 156.927C69.0606 156.138 67.9701 155.744 66.5682 155.744L66.5683 155.744ZM68.5934 160.631C68.5934 161.734 68.3597 162.523 67.8925 162.996C67.4252 163.469 66.802 163.705 66.101 163.705C65.4778 163.705 65.0105 163.547 64.6209 163.232C64.2313 162.917 63.92 162.444 63.6863 161.971C63.4527 161.419 63.375 160.867 63.375 160.315C63.375 159.921 63.4527 159.606 63.6863 159.212C63.92 158.818 64.2319 158.503 64.6991 158.266C65.0887 158.03 65.6337 157.872 66.1793 157.872C67.0361 157.872 67.5811 158.109 68.0489 158.581C68.4374 159.133 68.5934 159.843 68.5934 160.631Z" fill="white"/>
<path d="M81.685 152.119C80.8281 150.621 79.4263 149.912 77.6343 149.912C76.3879 149.912 75.2974 150.227 74.5188 150.936C73.7397 151.567 73.1947 152.513 72.8052 153.774C72.4938 154.956 72.3379 156.375 72.3379 158.03C72.3379 160.473 72.7275 162.443 73.5843 163.862C74.4412 165.36 75.843 166.069 77.635 166.069C78.8814 166.069 79.9719 165.754 80.7504 165.045C81.5296 164.414 82.0746 163.468 82.4641 162.207C82.7754 161.025 83.0096 159.606 83.0096 157.951C83.0091 155.507 82.5418 153.537 81.685 152.119ZM80.3608 158.03C80.3608 160 80.1272 161.498 79.6599 162.444C79.2703 163.311 78.5694 163.705 77.6348 163.705C76.7002 163.705 75.9987 163.311 75.6097 162.444C75.1424 161.498 74.9865 160 74.9865 158.03C74.9865 156.059 75.2201 154.562 75.6097 153.616C75.9993 152.749 76.6225 152.355 77.6348 152.355C78.5694 152.355 79.1925 152.749 79.6599 153.616C80.1266 154.562 80.3608 156.059 80.3608 158.03Z" fill="white"/>
<path d="M83.6326 150.148C81.9965 150.148 80.5947 148.808 80.5947 147.074C80.5947 145.34 81.9189 144 83.6326 144C85.2686 144 86.6705 145.34 86.6705 147.074C86.6705 148.808 85.2681 150.148 83.6326 150.148ZM83.6326 145.655C82.8534 145.655 82.2308 146.286 82.2308 147.073C82.2308 147.862 82.854 148.492 83.6326 148.492C84.4118 148.492 85.0344 147.861 85.0344 147.073C85.0344 146.286 84.4112 145.655 83.6326 145.655Z" fill="white"/>
<path d="M299.825 165.439C299.124 164.65 297.956 164.572 297.177 165.202C296.398 165.911 296.32 167.094 296.943 167.882L298.813 170.167C286.818 169.694 279.417 167.882 276.302 166.384C275.367 165.911 275.367 164.729 276.302 164.256C278.203 163.329 281.633 162.338 286.592 161.575C287.522 161.431 288.219 160.637 288.219 159.695C288.219 158.561 287.222 157.683 286.101 157.853C278.283 159.039 271.005 161.231 271.005 165.281C271.005 172.059 290.868 173.635 299.358 173.951L296.554 176.788C295.853 177.498 295.853 178.759 296.554 179.468C297.255 180.177 298.501 180.177 299.202 179.468L304.577 174.109C305.278 173.399 305.356 172.138 304.733 171.271C303.408 169.695 301.227 167.094 299.825 165.439Z" fill="white"/>
<path d="M323.911 157.853C322.788 157.683 321.791 158.562 321.791 159.697C321.791 160.638 322.486 161.432 323.416 161.577C328.321 162.341 331.809 163.331 333.708 164.256C334.643 164.729 334.643 165.99 333.708 166.384C330.515 167.96 322.492 169.852 309.639 170.246C308.626 170.246 307.77 171.113 307.77 172.217C307.77 173.242 308.626 174.109 309.639 174.029C317.429 173.793 339.005 172.453 339.005 165.359C339.005 161.238 331.728 159.041 323.911 157.853Z" fill="white"/>
<path d="M294.681 157.557C295.148 157.321 295.538 157.005 295.849 156.69C296.472 156.06 296.784 155.114 296.784 154.011C296.784 152.829 296.394 151.804 295.537 151.095C294.68 150.306 293.434 149.913 291.798 149.913C290.786 149.913 289.851 150.07 288.994 150.385C288.215 150.7 287.514 151.095 286.969 151.567C286.795 151.699 286.757 151.945 286.882 152.124L287.758 153.375C287.88 153.55 288.123 153.588 288.293 153.459C288.839 153.144 289.384 152.829 289.929 152.592C290.475 152.356 291.098 152.277 291.799 152.277C292.5 152.277 293.123 152.435 293.513 152.75C293.902 153.065 294.058 153.538 294.058 154.09C294.058 154.799 293.824 155.351 293.279 155.824C292.733 156.297 291.877 156.533 290.786 156.533H290.099C289.446 156.533 288.916 157.062 288.916 157.715C288.916 158.368 289.446 158.898 290.099 158.898H290.708C291.954 158.898 292.889 159.056 293.59 159.45C294.213 159.765 294.447 160.317 294.447 161.105C294.447 161.894 294.213 162.524 293.668 162.997C293.122 163.47 292.266 163.706 291.097 163.706C290.474 163.706 289.773 163.628 289.15 163.47C288.449 163.312 287.826 163.076 287.202 162.761C286.917 162.616 286.579 162.824 286.579 163.144V164.8C286.579 164.947 286.673 165.078 286.813 165.125C287.436 165.44 288.137 165.677 288.838 165.834C289.539 165.992 290.24 165.992 291.019 165.992C292.343 165.992 293.512 165.756 294.368 165.362C295.303 164.967 295.926 164.337 296.393 163.628C296.86 162.918 297.016 162.051 297.016 161.105C297.016 160.002 296.705 159.135 296.004 158.425C295.85 158.109 295.304 157.794 294.681 157.557L294.681 157.557Z" fill="white"/>
<path d="M304.573 155.744C303.639 155.744 302.859 155.902 302.236 156.296C301.925 156.454 301.691 156.611 301.457 156.848C301.535 156.454 301.613 156.059 301.691 155.666C301.847 154.957 302.08 154.405 302.392 153.853C302.703 153.38 303.171 152.986 303.716 152.671C304.495 152.277 305.585 152.119 306.754 152.277C307.057 152.318 307.299 152.355 307.533 152.435C307.806 152.514 308.078 152.309 308.078 152.025V150.548C308.078 150.359 307.95 150.194 307.767 150.148C307.533 150.069 307.266 149.985 306.849 149.945C306.501 149.912 306.131 149.912 305.82 149.912C304.339 149.912 303.171 150.148 302.236 150.7C301.302 151.252 300.523 151.961 300.055 152.828C299.51 153.695 299.198 154.72 298.965 155.744C298.809 156.769 298.653 157.873 298.653 158.976C298.653 160.552 298.887 161.814 299.354 162.838C299.822 163.863 300.522 164.651 301.302 165.203C302.081 165.676 303.015 165.991 304.028 165.991C305.586 165.991 306.832 165.519 307.767 164.494C308.701 163.548 309.169 162.208 309.169 160.553C309.169 158.977 308.701 157.794 307.845 156.927C307.065 156.138 305.975 155.744 304.573 155.744L304.573 155.744ZM306.598 160.631C306.598 161.734 306.365 162.523 305.897 162.996C305.43 163.469 304.807 163.705 304.106 163.705C303.483 163.705 303.015 163.547 302.626 163.232C302.236 162.917 301.925 162.444 301.691 161.971C301.458 161.419 301.38 160.867 301.38 160.315C301.38 159.921 301.458 159.606 301.691 159.212C301.925 158.818 302.237 158.503 302.704 158.266C303.094 158.03 303.639 157.872 304.184 157.872C305.041 157.872 305.586 158.109 306.054 158.581C306.442 159.133 306.598 159.843 306.598 160.631Z" fill="white"/>
<path d="M319.69 152.119C318.833 150.621 317.431 149.912 315.639 149.912C314.393 149.912 313.302 150.227 312.524 150.936C311.745 151.567 311.2 152.513 310.81 153.774C310.499 154.956 310.343 156.375 310.343 158.03C310.343 160.473 310.732 162.443 311.589 163.862C312.446 165.36 313.848 166.069 315.64 166.069C316.886 166.069 317.977 165.754 318.755 165.045C319.534 164.414 320.079 163.468 320.469 162.207C320.78 161.025 321.015 159.606 321.015 157.951C321.014 155.507 320.547 153.537 319.69 152.119ZM318.366 158.03C318.366 160 318.132 161.498 317.665 162.444C317.275 163.311 316.574 163.705 315.64 163.705C314.705 163.705 314.004 163.311 313.615 162.444C313.147 161.498 312.991 160 312.991 158.03C312.991 156.059 313.225 154.562 313.615 153.616C314.004 152.749 314.627 152.355 315.64 152.355C316.574 152.355 317.197 152.749 317.665 153.616C318.132 154.562 318.366 156.059 318.366 158.03Z" fill="white"/>
<path d="M321.637 150.148C320.001 150.148 318.6 148.808 318.6 147.074C318.6 145.34 319.924 144 321.637 144C323.274 144 324.675 145.34 324.675 147.074C324.675 148.808 323.273 150.148 321.637 150.148ZM321.637 145.655C320.858 145.655 320.236 146.286 320.236 147.073C320.236 147.862 320.859 148.492 321.637 148.492C322.417 148.492 323.039 147.861 323.039 147.073C323.039 146.286 322.416 145.655 321.637 145.655Z" fill="white"/>
<rect x="175.447" y="224" width="18.0111" height="46.9021" rx="1" fill="#060606"/>
<path d="M108.671 278.127L176.119 256.642L179.013 270.278L108.671 278.127Z" fill="#060606"/>
<path d="M260.329 278.127L189.987 270.278L192.881 256.641L260.329 278.127Z" fill="#060606"/>
<defs>
<radialGradient id="paint0_angular_272_938" cx="0" cy="0" r="1" gradientUnits="userSpaceOnUse" gradientTransform="translate(67 62) rotate(90) scale(47 57)">
<stop offset="0.358326" stop-color="#E56BD7"/>
<stop offset="0.877068" stop-color="#5AA3FF"/>
</radialGradient>
<radialGradient id="paint1_angular_272_938" cx="0" cy="0" r="1" gradientUnits="userSpaceOnUse" gradientTransform="translate(186 62) rotate(90) scale(47 57)">
<stop offset="0.500001" stop-color="#E56BD7"/>
<stop offset="1" stop-color="#5AA3FF"/>
</radialGradient>
<radialGradient id="paint2_angular_272_938" cx="0" cy="0" r="1" gradientUnits="userSpaceOnUse" gradientTransform="translate(305 62) rotate(90) scale(47 57)">
<stop offset="0.126903" stop-color="#5AA3FF"/>
<stop offset="0.629858" stop-color="#E56BD7"/>
</radialGradient>
<radialGradient id="paint3_angular_272_938" cx="0" cy="0" r="1" gradientUnits="userSpaceOnUse" gradientTransform="translate(67 162) rotate(90) scale(47 57)">
<stop offset="0.130034" stop-color="#E56BD7"/>
<stop offset="0.624475" stop-color="#5AA3FF"/>
</radialGradient>
<radialGradient id="paint4_angular_272_938" cx="0" cy="0" r="1" gradientUnits="userSpaceOnUse" gradientTransform="translate(186 162) rotate(90) scale(47 57)">
<stop offset="0.501121" stop-color="#5AA3FF"/>
<stop offset="0.999999" stop-color="#E56BD7"/>
</radialGradient>
<radialGradient id="paint5_angular_272_938" cx="0" cy="0" r="1" gradientUnits="userSpaceOnUse" gradientTransform="translate(305 162) rotate(90) scale(47 57)">
<stop offset="0.356115" stop-color="#5AA3FF"/>
<stop offset="0.870589" stop-color="#E56BD7"/>
</radialGradient>
</defs>
</svg>
