<svg width="371" height="286" viewBox="0 0 371 286" fill="none" xmlns="http://www.w3.org/2000/svg">
<path d="M9.37263 1.5H361.627C362.661 1.5 363.685 1.70352 364.64 2.09891C365.596 2.49429 366.464 3.07379 367.195 3.80425C367.926 4.53473 368.505 5.40184 368.901 6.35607C369.296 7.31029 369.5 8.33301 369.5 9.36585V222.5H1.5V9.36585C1.5 7.28004 2.32916 5.27947 3.80545 3.80425C5.28177 2.329 7.28433 1.5 9.37263 1.5Z" fill="white" stroke="#020202" stroke-width="3"/>
<path d="M10 22C10 18.134 13.134 15 17 15H64C67.866 15 71 18.134 71 22V43.2727C71 47.1387 67.866 50.2727 64 50.2727H17C13.134 50.2727 10 47.1387 10 43.2727V22Z" fill="url(#paint0_angular_272_802)" fill-opacity="0.7"/>
<path d="M10 61.1307C10 57.2647 13.134 54.1307 17 54.1307H64C67.866 54.1307 71 57.2647 71 61.1307V82.4034C71 86.2694 67.866 89.4034 64 89.4034H17C13.134 89.4034 10 86.2694 10 82.4034V61.1307Z" fill="url(#paint1_angular_272_802)" fill-opacity="0.7"/>
<path d="M10 100.812C10 96.9465 13.134 93.8125 17 93.8125H64C67.866 93.8125 71 96.9465 71 100.812V122.085C71 125.951 67.866 129.085 64 129.085H17C13.134 129.085 10 125.951 10 122.085V100.812Z" fill="url(#paint2_angular_272_802)" fill-opacity="0.7"/>
<path d="M10 141.045C10 137.179 13.134 134.045 17 134.045H64C67.866 134.045 71 137.179 71 141.045V162.318C71 166.184 67.866 169.318 64 169.318H17C13.134 169.318 10 166.184 10 162.318V141.045Z" fill="url(#paint3_angular_272_802)" fill-opacity="0.7"/>
<path d="M10 180.727C10 176.861 13.134 173.727 17 173.727H64C67.866 173.727 71 176.861 71 180.727V202C71 205.866 67.866 209 64 209H17C13.134 209 10 205.866 10 202V180.727Z" fill="url(#paint4_angular_272_802)" fill-opacity="0.7"/>
<rect x="76" y="15" width="140" height="94" rx="4" fill="url(#paint5_angular_272_802)" fill-opacity="0.7"/>
<rect x="76" y="115" width="140" height="94" rx="4" fill="url(#paint6_angular_272_802)" fill-opacity="0.7"/>
<rect x="222" y="115" width="140" height="94" rx="4" fill="url(#paint7_angular_272_802)" fill-opacity="0.7"/>
<path d="M50.5446 23.001H30.4479C30.076 23.0021 29.7196 23.1456 29.457 23.4002C29.1944 23.6547 29.0469 23.9997 29.0469 24.3593V37.3518C29.0458 37.7116 29.1929 38.0572 29.4557 38.3119C29.7187 38.5669 30.0756 38.71 30.4479 38.71H38.592L37.9725 42.2947H37.1162C36.9302 42.3139 36.7891 42.4657 36.7891 42.6464C36.7891 42.8272 36.9302 42.9788 37.1162 42.998H43.8719C43.9751 43.0087 44.0781 42.9765 44.1553 42.9094C44.2325 42.8424 44.2767 42.7468 44.2767 42.6464C44.2767 42.5461 44.2325 42.4504 44.1553 42.3833C44.0781 42.3162 43.9751 42.2841 43.8719 42.2947H43.0404L42.4209 38.71H50.5445C50.9168 38.71 51.2738 38.5668 51.5367 38.3119C51.7995 38.0572 51.9467 37.7116 51.9456 37.3517V24.3593C51.9456 23.9997 51.7981 23.6547 51.5354 23.4001C51.2728 23.1456 50.9165 23.0021 50.5446 23.001ZM30.4479 23.7042H50.5446C50.9172 23.7064 51.2181 23.999 51.2181 24.3592V35.8527H29.7745V24.3592C29.7745 23.999 30.0753 23.7064 30.448 23.7042H30.4479ZM42.2836 42.2944H38.7084L39.3279 38.7097H41.6643L42.2836 42.2944ZM50.5441 38.0064H30.4474C30.0748 38.0043 29.7739 37.7117 29.7739 37.3514L29.7745 35.8527H51.2181L51.2175 37.3514C51.2175 37.7117 50.9167 38.0043 50.544 38.0064H50.5441Z" fill="white"/>
<path d="M29.7588 36.1361V35.3545H51.2085V36.1361H29.7588Z" fill="white"/>
<path d="M50.5446 142H30.4479C30.076 142.002 29.7196 142.145 29.457 142.4C29.1944 142.654 29.0469 142.999 29.0469 143.359V156.352C29.0458 156.712 29.1929 157.057 29.4557 157.312C29.7187 157.567 30.0756 157.71 30.4479 157.71H38.592L37.9725 161.295H37.1162C36.9302 161.314 36.7891 161.466 36.7891 161.646C36.7891 161.827 36.9302 161.979 37.1162 161.998H43.8719C43.9751 162.009 44.0781 161.976 44.1553 161.909C44.2325 161.842 44.2767 161.747 44.2767 161.646C44.2767 161.546 44.2325 161.45 44.1553 161.383C44.0781 161.316 43.9751 161.284 43.8719 161.295H43.0404L42.4209 157.71H50.5445C50.9168 157.71 51.2738 157.567 51.5367 157.312C51.7995 157.057 51.9467 156.711 51.9456 156.352V143.359C51.9456 142.999 51.7981 142.654 51.5354 142.4C51.2728 142.145 50.9165 142.002 50.5446 142ZM30.4479 142.704H50.5446C50.9172 142.706 51.2181 142.999 51.2181 143.359V154.852H29.7745V143.359C29.7745 142.999 30.0753 142.706 30.448 142.704H30.4479ZM42.2836 161.294H38.7084L39.3279 157.71H41.6643L42.2836 161.294ZM50.5441 157.006H30.4474C30.0748 157.004 29.7739 156.712 29.7739 156.351L29.7745 154.852H51.2181L51.2175 156.351C51.2175 156.712 50.9167 157.004 50.544 157.006H50.5441Z" fill="white"/>
<path d="M29.7588 155.136V154.354H51.2085V155.136H29.7588Z" fill="white"/>
<path d="M140.176 66.6074C139.32 65.6657 137.894 65.5718 136.943 66.325C135.992 67.1721 135.898 68.5846 136.658 69.5257L138.94 72.2555C124.3 71.6908 115.268 69.5257 111.465 67.7368C110.324 67.172 110.324 65.7595 111.465 65.1948C113.79 64.0858 117.989 62.8998 124.059 61.9867C125.174 61.819 126.01 60.8689 126.01 59.7413V59.7413C126.01 58.3886 124.823 57.34 123.485 57.538C113.92 58.953 105 61.5719 105 66.4188C105 74.5152 129.243 76.3979 139.606 76.775L136.183 80.1641C135.328 81.0113 135.328 82.5177 136.183 83.3649C137.038 84.212 138.56 84.212 139.415 83.3649L145.975 76.9634C146.831 76.1163 146.926 74.6098 146.166 73.5742C144.549 71.6915 141.886 68.5846 140.176 66.6074Z" fill="white"/>
<path d="M169.517 57.5385C168.178 57.3402 166.99 58.3896 166.99 59.7435V59.7435C166.99 60.8703 167.824 61.8204 168.938 61.9898C174.943 62.9029 179.212 64.0875 181.535 65.1948C182.676 65.7595 182.676 67.2659 181.535 67.7368C177.637 69.6195 167.845 71.8793 152.159 72.35C150.923 72.35 149.877 73.3856 149.877 74.7036C149.877 75.9277 150.923 76.9632 152.159 76.8688C161.666 76.5864 188 74.9861 188 66.5126C188 61.5803 179.082 58.9546 169.517 57.5385Z" fill="white"/>
<path d="M133.895 57.1924C134.465 56.91 134.941 56.5331 135.321 56.1568C136.082 55.4036 136.462 54.2741 136.462 52.9561C136.462 51.5442 135.986 50.3201 134.94 49.4729C133.894 48.5312 132.373 48.061 130.377 48.061C129.141 48.061 128 48.2495 126.955 48.6258C126.004 49.0021 125.148 49.4729 124.483 50.0377V50.0377C124.272 50.1945 124.225 50.4913 124.378 50.7051L125.444 52.1946C125.595 52.4061 125.89 52.4524 126.099 52.2973V52.2973C126.765 51.921 127.43 51.5441 128.096 51.2617C128.762 50.9793 129.522 50.8854 130.378 50.8854C131.233 50.8854 131.994 51.0739 132.469 51.4502C132.945 51.8265 133.135 52.3919 133.135 53.0505C133.135 53.8977 132.85 54.557 132.184 55.1217C131.518 55.6864 130.473 55.9688 129.141 55.9688H128.272C127.492 55.9688 126.86 56.6011 126.86 57.3811V57.3811C126.86 58.161 127.492 58.7933 128.272 58.7933H129.046C130.567 58.7933 131.708 58.9818 132.563 59.4526C133.324 59.8289 133.609 60.4883 133.609 61.43C133.609 62.3717 133.324 63.1242 132.658 63.6896C131.992 64.2544 130.947 64.5368 129.521 64.5368C128.76 64.5368 127.905 64.4429 127.144 64.2544C126.289 64.0659 125.528 63.7835 124.767 63.4072V63.4072C124.417 63.234 124.007 63.4888 124.007 63.8796V65.8375C124.007 66.0166 124.122 66.1756 124.292 66.2316V66.2316C125.053 66.6079 125.908 66.8909 126.764 67.0787C127.619 67.2672 128.475 67.2672 129.426 67.2672C131.042 67.2672 132.468 66.9848 133.513 66.514C134.654 66.0431 135.415 65.2899 135.985 64.4428C136.555 63.5957 136.746 62.5601 136.746 61.4299C136.746 60.1119 136.366 59.0763 135.509 58.2292C135.322 57.8516 134.656 57.4753 133.895 57.1922L133.895 57.1924Z" fill="white"/>
<path d="M145.97 55.0254C144.83 55.0254 143.879 55.2138 143.118 55.6847C142.738 55.8732 142.452 56.061 142.167 56.344C142.262 55.8732 142.357 55.4023 142.452 54.9321C142.643 54.085 142.928 53.4257 143.308 52.767C143.688 52.2022 144.259 51.7314 144.924 51.3551C145.875 50.8843 147.206 50.6958 148.632 50.8843C149.002 50.9332 149.297 50.9782 149.583 51.0727V51.0727C149.917 51.1673 150.248 50.9163 150.248 50.5692V48.8268C150.248 48.5969 150.092 48.3966 149.868 48.3415V48.3415C149.583 48.2476 149.257 48.1471 148.748 48.0991C148.323 48.0591 147.872 48.0591 147.492 48.0591C145.685 48.0591 144.259 48.3415 143.118 49.0008C141.977 49.6601 141.026 50.5072 140.456 51.5428C139.79 52.5785 139.41 53.8025 139.125 55.026C138.935 56.2501 138.745 57.568 138.745 58.8861C138.745 60.7688 139.03 62.2752 139.601 63.4993C140.171 64.7233 141.026 65.6644 141.977 66.3238C142.928 66.8885 144.069 67.2655 145.305 67.2655C147.206 67.2655 148.728 66.7007 149.868 65.4766C151.009 64.347 151.579 62.7467 151.579 60.7694C151.579 58.8867 151.009 57.474 149.963 56.4384C149.012 55.4961 147.681 55.0252 145.97 55.0252L145.97 55.0254ZM148.442 60.8628C148.442 62.1808 148.157 63.1224 147.586 63.6873C147.016 64.2521 146.256 64.5344 145.4 64.5344C144.639 64.5344 144.069 64.3459 143.594 63.9697C143.118 63.5934 142.738 63.0279 142.453 62.4632C142.168 61.8039 142.073 61.1452 142.073 60.4858C142.073 60.015 142.168 59.6387 142.453 59.1679C142.738 58.697 143.119 58.3207 143.689 58.0383C144.165 57.756 144.83 57.5675 145.496 57.5675C146.541 57.5675 147.206 57.8499 147.777 58.4146C148.252 59.074 148.442 59.9212 148.442 60.8628Z" fill="white"/>
<path d="M164.422 50.6951C163.376 48.9062 161.665 48.0591 159.478 48.0591C157.957 48.0591 156.626 48.4354 155.676 49.2832C154.725 50.0364 154.059 51.1659 153.584 52.6723C153.204 54.0842 153.014 55.7791 153.014 57.7558C153.014 60.6741 153.489 63.0276 154.535 64.7226C155.581 66.5115 157.292 67.3586 159.479 67.3586C161 67.3586 162.331 66.9823 163.281 66.1345C164.232 65.3813 164.897 64.2518 165.373 62.7454C165.753 61.3335 166.039 59.6386 166.039 57.6619C166.038 54.743 165.468 52.3894 164.422 50.6951V50.6951ZM162.806 57.7559C162.806 60.1095 162.521 61.8984 161.95 63.0278C161.475 64.0634 160.619 64.5342 159.479 64.5342C158.338 64.5342 157.482 64.0634 157.007 63.0278C156.437 61.8983 156.246 60.1095 156.246 57.7559C156.246 55.4023 156.531 53.6134 157.007 52.484C157.482 51.4484 158.243 50.9776 159.479 50.9776C160.619 50.9776 161.38 51.4484 161.95 52.484C162.52 53.6135 162.806 55.4023 162.806 57.7559V57.7559Z" fill="white"/>
<path d="M166.801 48.3432C164.805 48.3432 163.094 46.7429 163.094 44.6716C163.094 42.6004 164.71 41 166.801 41C168.798 41 170.509 42.6004 170.509 44.6716C170.509 46.7428 168.798 48.3432 166.801 48.3432ZM166.801 42.9767C165.851 42.9767 165.091 43.7299 165.091 44.6709C165.091 45.6126 165.851 46.3652 166.801 46.3652C167.752 46.3652 168.512 45.612 168.512 44.6709C168.512 43.7299 167.752 42.9767 166.801 42.9767Z" fill="white"/>
<rect x="222" y="15" width="140" height="94" rx="4" fill="url(#paint8_angular_272_802)" fill-opacity="0.7"/>
<path d="M285.176 66.6074C284.32 65.6657 282.894 65.5718 281.943 66.325C280.992 67.1721 280.898 68.5846 281.658 69.5257L283.94 72.2555C269.3 71.6908 260.268 69.5257 256.465 67.7368C255.324 67.172 255.324 65.7595 256.465 65.1948C258.79 64.0858 262.989 62.8998 269.059 61.9867C270.174 61.819 271.01 60.8689 271.01 59.7413V59.7413C271.01 58.3886 269.823 57.34 268.485 57.538C258.92 58.953 250 61.5719 250 66.4188C250 74.5152 274.243 76.3979 284.606 76.775L281.183 80.1641C280.328 81.0113 280.328 82.5177 281.183 83.3649C282.038 84.212 283.56 84.212 284.415 83.3649L290.975 76.9634C291.831 76.1163 291.926 74.6098 291.166 73.5742C289.549 71.6915 286.886 68.5846 285.176 66.6074Z" fill="white"/>
<path d="M314.517 57.5385C313.178 57.3402 311.99 58.3896 311.99 59.7435V59.7435C311.99 60.8703 312.824 61.8204 313.938 61.9898C319.943 62.9029 324.212 64.0875 326.535 65.1948C327.676 65.7595 327.676 67.2659 326.535 67.7368C322.637 69.6195 312.845 71.8793 297.159 72.35C295.923 72.35 294.877 73.3856 294.877 74.7036C294.877 75.9277 295.923 76.9632 297.159 76.8688C306.666 76.5864 333 74.9861 333 66.5126C333 61.5803 324.082 58.9546 314.517 57.5385Z" fill="white"/>
<path d="M278.895 57.1924C279.465 56.91 279.941 56.5331 280.321 56.1568C281.082 55.4036 281.462 54.2741 281.462 52.9561C281.462 51.5442 280.986 50.3201 279.94 49.4729C278.894 48.5312 277.373 48.061 275.377 48.061C274.141 48.061 273 48.2495 271.955 48.6258C271.004 49.0021 270.148 49.4729 269.483 50.0377V50.0377C269.272 50.1945 269.225 50.4913 269.378 50.7051L270.444 52.1946C270.595 52.4061 270.89 52.4524 271.099 52.2973V52.2973C271.765 51.921 272.43 51.5441 273.096 51.2617C273.762 50.9793 274.522 50.8854 275.378 50.8854C276.233 50.8854 276.994 51.0739 277.469 51.4502C277.945 51.8265 278.135 52.3919 278.135 53.0505C278.135 53.8977 277.85 54.557 277.184 55.1217C276.518 55.6864 275.473 55.9688 274.141 55.9688H273.272C272.492 55.9688 271.86 56.6011 271.86 57.3811V57.3811C271.86 58.161 272.492 58.7933 273.272 58.7933H274.046C275.567 58.7933 276.708 58.9818 277.563 59.4526C278.324 59.8289 278.609 60.4883 278.609 61.43C278.609 62.3717 278.324 63.1242 277.658 63.6896C276.992 64.2544 275.947 64.5368 274.521 64.5368C273.76 64.5368 272.905 64.4429 272.144 64.2544C271.289 64.0659 270.528 63.7835 269.767 63.4072V63.4072C269.417 63.234 269.007 63.4888 269.007 63.8796V65.8375C269.007 66.0166 269.122 66.1756 269.292 66.2316V66.2316C270.053 66.6079 270.908 66.8909 271.764 67.0787C272.619 67.2672 273.475 67.2672 274.426 67.2672C276.042 67.2672 277.468 66.9848 278.513 66.514C279.654 66.0431 280.415 65.2899 280.985 64.4428C281.555 63.5957 281.746 62.5601 281.746 61.4299C281.746 60.1119 281.366 59.0763 280.509 58.2292C280.322 57.8516 279.656 57.4753 278.895 57.1922L278.895 57.1924Z" fill="white"/>
<path d="M290.97 55.0254C289.83 55.0254 288.879 55.2138 288.118 55.6847C287.738 55.8732 287.452 56.061 287.167 56.344C287.262 55.8732 287.357 55.4023 287.452 54.9321C287.643 54.085 287.928 53.4257 288.308 52.767C288.688 52.2022 289.259 51.7314 289.924 51.3551C290.875 50.8843 292.206 50.6958 293.632 50.8843C294.002 50.9332 294.297 50.9782 294.583 51.0727V51.0727C294.917 51.1673 295.248 50.9163 295.248 50.5692V48.8268C295.248 48.5969 295.092 48.3966 294.868 48.3415V48.3415C294.583 48.2476 294.257 48.1471 293.748 48.0991C293.323 48.0591 292.872 48.0591 292.492 48.0591C290.685 48.0591 289.259 48.3415 288.118 49.0008C286.977 49.6601 286.026 50.5072 285.456 51.5428C284.79 52.5785 284.41 53.8025 284.125 55.026C283.935 56.2501 283.745 57.568 283.745 58.8861C283.745 60.7688 284.03 62.2752 284.601 63.4993C285.171 64.7233 286.026 65.6644 286.977 66.3238C287.928 66.8885 289.069 67.2655 290.305 67.2655C292.206 67.2655 293.728 66.7007 294.868 65.4766C296.009 64.347 296.579 62.7467 296.579 60.7694C296.579 58.8867 296.009 57.474 294.963 56.4384C294.012 55.4961 292.681 55.0252 290.97 55.0252L290.97 55.0254ZM293.442 60.8628C293.442 62.1808 293.157 63.1224 292.586 63.6873C292.016 64.2521 291.256 64.5344 290.4 64.5344C289.639 64.5344 289.069 64.3459 288.594 63.9697C288.118 63.5934 287.738 63.0279 287.453 62.4632C287.168 61.8039 287.073 61.1452 287.073 60.4858C287.073 60.015 287.168 59.6387 287.453 59.1679C287.738 58.697 288.119 58.3207 288.689 58.0383C289.165 57.756 289.83 57.5675 290.496 57.5675C291.541 57.5675 292.206 57.8499 292.777 58.4146C293.252 59.074 293.442 59.9212 293.442 60.8628Z" fill="white"/>
<path d="M309.422 50.6951C308.376 48.9062 306.665 48.0591 304.478 48.0591C302.957 48.0591 301.626 48.4354 300.676 49.2832C299.725 50.0364 299.059 51.1659 298.584 52.6723C298.204 54.0842 298.014 55.7791 298.014 57.7558C298.014 60.6741 298.489 63.0276 299.535 64.7226C300.581 66.5115 302.292 67.3586 304.479 67.3586C306 67.3586 307.331 66.9823 308.281 66.1345C309.232 65.3813 309.897 64.2518 310.373 62.7454C310.753 61.3335 311.039 59.6386 311.039 57.6619C311.038 54.743 310.468 52.3894 309.422 50.6951V50.6951ZM307.806 57.7559C307.806 60.1095 307.521 61.8984 306.95 63.0278C306.475 64.0634 305.619 64.5342 304.479 64.5342C303.338 64.5342 302.482 64.0634 302.007 63.0278C301.437 61.8983 301.246 60.1095 301.246 57.7559C301.246 55.4023 301.531 53.6134 302.007 52.484C302.482 51.4484 303.243 50.9776 304.479 50.9776C305.619 50.9776 306.38 51.4484 306.95 52.484C307.52 53.6135 307.806 55.4023 307.806 57.7559V57.7559Z" fill="white"/>
<path d="M311.801 48.3432C309.805 48.3432 308.094 46.7429 308.094 44.6716C308.094 42.6004 309.71 41 311.801 41C313.798 41 315.509 42.6004 315.509 44.6716C315.509 46.7428 313.798 48.3432 311.801 48.3432ZM311.801 42.9767C310.851 42.9767 310.091 43.7299 310.091 44.6709C310.091 45.6126 310.851 46.3652 311.801 46.3652C312.752 46.3652 313.512 45.612 313.512 44.6709C313.512 43.7299 312.752 42.9767 311.801 42.9767Z" fill="white"/>
<path d="M285.176 165.607C284.32 164.666 282.894 164.572 281.943 165.325C280.992 166.172 280.898 167.585 281.658 168.526L283.94 171.256C269.3 170.691 260.268 168.526 256.465 166.737C255.324 166.172 255.324 164.759 256.465 164.195C258.79 163.086 262.989 161.9 269.059 160.987C270.174 160.819 271.01 159.869 271.01 158.741V158.741C271.01 157.389 269.823 156.34 268.485 156.538C258.92 157.953 250 160.572 250 165.419C250 173.515 274.243 175.398 284.606 175.775L281.183 179.164C280.328 180.011 280.328 181.518 281.183 182.365C282.038 183.212 283.56 183.212 284.415 182.365L290.975 175.963C291.831 175.116 291.926 173.61 291.166 172.574C289.549 170.692 286.886 167.585 285.176 165.607Z" fill="white" stroke="#C4C4C4" stroke-opacity="0.03" stroke-width="9"/>
<path d="M314.517 156.539C313.178 156.34 311.99 157.39 311.99 158.743V158.743C311.99 159.87 312.824 160.82 313.938 160.99C319.943 161.903 324.212 163.087 326.535 164.195C327.676 164.76 327.676 166.266 326.535 166.737C322.637 168.62 312.845 170.879 297.159 171.35C295.923 171.35 294.877 172.386 294.877 173.704C294.877 174.928 295.923 175.963 297.159 175.869C306.666 175.586 333 173.986 333 165.513C333 160.58 324.082 157.955 314.517 156.539Z" fill="white" stroke="#C4C4C4" stroke-opacity="0.03" stroke-width="9"/>
<path d="M278.895 156.192C279.465 155.91 279.941 155.533 280.321 155.157C281.082 154.404 281.462 153.274 281.462 151.956C281.462 150.544 280.986 149.32 279.94 148.473C278.894 147.531 277.373 147.061 275.377 147.061C274.141 147.061 273 147.25 271.955 147.626C271.004 148.002 270.148 148.473 269.483 149.038V149.038C269.272 149.194 269.225 149.491 269.378 149.705L270.444 151.195C270.595 151.406 270.89 151.452 271.099 151.297V151.297C271.765 150.921 272.43 150.544 273.096 150.262C273.762 149.979 274.522 149.885 275.378 149.885C276.233 149.885 276.994 150.074 277.469 150.45C277.945 150.826 278.135 151.392 278.135 152.051C278.135 152.898 277.85 153.557 277.184 154.122C276.518 154.686 275.473 154.969 274.141 154.969H273.272C272.492 154.969 271.86 155.601 271.86 156.381V156.381C271.86 157.161 272.492 157.793 273.272 157.793H274.046C275.567 157.793 276.708 157.982 277.563 158.453C278.324 158.829 278.609 159.488 278.609 160.43C278.609 161.372 278.324 162.124 277.658 162.69C276.992 163.254 275.947 163.537 274.521 163.537C273.76 163.537 272.905 163.443 272.144 163.254C271.289 163.066 270.528 162.784 269.767 162.407V162.407C269.417 162.234 269.007 162.489 269.007 162.88V164.837C269.007 165.017 269.122 165.176 269.292 165.232V165.232C270.053 165.608 270.908 165.891 271.764 166.079C272.619 166.267 273.475 166.267 274.426 166.267C276.042 166.267 277.468 165.985 278.513 165.514C279.654 165.043 280.415 164.29 280.985 163.443C281.555 162.596 281.746 161.56 281.746 160.43C281.746 159.112 281.366 158.076 280.509 157.229C280.322 156.852 279.656 156.475 278.895 156.192L278.895 156.192Z" fill="white" stroke="#C4C4C4" stroke-opacity="0.03" stroke-width="3"/>
<path d="M290.97 154.025C289.83 154.025 288.879 154.214 288.118 154.685C287.738 154.873 287.452 155.061 287.167 155.344C287.262 154.873 287.357 154.402 287.452 153.932C287.643 153.085 287.928 152.426 288.308 151.767C288.688 151.202 289.259 150.731 289.924 150.355C290.875 149.884 292.206 149.696 293.632 149.884C294.002 149.933 294.297 149.978 294.583 150.073V150.073C294.917 150.167 295.248 149.916 295.248 149.569V147.827C295.248 147.597 295.092 147.397 294.868 147.341V147.341C294.583 147.248 294.257 147.147 293.748 147.099C293.323 147.059 292.872 147.059 292.492 147.059C290.685 147.059 289.259 147.341 288.118 148.001C286.977 148.66 286.026 149.507 285.456 150.543C284.79 151.578 284.41 152.802 284.125 154.026C283.935 155.25 283.745 156.568 283.745 157.886C283.745 159.769 284.03 161.275 284.601 162.499C285.171 163.723 286.026 164.664 286.977 165.324C287.928 165.889 289.069 166.265 290.305 166.265C292.206 166.265 293.728 165.701 294.868 164.477C296.009 163.347 296.579 161.747 296.579 159.769C296.579 157.887 296.009 156.474 294.963 155.438C294.012 154.496 292.681 154.025 290.97 154.025L290.97 154.025ZM293.442 159.863C293.442 161.181 293.157 162.122 292.586 162.687C292.016 163.252 291.256 163.534 290.4 163.534C289.639 163.534 289.069 163.346 288.594 162.97C288.118 162.593 287.738 162.028 287.453 161.463C287.168 160.804 287.073 160.145 287.073 159.486C287.073 159.015 287.168 158.639 287.453 158.168C287.738 157.697 288.119 157.321 288.689 157.038C289.165 156.756 289.83 156.567 290.496 156.567C291.541 156.567 292.206 156.85 292.777 157.415C293.252 158.074 293.442 158.921 293.442 159.863Z" fill="white" stroke="#C4C4C4" stroke-opacity="0.03" stroke-width="3"/>
<path d="M309.422 149.695C308.376 147.906 306.665 147.059 304.478 147.059C302.957 147.059 301.626 147.435 300.676 148.283C299.725 149.036 299.059 150.166 298.584 151.672C298.204 153.084 298.014 154.779 298.014 156.756C298.014 159.674 298.489 162.028 299.535 163.723C300.581 165.511 302.292 166.359 304.479 166.359C306 166.359 307.331 165.982 308.281 165.135C309.232 164.381 309.897 163.252 310.373 161.745C310.753 160.333 311.039 158.639 311.039 156.662C311.038 153.743 310.468 151.389 309.422 149.695V149.695ZM307.806 156.756C307.806 159.109 307.521 160.898 306.95 162.028C306.475 163.063 305.619 163.534 304.479 163.534C303.338 163.534 302.482 163.063 302.007 162.028C301.437 160.898 301.246 159.109 301.246 156.756C301.246 154.402 301.531 152.613 302.007 151.484C302.482 150.448 303.243 149.978 304.479 149.978C305.619 149.978 306.38 150.448 306.95 151.484C307.52 152.614 307.806 154.402 307.806 156.756V156.756Z" fill="white" stroke="#C4C4C4" stroke-opacity="0.03" stroke-width="3"/>
<path d="M311.801 147.343C309.805 147.343 308.094 145.743 308.094 143.672C308.094 141.6 309.71 140 311.801 140C313.798 140 315.509 141.6 315.509 143.672C315.509 145.743 313.798 147.343 311.801 147.343ZM311.801 141.977C310.851 141.977 310.091 142.73 310.091 143.671C310.091 144.613 310.851 145.365 311.801 145.365C312.752 145.365 313.512 144.612 313.512 143.671C313.512 142.73 312.752 141.977 311.801 141.977Z" fill="white" stroke="#C4C4C4" stroke-opacity="0.03" stroke-width="3"/>
<path d="M140.176 165.607C139.32 164.666 137.894 164.572 136.943 165.325C135.992 166.172 135.898 167.585 136.658 168.526L138.94 171.256C124.3 170.691 115.268 168.526 111.465 166.737C110.324 166.172 110.324 164.759 111.465 164.195C113.79 163.086 117.989 161.9 124.059 160.987C125.174 160.819 126.01 159.869 126.01 158.741V158.741C126.01 157.389 124.823 156.34 123.485 156.538C113.92 157.953 105 160.572 105 165.419C105 173.515 129.243 175.398 139.606 175.775L136.183 179.164C135.328 180.011 135.328 181.518 136.183 182.365C137.038 183.212 138.56 183.212 139.415 182.365L145.975 175.963C146.831 175.116 146.926 173.61 146.166 172.574C144.549 170.692 141.886 167.585 140.176 165.607Z" fill="white"/>
<path d="M169.517 156.539C168.178 156.34 166.99 157.39 166.99 158.743V158.743C166.99 159.87 167.824 160.82 168.938 160.99C174.943 161.903 179.212 163.087 181.535 164.195C182.676 164.76 182.676 166.266 181.535 166.737C177.637 168.62 167.845 170.879 152.159 171.35C150.923 171.35 149.877 172.386 149.877 173.704C149.877 174.928 150.923 175.963 152.159 175.869C161.666 175.586 188 173.986 188 165.513C188 160.58 179.082 157.955 169.517 156.539Z" fill="white"/>
<path d="M133.895 156.192C134.465 155.91 134.941 155.533 135.321 155.157C136.082 154.404 136.462 153.274 136.462 151.956C136.462 150.544 135.986 149.32 134.94 148.473C133.894 147.531 132.373 147.061 130.377 147.061C129.141 147.061 128 147.25 126.955 147.626C126.004 148.002 125.148 148.473 124.483 149.038V149.038C124.272 149.194 124.225 149.491 124.378 149.705L125.444 151.195C125.595 151.406 125.89 151.452 126.099 151.297V151.297C126.765 150.921 127.43 150.544 128.096 150.262C128.762 149.979 129.522 149.885 130.378 149.885C131.233 149.885 131.994 150.074 132.469 150.45C132.945 150.826 133.135 151.392 133.135 152.051C133.135 152.898 132.85 153.557 132.184 154.122C131.518 154.686 130.473 154.969 129.141 154.969H128.272C127.492 154.969 126.86 155.601 126.86 156.381V156.381C126.86 157.161 127.492 157.793 128.272 157.793H129.046C130.567 157.793 131.708 157.982 132.563 158.453C133.324 158.829 133.609 159.488 133.609 160.43C133.609 161.372 133.324 162.124 132.658 162.69C131.992 163.254 130.947 163.537 129.521 163.537C128.76 163.537 127.905 163.443 127.144 163.254C126.289 163.066 125.528 162.784 124.767 162.407V162.407C124.417 162.234 124.007 162.489 124.007 162.88V164.837C124.007 165.017 124.122 165.176 124.292 165.232V165.232C125.053 165.608 125.908 165.891 126.764 166.079C127.619 166.267 128.475 166.267 129.426 166.267C131.042 166.267 132.468 165.985 133.513 165.514C134.654 165.043 135.415 164.29 135.985 163.443C136.555 162.596 136.746 161.56 136.746 160.43C136.746 159.112 136.366 158.076 135.509 157.229C135.322 156.852 134.656 156.475 133.895 156.192L133.895 156.192Z" fill="white"/>
<path d="M145.97 154.025C144.83 154.025 143.879 154.214 143.118 154.685C142.738 154.873 142.452 155.061 142.167 155.344C142.262 154.873 142.357 154.402 142.452 153.932C142.643 153.085 142.928 152.426 143.308 151.767C143.688 151.202 144.259 150.731 144.924 150.355C145.875 149.884 147.206 149.696 148.632 149.884C149.002 149.933 149.297 149.978 149.583 150.073V150.073C149.917 150.167 150.248 149.916 150.248 149.569V147.827C150.248 147.597 150.092 147.397 149.868 147.341V147.341C149.583 147.248 149.257 147.147 148.748 147.099C148.323 147.059 147.872 147.059 147.492 147.059C145.685 147.059 144.259 147.341 143.118 148.001C141.977 148.66 141.026 149.507 140.456 150.543C139.79 151.578 139.41 152.802 139.125 154.026C138.935 155.25 138.745 156.568 138.745 157.886C138.745 159.769 139.03 161.275 139.601 162.499C140.171 163.723 141.026 164.664 141.977 165.324C142.928 165.889 144.069 166.265 145.305 166.265C147.206 166.265 148.728 165.701 149.868 164.477C151.009 163.347 151.579 161.747 151.579 159.769C151.579 157.887 151.009 156.474 149.963 155.438C149.012 154.496 147.681 154.025 145.97 154.025L145.97 154.025ZM148.442 159.863C148.442 161.181 148.157 162.122 147.586 162.687C147.016 163.252 146.256 163.534 145.4 163.534C144.639 163.534 144.069 163.346 143.594 162.97C143.118 162.593 142.738 162.028 142.453 161.463C142.168 160.804 142.073 160.145 142.073 159.486C142.073 159.015 142.168 158.639 142.453 158.168C142.738 157.697 143.119 157.321 143.689 157.038C144.165 156.756 144.83 156.567 145.496 156.567C146.541 156.567 147.206 156.85 147.777 157.415C148.252 158.074 148.442 158.921 148.442 159.863Z" fill="white"/>
<path d="M164.422 149.695C163.376 147.906 161.665 147.059 159.478 147.059C157.957 147.059 156.626 147.435 155.676 148.283C154.725 149.036 154.059 150.166 153.584 151.672C153.204 153.084 153.014 154.779 153.014 156.756C153.014 159.674 153.489 162.028 154.535 163.723C155.581 165.511 157.292 166.359 159.479 166.359C161 166.359 162.331 165.982 163.281 165.135C164.232 164.381 164.897 163.252 165.373 161.745C165.753 160.333 166.039 158.639 166.039 156.662C166.038 153.743 165.468 151.389 164.422 149.695V149.695ZM162.806 156.756C162.806 159.109 162.521 160.898 161.95 162.028C161.475 163.063 160.619 163.534 159.479 163.534C158.338 163.534 157.482 163.063 157.007 162.028C156.437 160.898 156.246 159.109 156.246 156.756C156.246 154.402 156.531 152.613 157.007 151.484C157.482 150.448 158.243 149.978 159.479 149.978C160.619 149.978 161.38 150.448 161.95 151.484C162.52 152.614 162.806 154.402 162.806 156.756V156.756Z" fill="white"/>
<path d="M166.801 147.343C164.805 147.343 163.094 145.743 163.094 143.672C163.094 141.6 164.71 140 166.801 140C168.798 140 170.509 141.6 170.509 143.672C170.509 145.743 168.798 147.343 166.801 147.343ZM166.801 141.977C165.851 141.977 165.091 142.73 165.091 143.671C165.091 144.613 165.851 145.365 166.801 145.365C167.752 145.365 168.512 144.612 168.512 143.671C168.512 142.73 167.752 141.977 166.801 141.977Z" fill="white"/>
<path d="M43.9286 122C45.1499 122 46.1437 121.03 46.1437 119.839L46.1436 104.162C46.1436 102.97 45.1499 102 43.9284 102L37.0804 102.001C35.8591 102.001 34.8652 102.97 34.8652 104.162V119.839C34.8652 121.03 35.8589 122 37.0804 122L43.9286 122ZM35.3494 119.839V104.161C35.3494 103.23 36.1259 102.473 37.0802 102.473H43.9283C44.8826 102.473 45.6591 103.23 45.6591 104.161V119.838C45.6591 120.77 44.8826 121.527 43.9283 121.527L37.0802 121.527C36.1259 121.527 35.3494 120.77 35.3494 119.839V119.839Z" fill="white" stroke="white" stroke-width="0.5"/>
<path d="M38.8856 103.919H42.1234C42.2571 103.919 42.3655 103.814 42.3655 103.684C42.3655 103.553 42.2571 103.448 42.1234 103.448H38.8856C38.752 103.448 38.6436 103.553 38.6436 103.684C38.6436 103.814 38.752 103.919 38.8856 103.919V103.919Z" fill="white" stroke="white" stroke-width="0.5"/>
<path d="M40.5018 118.388C39.8911 118.388 39.3945 118.874 39.3945 119.471C39.3945 120.068 39.8911 120.554 40.5018 120.554C41.1137 120.554 41.6115 120.068 41.6115 119.471C41.6115 118.874 41.1136 118.388 40.5018 118.388ZM40.5018 120.082C40.1581 120.082 39.8789 119.808 39.8789 119.471C39.8789 119.134 40.1582 118.861 40.5018 118.861C40.8467 118.861 41.1274 119.134 41.1274 119.471C41.1272 119.808 40.8467 120.082 40.5018 120.082Z" fill="white" stroke="white" stroke-width="0.5"/>
<path d="M40.4681 78.333C38.2189 78.333 36.0619 77.4726 34.4712 75.9411C32.8808 74.4096 31.9873 72.3325 31.9873 70.1665C31.9873 68.0005 32.8808 65.9236 34.4712 64.3919C36.0616 62.8604 38.2187 62 40.4681 62C42.7175 62 44.8743 62.8604 46.465 64.3919C48.0554 65.9233 48.9489 68.0005 48.9489 70.1665C48.9461 72.3316 48.0518 74.4071 46.4619 75.9381C44.8721 77.4691 42.7167 78.3302 40.4682 78.3329L40.4681 78.333ZM40.4681 62.6669C38.4025 62.6669 36.4215 63.4571 34.961 64.8636C33.5003 66.2701 32.6798 68.1776 32.6798 70.1666C32.6798 72.1556 33.5003 74.0632 34.961 75.4696C36.4216 76.8761 38.4025 77.6663 40.4681 77.6663C42.5337 77.6663 44.5147 76.8761 45.9752 75.4696C47.4359 74.0631 48.2564 72.1556 48.2564 70.1666C48.2536 68.1785 47.4323 66.2723 45.9723 64.8662C44.5123 63.4602 42.5328 62.6695 40.4679 62.6668L40.4681 62.6669Z" fill="white"/>
<path d="M40.4711 74.6674C39.1859 74.6674 37.9532 74.1758 37.0444 73.3007C36.1356 72.4255 35.625 71.2385 35.625 70.001C35.625 68.7634 36.1356 67.5764 37.0444 66.7012C37.9532 65.8261 39.1859 65.3345 40.4711 65.3345C41.7563 65.3345 42.989 65.8261 43.8978 66.7012C44.8066 67.5764 45.3172 68.7634 45.3172 70.001C45.3172 71.2385 44.8066 72.4255 43.8978 73.3007C42.989 74.1758 41.7563 74.6674 40.4711 74.6674ZM40.4711 66.0011C39.3694 66.0011 38.3129 66.4225 37.5339 67.1726C36.7549 67.9228 36.3173 68.9401 36.3173 70.001C36.3173 71.0618 36.7549 72.0792 37.5339 72.8293C38.3129 73.5794 39.3694 74.0008 40.4711 74.0008C41.5727 74.0008 42.6293 73.5794 43.4082 72.8293C44.1872 72.0791 44.6249 71.0618 44.6249 70.001C44.6249 68.9401 44.1872 67.9227 43.4082 67.1726C42.6292 66.4225 41.5727 66.0011 40.4711 66.0011V66.0011Z" fill="white"/>
<path d="M40.4683 73.3349C39.5503 73.3349 38.6699 72.9837 38.0207 72.3586C37.3715 71.7334 37.0068 70.8857 37.0068 70.0017C37.0068 69.1176 37.3715 68.2699 38.0207 67.6448C38.6699 67.0196 39.5503 66.6685 40.4683 66.6685C41.3864 66.6685 42.2667 67.0196 42.9159 67.6448C43.5651 68.2699 43.9298 69.1176 43.9298 70.0017C43.9298 70.8857 43.5651 71.7334 42.9159 72.3586C42.2667 72.9837 41.3864 73.3349 40.4683 73.3349ZM40.4683 67.3351C39.7339 67.3351 39.0295 67.616 38.5103 68.1162C37.9909 68.6161 37.6991 69.2944 37.6991 70.0017C37.6991 70.7089 37.9909 71.3872 38.5103 71.8871C39.0295 72.3873 39.7339 72.6682 40.4683 72.6682C41.2028 72.6682 41.9072 72.3873 42.4264 71.8871C42.9458 71.3872 43.2375 70.7089 43.2375 70.0017C43.2375 69.2944 42.9458 68.6161 42.4264 68.1162C41.9072 67.616 41.2028 67.3351 40.4683 67.3351V67.3351Z" fill="white"/>
<path d="M40.8198 64.0013C40.8198 64.1851 40.6647 64.3342 40.4734 64.3342C40.2821 64.3342 40.127 64.1851 40.127 64.0013C40.127 63.8175 40.2821 63.6685 40.4734 63.6685C40.6647 63.6685 40.8198 63.8175 40.8198 64.0013Z" fill="white"/>
<path d="M50.5076 81.9998H30.431C30.3111 81.9995 30.1998 81.9393 30.1371 81.8409C30.0744 81.7424 30.069 81.6196 30.1229 81.5165L30.7044 80.3966H30.7045C31.2616 79.329 32.2466 78.5261 33.4321 78.1734C34.469 77.8581 35.5902 77.9209 36.5821 78.35C37.802 78.8873 39.1279 79.1654 40.4693 79.1654C41.8108 79.1654 43.1367 78.8873 44.3566 78.35C45.3483 77.9206 46.4696 77.8578 47.5065 78.1734C48.6921 78.526 49.677 79.329 50.2341 80.3966L50.8156 81.5165H50.8158C50.8697 81.6196 50.8643 81.7424 50.8015 81.8409C50.7388 81.9393 50.6275 81.9995 50.5076 81.9998H50.5076ZM30.992 81.3332H49.9471L49.6009 80.6966C49.1285 79.7919 48.2934 79.1118 47.2887 78.8133C46.4139 78.5464 45.4677 78.5985 44.6303 78.9599C43.3196 79.5373 41.8953 79.8362 40.454 79.8362C39.0127 79.8362 37.5883 79.5373 36.2777 78.9599C35.4402 78.5985 34.4939 78.5464 33.6191 78.8133C32.6144 79.1118 31.7793 79.7919 31.3069 80.6966L30.992 81.3332Z" fill="white"/>
<path d="M40.4681 197.333C38.2189 197.333 36.0619 196.473 34.4712 194.941C32.8808 193.41 31.9873 191.333 31.9873 189.167C31.9873 187.001 32.8808 184.924 34.4712 183.392C36.0616 181.861 38.2187 181 40.4681 181C42.7175 181 44.8743 181.861 46.465 183.392C48.0554 184.924 48.9489 187.001 48.9489 189.167C48.9461 191.332 48.0518 193.407 46.4619 194.938C44.8721 196.469 42.7167 197.33 40.4682 197.333L40.4681 197.333ZM40.4681 181.667C38.4025 181.667 36.4215 182.458 34.961 183.864C33.5003 185.27 32.6798 187.178 32.6798 189.167C32.6798 191.156 33.5003 193.063 34.961 194.47C36.4216 195.876 38.4025 196.666 40.4681 196.666C42.5337 196.666 44.5147 195.876 45.9752 194.47C47.4359 193.063 48.2564 191.156 48.2564 189.167C48.2536 187.179 47.4323 185.273 45.9723 183.867C44.5123 182.461 42.5328 181.67 40.4679 181.667L40.4681 181.667Z" fill="white"/>
<path d="M40.4711 193.668C39.1859 193.668 37.9532 193.176 37.0444 192.301C36.1356 191.426 35.625 190.239 35.625 189.001C35.625 187.764 36.1356 186.577 37.0444 185.702C37.9532 184.827 39.1859 184.335 40.4711 184.335C41.7563 184.335 42.989 184.827 43.8978 185.702C44.8066 186.577 45.3172 187.764 45.3172 189.001C45.3172 190.239 44.8066 191.426 43.8978 192.301C42.989 193.176 41.7563 193.668 40.4711 193.668ZM40.4711 185.002C39.3694 185.002 38.3129 185.423 37.5339 186.173C36.7549 186.923 36.3173 187.941 36.3173 189.001C36.3173 190.062 36.7549 191.079 37.5339 191.83C38.3129 192.58 39.3694 193.001 40.4711 193.001C41.5727 193.001 42.6293 192.58 43.4082 191.83C44.1872 191.079 44.6249 190.062 44.6249 189.001C44.6249 187.941 44.1872 186.923 43.4082 186.173C42.6292 185.423 41.5727 185.002 40.4711 185.002V185.002Z" fill="white"/>
<path d="M40.4683 192.335C39.5503 192.335 38.6699 191.984 38.0207 191.359C37.3715 190.734 37.0068 189.886 37.0068 189.002C37.0068 188.118 37.3715 187.27 38.0207 186.645C38.6699 186.02 39.5503 185.669 40.4683 185.669C41.3864 185.669 42.2667 186.02 42.9159 186.645C43.5651 187.27 43.9298 188.118 43.9298 189.002C43.9298 189.886 43.5651 190.734 42.9159 191.359C42.2667 191.984 41.3864 192.335 40.4683 192.335ZM40.4683 186.336C39.7339 186.336 39.0295 186.617 38.5103 187.117C37.9909 187.617 37.6991 188.295 37.6991 189.002C37.6991 189.709 37.9909 190.388 38.5103 190.888C39.0295 191.388 39.7339 191.669 40.4683 191.669C41.2028 191.669 41.9072 191.388 42.4264 190.888C42.9458 190.388 43.2375 189.709 43.2375 189.002C43.2375 188.295 42.9458 187.617 42.4264 187.117C41.9072 186.617 41.2028 186.336 40.4683 186.336V186.336Z" fill="white"/>
<path d="M40.8198 183.002C40.8198 183.186 40.6647 183.335 40.4734 183.335C40.2821 183.335 40.127 183.186 40.127 183.002C40.127 182.818 40.2821 182.669 40.4734 182.669C40.6647 182.669 40.8198 182.818 40.8198 183.002Z" fill="white"/>
<path d="M50.5076 201H30.431C30.3111 201 30.1998 200.94 30.1371 200.841C30.0744 200.743 30.069 200.62 30.1229 200.517L30.7044 199.397H30.7045C31.2616 198.329 32.2466 197.527 33.4321 197.174C34.469 196.859 35.5902 196.921 36.5821 197.35C37.802 197.888 39.1279 198.166 40.4693 198.166C41.8108 198.166 43.1367 197.888 44.3566 197.35C45.3483 196.921 46.4696 196.858 47.5065 197.174C48.6921 197.527 49.677 198.329 50.2341 199.397L50.8156 200.517H50.8158C50.8697 200.62 50.8643 200.743 50.8015 200.841C50.7388 200.94 50.6275 201 50.5076 201H50.5076ZM30.992 200.334H49.9471L49.6009 199.697C49.1285 198.792 48.2934 198.112 47.2887 197.814C46.4139 197.547 45.4677 197.599 44.6303 197.96C43.3196 198.538 41.8953 198.837 40.454 198.837C39.0127 198.837 37.5883 198.538 36.2777 197.96C35.4402 197.599 34.4939 197.547 33.6191 197.814C32.6144 198.112 31.7793 198.792 31.3069 199.697L30.992 200.334Z" fill="white"/>
<rect x="175.447" y="224" width="18.0111" height="46.9021" rx="1" fill="#060606"/>
<path d="M108.671 278.127L176.119 256.642L179.013 270.278L108.671 278.127Z" fill="#060606"/>
<path d="M260.329 278.127L189.987 270.278L192.881 256.641L260.329 278.127Z" fill="#060606"/>
<defs>
<radialGradient id="paint0_angular_272_802" cx="0" cy="0" r="1" gradientUnits="userSpaceOnUse" gradientTransform="translate(40.5 112) rotate(90) scale(96.9999 30.5)">
<stop offset="0.25" stop-color="#E56BD7"/>
<stop offset="0.75" stop-color="#5AA3FF"/>
</radialGradient>
<radialGradient id="paint1_angular_272_802" cx="0" cy="0" r="1" gradientUnits="userSpaceOnUse" gradientTransform="translate(40.5 112) rotate(90) scale(96.9999 30.5)">
<stop offset="0.25" stop-color="#E56BD7"/>
<stop offset="0.75" stop-color="#5AA3FF"/>
</radialGradient>
<radialGradient id="paint2_angular_272_802" cx="0" cy="0" r="1" gradientUnits="userSpaceOnUse" gradientTransform="translate(40.5 112) rotate(90) scale(96.9999 30.5)">
<stop offset="0.25" stop-color="#E56BD7"/>
<stop offset="0.75" stop-color="#5AA3FF"/>
</radialGradient>
<radialGradient id="paint3_angular_272_802" cx="0" cy="0" r="1" gradientUnits="userSpaceOnUse" gradientTransform="translate(40.5 112) rotate(90) scale(96.9999 30.5)">
<stop offset="0.25" stop-color="#E56BD7"/>
<stop offset="0.75" stop-color="#5AA3FF"/>
</radialGradient>
<radialGradient id="paint4_angular_272_802" cx="0" cy="0" r="1" gradientUnits="userSpaceOnUse" gradientTransform="translate(40.5 112) rotate(90) scale(96.9999 30.5)">
<stop offset="0.25" stop-color="#E56BD7"/>
<stop offset="0.75" stop-color="#5AA3FF"/>
</radialGradient>
<radialGradient id="paint5_angular_272_802" cx="0" cy="0" r="1" gradientUnits="userSpaceOnUse" gradientTransform="translate(146 62) rotate(90) scale(47 70)">
<stop offset="0.348958" stop-color="#E56BD7"/>
<stop offset="0.859375" stop-color="#5AA3FF"/>
</radialGradient>
<radialGradient id="paint6_angular_272_802" cx="0" cy="0" r="1" gradientUnits="userSpaceOnUse" gradientTransform="translate(146 162) rotate(90) scale(47 70)">
<stop offset="0.140625" stop-color="#E56BD7"/>
<stop offset="0.635417" stop-color="#5AA3FF"/>
</radialGradient>
<radialGradient id="paint7_angular_272_802" cx="0" cy="0" r="1" gradientUnits="userSpaceOnUse" gradientTransform="translate(292 162) rotate(90) scale(47 70)">
<stop offset="0.348958" stop-color="#5AA3FF"/>
<stop offset="0.859375" stop-color="#E56BD7"/>
</radialGradient>
<radialGradient id="paint8_angular_272_802" cx="0" cy="0" r="1" gradientUnits="userSpaceOnUse" gradientTransform="translate(292 62) rotate(90) scale(47 70)">
<stop offset="0.140625" stop-color="#5AA3FF"/>
<stop offset="0.635417" stop-color="#E56BD7"/>
</radialGradient>
</defs>
</svg>
