<svg width="371" height="286" viewBox="0 0 371 286" fill="none" xmlns="http://www.w3.org/2000/svg">
<path d="M9.37263 1.5H361.627C362.661 1.5 363.685 1.70352 364.64 2.09891C365.596 2.49429 366.464 3.07379 367.195 3.80426C367.926 4.53473 368.505 5.40184 368.901 6.35606C369.296 7.3103 369.5 8.33302 369.5 9.36585V222.5H1.5V9.36585C1.5 7.28004 2.32916 5.27947 3.80545 3.80425C5.28177 2.329 7.28433 1.5 9.37263 1.5Z" fill="white" stroke="#020202" stroke-width="3"/>
<rect x="10" y="15" width="352" height="194" rx="4" fill="url(#paint0_radial_272_881)" fill-opacity="0.7"/>
<path d="M173.356 120.81C171.645 118.905 168.792 118.715 166.891 120.239C164.989 121.953 164.799 124.811 166.32 126.715L170.884 132.238C141.602 131.095 123.536 126.715 115.93 123.095C113.649 121.953 113.649 119.095 115.93 117.952C120.577 115.711 128.961 113.314 141.083 111.467C143.336 111.124 145.024 109.203 145.024 106.925C145.024 104.186 142.618 102.064 139.909 102.47C120.801 105.335 103 110.633 103 120.429C103 136.81 151.489 140.619 172.216 141.382L165.37 148.239C163.659 149.953 163.659 153.001 165.37 154.715C167.081 156.429 170.124 156.429 171.835 154.715L184.956 141.763C186.667 140.049 186.858 137.001 185.336 134.906C182.103 131.097 176.778 124.81 173.356 120.81Z" fill="white"/>
<path d="M232.095 102.471C229.384 102.064 226.976 104.188 226.976 106.929C226.976 109.206 228.661 111.127 230.911 111.474C242.901 113.32 251.427 115.714 256.069 117.952C258.351 119.095 258.351 122.143 256.069 123.095C248.273 126.904 228.687 131.477 197.312 132.429C194.84 132.429 192.748 134.524 192.748 137.191C192.748 139.667 194.84 141.763 197.312 141.572C216.327 141 269 137.762 269 120.618C269 110.65 251.201 105.339 232.095 102.471Z" fill="white"/>
<path d="M160.797 101.763C161.938 101.191 162.889 100.429 163.649 99.6674C165.17 98.1434 165.931 95.8582 165.931 93.1915C165.931 90.3349 164.979 87.8582 162.888 86.1442C160.796 84.2389 157.753 83.2876 153.761 83.2876C151.288 83.2876 149.007 83.6689 146.915 84.4303C145.013 85.1916 143.302 86.1442 141.972 87.2869C141.548 87.6051 141.455 88.2022 141.761 88.6346L143.895 91.6536C144.196 92.0787 144.788 92.1715 145.204 91.8586C146.536 91.0973 147.866 90.3347 149.198 89.7633C150.53 89.192 152.05 89.002 153.762 89.002C155.473 89.002 156.994 89.3833 157.945 90.1447C158.896 90.906 159.277 92.05 159.277 93.3826C159.277 95.0966 158.707 96.4305 157.375 97.5731C156.043 98.7156 153.953 99.2871 151.289 99.2871H149.583C148.005 99.2871 146.725 100.566 146.725 102.144C146.725 103.722 148.005 105.002 149.583 105.002H151.099C154.141 105.002 156.423 105.383 158.134 106.336C159.655 107.097 160.226 108.431 160.226 110.336C160.226 112.242 159.655 113.764 158.324 114.908C156.992 116.051 154.902 116.622 152.049 116.622C150.527 116.622 148.816 116.432 147.295 116.051C145.584 115.67 144.062 115.098 142.541 114.337C141.842 113.987 141.02 114.495 141.02 115.277V119.26C141.02 119.619 141.249 119.938 141.59 120.051C143.111 120.813 144.822 121.385 146.534 121.765C148.245 122.147 149.956 122.147 151.858 122.147C155.09 122.147 157.943 121.575 160.034 120.623C162.315 119.67 163.836 118.146 164.977 116.432C166.118 114.718 166.499 112.623 166.499 110.336C166.499 107.67 165.739 105.574 164.026 103.86C163.651 103.096 162.319 102.335 160.798 101.762L160.797 101.763Z" fill="white"/>
<path d="M184.945 97.3807C182.664 97.3807 180.762 97.762 179.241 98.7147C178.481 99.096 177.909 99.476 177.338 100.049C177.528 99.096 177.719 98.1433 177.909 97.1921C178.29 95.4781 178.86 94.1441 179.62 92.8114C180.38 91.6688 181.522 90.7161 182.852 89.9548C184.754 89.0022 187.416 88.6208 190.268 89.0022C191.01 89.1013 191.6 89.1922 192.17 89.3835C192.838 89.5745 193.502 89.0736 193.502 88.3796V84.8309C193.502 84.3705 193.189 83.9691 192.742 83.8575C192.172 83.6675 191.519 83.4642 190.5 83.3671C189.651 83.2862 188.75 83.2861 187.988 83.2861C184.375 83.2861 181.523 83.8575 179.241 85.1914C176.959 86.5254 175.057 88.2394 173.916 90.3347C172.585 92.43 171.824 94.9064 171.254 97.382C170.873 99.8586 170.494 102.525 170.494 105.192C170.494 109.001 171.064 112.049 172.205 114.526C173.346 117.002 175.057 118.906 176.959 120.24C178.861 121.383 181.142 122.146 183.615 122.146C187.418 122.146 190.461 121.003 192.742 118.526C195.023 116.241 196.164 113.003 196.164 109.002C196.164 105.193 195.023 102.335 192.932 100.24C191.03 98.333 188.368 97.3804 184.945 97.3804L184.945 97.3807ZM189.889 109.191C189.889 111.858 189.319 113.763 188.178 114.906C187.037 116.049 185.516 116.62 183.805 116.62C182.283 116.62 181.143 116.239 180.192 115.477C179.241 114.716 178.481 113.572 177.91 112.429C177.34 111.095 177.15 109.763 177.15 108.429C177.15 107.476 177.34 106.715 177.91 105.762C178.481 104.809 179.242 104.048 180.383 103.477C181.334 102.905 182.664 102.524 183.996 102.524C186.088 102.524 187.418 103.095 188.56 104.238C189.508 105.572 189.889 107.286 189.889 109.191Z" fill="white"/>
<path d="M221.848 88.6185C219.756 84.9991 216.334 83.2852 211.96 83.2852C208.917 83.2852 206.255 84.0465 204.354 85.7618C202.452 87.2857 201.122 89.571 200.171 92.6189C199.411 95.4755 199.03 98.9047 199.03 102.904C199.03 108.808 199.981 113.57 202.073 117C204.165 120.619 207.587 122.333 211.961 122.333C215.004 122.333 217.666 121.572 219.567 119.856C221.469 118.332 222.799 116.047 223.75 112.999C224.51 110.143 225.082 106.713 225.082 102.714C225.08 96.8083 223.94 92.0464 221.848 88.6185ZM218.616 102.904C218.616 107.666 218.045 111.286 216.905 113.571C215.954 115.666 214.242 116.619 211.961 116.619C209.679 116.619 207.967 115.666 207.017 113.571C205.877 111.285 205.496 107.666 205.496 102.904C205.496 98.1423 206.066 94.5229 207.017 92.2379C207.968 90.1426 209.49 89.19 211.961 89.19C214.242 89.19 215.764 90.1426 216.905 92.2379C218.044 94.5232 218.616 98.1423 218.616 102.904Z" fill="white"/>
<path d="M226.602 83.8572C222.609 83.8572 219.187 80.6193 219.187 76.4286C219.187 72.2381 222.419 69 226.602 69C230.596 69 234.018 72.2379 234.018 76.4286C234.018 80.6191 230.595 83.8572 226.602 83.8572ZM226.602 72.9993C224.7 72.9993 223.18 74.5233 223.18 76.4272C223.18 78.3325 224.702 79.8551 226.602 79.8551C228.505 79.8551 230.025 78.3312 230.025 76.4272C230.025 74.5233 228.503 72.9993 226.602 72.9993Z" fill="white"/>
<rect x="175.447" y="224" width="18.0111" height="46.9021" rx="1" fill="#060606"/>
<path d="M108.671 278.127L176.119 256.642L179.013 270.278L108.671 278.127Z" fill="#060606"/>
<path d="M260.329 278.127L189.987 270.278L192.881 256.641L260.329 278.127Z" fill="#060606"/>
<defs>
<radialGradient id="paint0_radial_272_881" cx="0" cy="0" r="1" gradientUnits="userSpaceOnUse" gradientTransform="translate(186 112) rotate(90) scale(103 186.887)">
<stop stop-color="#5AA3FF"/>
<stop offset="1" stop-color="#E56BD7"/>
</radialGradient>
</defs>
</svg>
